<?xml version="1.0" encoding="utf-8"?>
<svg version="1.1" xmlns:xlink="http://www.w3.org/1999/xlink" width="36px" height="36px" xmlns="http://www.w3.org/2000/svg">
  <g transform="matrix(1 0 0 1 -1011 -637 )">
    <path d="M 1029 637  C 1039.08 637  1047 644.92  1047 655  C 1047 665.08  1039.08 673  1029 673  C 1018.92 673  1011 665.08  1011 655  C 1011 644.92  1018.92 637  1029 637  Z " fill-rule="nonzero" fill="#ffffff" stroke="none" />
    <path d="M 1029 637.5  C 1038.8 637.5  1046.5 645.2  1046.5 655  C 1046.5 664.8  1038.8 672.5  1029 672.5  C 1019.2 672.5  1011.5 664.8  1011.5 655  C 1011.5 645.2  1019.2 637.5  1029 637.5  Z " stroke-width="1" stroke="#797979" fill="none" />
  </g>
</svg>