<?xml version="1.0" encoding="utf-8"?>
<svg version="1.1" xmlns:xlink="http://www.w3.org/1999/xlink" width="37px" height="37px" xmlns="http://www.w3.org/2000/svg">
  <defs>
    <pattern id="BGPattern" patternUnits="userSpaceOnUse" alignment="0 0" imageRepeat="None" />
    <mask fill="white" id="Clip358">
      <path d="M 0 37  L 0 0  L 37 0  L 37 37  L 0 37  Z " fill-rule="evenodd" />
    </mask>
  </defs>
  <g transform="matrix(1 0 0 1 -1225 -2067 )">
    <path d="M 0 37  L 0 0  L 37 0  L 37 37  L 0 37  Z " fill-rule="nonzero" fill="rgba(242, 242, 242, 1)" stroke="none" transform="matrix(1 0 0 1 1225 2067 )" class="fill" />
    <path d="M 0 37  L 0 0  L 37 0  L 37 37  L 0 37  Z " stroke-width="2" stroke-dasharray="0" stroke="rgba(121, 121, 121, 1)" fill="none" transform="matrix(1 0 0 1 1225 2067 )" class="stroke" mask="url(#Clip358)" />
    <path d="M 36.64644660940672 0.35355339059327373  L 0.35355339059327373 36.64644660940672  M 0.35355339059327373 0.35355339059327373  L 36.64644660940672 36.64644660940672  " stroke-width="1" stroke-dasharray="0" stroke="rgba(121, 121, 121, 1)" fill="none" transform="matrix(1 0 0 1 1225 2067 )" class="stroke" />
  </g>
</svg>