<?xml version="1.0" encoding="utf-8"?>
<svg version="1.1" xmlns:xlink="http://www.w3.org/1999/xlink" width="106px" height="106px" xmlns="http://www.w3.org/2000/svg">
  <defs>
    <pattern id="BGPattern" patternUnits="userSpaceOnUse" alignment="0 0" imageRepeat="None" />
    <mask fill="white" id="Clip234">
      <path d="M 0 53  C 0 23.319999999999997  23.319999999999997 0  53 0  C 82.68 0  106 23.319999999999997  106 53  C 106 82.68  82.68 106  53 106  C 23.319999999999997 106  0 82.68  0 53  Z " fill-rule="evenodd" />
    </mask>
  </defs>
  <g transform="matrix(1 0 0 1 -1199 -1509 )">
    <path d="M 0 53  C 0 23.319999999999997  23.319999999999997 0  53 0  C 82.68 0  106 23.319999999999997  106 53  C 106 82.68  82.68 106  53 106  C 23.319999999999997 106  0 82.68  0 53  Z " fill-rule="nonzero" fill="rgba(255, 255, 255, 1)" stroke="none" transform="matrix(1 0 0 1 1199 1509 )" class="fill" />
    <path d="M 0 53  C 0 23.319999999999997  23.319999999999997 0  53 0  C 82.68 0  106 23.319999999999997  106 53  C 106 82.68  82.68 106  53 106  C 23.319999999999997 106  0 82.68  0 53  Z " stroke-width="2" stroke-dasharray="0" stroke="rgba(121, 121, 121, 1)" fill="none" transform="matrix(1 0 0 1 1199 1509 )" class="stroke" mask="url(#Clip234)" />
  </g>
</svg>