<?xml version="1.0" encoding="utf-8"?>
<svg version="1.1" xmlns:xlink="http://www.w3.org/1999/xlink" width="67px" height="67px" xmlns="http://www.w3.org/2000/svg">
  <defs>
    <pattern id="BGPattern" patternUnits="userSpaceOnUse" alignment="0 0" imageRepeat="None" />
    <mask fill="white" id="Clip2050">
      <path d="M 0 30.5  C 0 13.419999999999998  13.419999999999998 0  30.5 0  C 47.58 0  61 13.419999999999998  61 30.5  C 61 47.58  47.58 61  30.5 61  C 13.419999999999998 61  0 47.58  0 30.5  Z " fill-rule="evenodd" />
    </mask>
  </defs>
  <g transform="matrix(1 0 0 1 -1449 -133 )">
    <path d="M 0 30.5  C 0 13.419999999999998  13.419999999999998 0  30.5 0  C 47.58 0  61 13.419999999999998  61 30.5  C 61 47.58  47.58 61  30.5 61  C 13.419999999999998 61  0 47.58  0 30.5  Z " fill-rule="nonzero" fill="rgba(170, 170, 170, 1)" stroke="none" transform="matrix(1 0 0 1 1451 135 )" class="fill" />
    <path d="M 0 30.5  C 0 13.419999999999998  13.419999999999998 0  30.5 0  C 47.58 0  61 13.419999999999998  61 30.5  C 61 47.58  47.58 61  30.5 61  C 13.419999999999998 61  0 47.58  0 30.5  Z " stroke-width="4" stroke-dasharray="0" stroke="rgba(121, 121, 121, 1)" fill="none" transform="matrix(1 0 0 1 1451 135 )" class="stroke" mask="url(#Clip2050)" />
  </g>
  <style>svg { filter: drop-shadow(1px 1px 1.5px rgba(0, 0, 0, 0.34901960784313724)); }</style>
</svg>