<?xml version="1.0" encoding="utf-8"?>
<svg version="1.1" xmlns:xlink="http://www.w3.org/1999/xlink" width="93px" height="93px" xmlns="http://www.w3.org/2000/svg">
  <defs>
    <pattern id="BGPattern" patternUnits="userSpaceOnUse" alignment="0 0" imageRepeat="None" />
    <mask fill="white" id="Clip2142">
      <path d="M 0 46.5  C 0 20.459999999999997  20.459999999999997 0  46.5 0  C 72.54 0  93 20.459999999999997  93 46.5  C 93 72.54  72.54 93  46.5 93  C 20.459999999999997 93  0 72.54  0 46.5  Z " fill-rule="evenodd" />
    </mask>
  </defs>
  <g transform="matrix(1 0 0 1 -659 -731 )">
    <path d="M 0 46.5  C 0 20.459999999999997  20.459999999999997 0  46.5 0  C 72.54 0  93 20.459999999999997  93 46.5  C 93 72.54  72.54 93  46.5 93  C 20.459999999999997 93  0 72.54  0 46.5  Z " fill-rule="nonzero" fill="rgba(255, 255, 255, 0)" stroke="none" transform="matrix(1 0 0 1 659 731 )" class="fill" />
    <path d="M 0 46.5  C 0 20.459999999999997  20.459999999999997 0  46.5 0  C 72.54 0  93 20.459999999999997  93 46.5  C 93 72.54  72.54 93  46.5 93  C 20.459999999999997 93  0 72.54  0 46.5  Z " stroke-width="6" stroke-dasharray="0" stroke="rgba(245, 154, 35, 1)" fill="none" transform="matrix(1 0 0 1 659 731 )" class="stroke" mask="url(#Clip2142)" />
  </g>
</svg>