<?xml version="1.0" encoding="utf-8"?>
<svg version="1.1" xmlns:xlink="http://www.w3.org/1999/xlink" width="19px" height="19px" xmlns="http://www.w3.org/2000/svg">
  <defs>
    <pattern id="BGPattern" patternUnits="userSpaceOnUse" alignment="0 0" imageRepeat="None" />
    <mask fill="white" id="Clip2151">
      <path d="M 0 9.5  C 0 4.18  4.18 0  9.5 0  C 14.82 0  19 4.18  19 9.5  C 19 14.82  14.82 19  9.5 19  C 4.18 19  0 14.82  0 9.5  Z " fill-rule="evenodd" />
    </mask>
  </defs>
  <g transform="matrix(1 0 0 1 -720 -795 )">
    <path d="M 0 9.5  C 0 4.18  4.18 0  9.5 0  C 14.82 0  19 4.18  19 9.5  C 19 14.82  14.82 19  9.5 19  C 4.18 19  0 14.82  0 9.5  Z " fill-rule="nonzero" fill="rgba(170, 170, 170, 1)" stroke="none" transform="matrix(1 0 0 1 720 795 )" class="fill" />
    <path d="M 0 9.5  C 0 4.18  4.18 0  9.5 0  C 14.82 0  19 4.18  19 9.5  C 19 14.82  14.82 19  9.5 19  C 4.18 19  0 14.82  0 9.5  Z " stroke-width="2" stroke-dasharray="0" stroke="rgba(121, 121, 121, 1)" fill="none" transform="matrix(1 0 0 1 720 795 )" class="stroke" mask="url(#Clip2151)" />
  </g>
</svg>