<?xml version="1.0" encoding="utf-8"?>
<svg version="1.1" xmlns:xlink="http://www.w3.org/1999/xlink" width="183px" height="183px" xmlns="http://www.w3.org/2000/svg">
  <g transform="matrix(1 0 0 1 -342 -1308 )">
    <path d="M 433.5 1308  C 484.74 1308  525 1348.26  525 1399.5  C 525 1450.74  484.74 1491  433.5 1491  C 382.26 1491  342 1450.74  342 1399.5  C 342 1348.26  382.26 1308  433.5 1308  Z " fill-rule="nonzero" fill="#ffffff" stroke="none" />
    <path d="M 433.5 1308.5  C 484.46 1308.5  524.5 1348.54  524.5 1399.5  C 524.5 1450.46  484.46 1490.5  433.5 1490.5  C 382.54 1490.5  342.5 1450.46  342.5 1399.5  C 342.5 1348.54  382.54 1308.5  433.5 1308.5  Z " stroke-width="1" stroke="#797979" fill="none" />
  </g>
</svg>