<?xml version="1.0" encoding="utf-8"?>
<svg version="1.1" xmlns:xlink="http://www.w3.org/1999/xlink" width="387px" height="565px" xmlns="http://www.w3.org/2000/svg">
  <defs>
    <pattern id="BGPattern" patternUnits="userSpaceOnUse" alignment="0 0" imageRepeat="None" />
    <mask fill="white" id="Clip297">
      <path d="M 108.92670157068062 427.52861428516854  L 51.47058823529403 365.62527555969234  L 12.04697986577196 284.6658379464066  L 0.8823529411763502 167.81397595534563  L 51.47058823529403 0.4245384285101729  L 67.75167785234908 0.4245384285101729  L 42.919463087248346 186.40737520207722  L 92.5838926174498 315.11212217704406  L 216.0738255033558 427.52861428516854  L 386.93717277486917 498.2426816218902  L 377.51308900523566 565  L 206.006711409396 504.0174766080439  L 108.92670157068062 427.52861428516854  Z " fill-rule="evenodd" />
    </mask>
  </defs>
  <g transform="matrix(1 0 0 1 -588 -964 )">
    <path d="M 108.92670157068062 427.52861428516854  L 51.47058823529403 365.62527555969234  L 12.04697986577196 284.6658379464066  L 0.8823529411763502 167.81397595534563  L 51.47058823529403 0.4245384285101729  L 67.75167785234908 0.4245384285101729  L 42.919463087248346 186.40737520207722  L 92.5838926174498 315.11212217704406  L 216.0738255033558 427.52861428516854  L 386.93717277486917 498.2426816218902  L 377.51308900523566 565  L 206.006711409396 504.0174766080439  L 108.92670157068062 427.52861428516854  Z " fill-rule="nonzero" fill="rgba(170, 170, 170, 0.996078431372549)" stroke="none" transform="matrix(1 0 0 1 588 964 )" class="fill" />
    <path d="M 108.92670157068062 427.52861428516854  L 51.47058823529403 365.62527555969234  L 12.04697986577196 284.6658379464066  L 0.8823529411763502 167.81397595534563  L 51.47058823529403 0.4245384285101729  L 67.75167785234908 0.4245384285101729  L 42.919463087248346 186.40737520207722  L 92.5838926174498 315.11212217704406  L 216.0738255033558 427.52861428516854  L 386.93717277486917 498.2426816218902  L 377.51308900523566 565  L 206.006711409396 504.0174766080439  L 108.92670157068062 427.52861428516854  Z " stroke-width="60" stroke-dasharray="0" stroke="rgba(121, 121, 121, 0.1568627450980392)" fill="none" transform="matrix(1 0 0 1 588 964 )" class="stroke" mask="url(#Clip297)" />
  </g>
</svg>