<?xml version="1.0" encoding="utf-8"?>
<svg version="1.1" xmlns:xlink="http://www.w3.org/1999/xlink" width="306px" height="1097px" xmlns="http://www.w3.org/2000/svg">
  <defs>
    <pattern id="BGPattern" patternUnits="userSpaceOnUse" alignment="0 0" imageRepeat="None" />
    <mask fill="white" id="Clip296">
      <path d="M 0 1097  L 0 1026.4886950904393  L 86.27777777777783 986  L 119.65269461077845 986  L 160.97005988023955 862.5323538968577  L 180.7305389221557 711.6776679199742  L 156.77844311377237 597.1044886970246  L 72.94610778443109 389.59973077101625  L 31.628742514969982 300.4872580420554  L 14.263473053892087 211.37478531309463  L 8.874251497006071 148.9960544028223  L 17.85628742514973 88.52687647959887  L 50.19161676646706 0  L 119.65269461077845 0  L 92.70658682634735 72.61393492085597  L 81.32934131736533 157.2707840133687  L 140.61077844311365 309.3985053149515  L 223.8443113772455 436.70203778489525  L 286.11976047904204 583.7376177876804  L 305.8802395209582 726.3175741540177  L 300 846.6194123381144  L 270.55089820359285 958.646520911665  L 300 1097  L 0 1097  Z " fill-rule="evenodd" />
    </mask>
  </defs>
  <g transform="matrix(1 0 0 1 -797 -711 )">
    <path d="M 0 1097  L 0 1026.4886950904393  L 86.27777777777783 986  L 119.65269461077845 986  L 160.97005988023955 862.5323538968577  L 180.7305389221557 711.6776679199742  L 156.77844311377237 597.1044886970246  L 72.94610778443109 389.59973077101625  L 31.628742514969982 300.4872580420554  L 14.263473053892087 211.37478531309463  L 8.874251497006071 148.9960544028223  L 17.85628742514973 88.52687647959887  L 50.19161676646706 0  L 119.65269461077845 0  L 92.70658682634735 72.61393492085597  L 81.32934131736533 157.2707840133687  L 140.61077844311365 309.3985053149515  L 223.8443113772455 436.70203778489525  L 286.11976047904204 583.7376177876804  L 305.8802395209582 726.3175741540177  L 300 846.6194123381144  L 270.55089820359285 958.646520911665  L 300 1097  L 0 1097  Z " fill-rule="nonzero" fill="rgba(170, 170, 170, 0.996078431372549)" stroke="none" transform="matrix(1 0 0 1 797 711 )" class="fill" />
    <path d="M 0 1097  L 0 1026.4886950904393  L 86.27777777777783 986  L 119.65269461077845 986  L 160.97005988023955 862.5323538968577  L 180.7305389221557 711.6776679199742  L 156.77844311377237 597.1044886970246  L 72.94610778443109 389.59973077101625  L 31.628742514969982 300.4872580420554  L 14.263473053892087 211.37478531309463  L 8.874251497006071 148.9960544028223  L 17.85628742514973 88.52687647959887  L 50.19161676646706 0  L 119.65269461077845 0  L 92.70658682634735 72.61393492085597  L 81.32934131736533 157.2707840133687  L 140.61077844311365 309.3985053149515  L 223.8443113772455 436.70203778489525  L 286.11976047904204 583.7376177876804  L 305.8802395209582 726.3175741540177  L 300 846.6194123381144  L 270.55089820359285 958.646520911665  L 300 1097  L 0 1097  Z " stroke-width="60" stroke-dasharray="0" stroke="rgba(121, 121, 121, 0.1568627450980392)" fill="none" transform="matrix(1 0 0 1 797 711 )" class="stroke" mask="url(#Clip296)" />
  </g>
</svg>