<?xml version="1.0" encoding="utf-8"?>
<svg version="1.1" xmlns:xlink="http://www.w3.org/1999/xlink" width="330px" height="109px" xmlns="http://www.w3.org/2000/svg">
  <defs>
    <pattern id="BGPattern" patternUnits="userSpaceOnUse" alignment="0 0" imageRepeat="None" />
    <mask fill="white" id="Clip295">
      <path d="M 0 109  L 33.40602707311132 50.75167376749838  L 126.34892299126557 6.52363562588775  L 198.9939450882138 0.4422803814159403  L 270.5706580366774 35.82471089470472  L 329.654320987652 109  L 0 109  Z " fill-rule="evenodd" />
    </mask>
  </defs>
  <g transform="matrix(1 0 0 1 -751 -1699 )">
    <path d="M 0 109  L 33.40602707311132 50.75167376749838  L 126.34892299126557 6.52363562588775  L 198.9939450882138 0.4422803814159403  L 270.5706580366774 35.82471089470472  L 329.654320987652 109  L 0 109  Z " fill-rule="nonzero" fill="rgba(170, 170, 170, 0.996078431372549)" stroke="none" transform="matrix(1 0 0 1 751 1699 )" class="fill" />
    <path d="M 0 109  L 33.40602707311132 50.75167376749838  L 126.34892299126557 6.52363562588775  L 198.9939450882138 0.4422803814159403  L 270.5706580366774 35.82471089470472  L 329.654320987652 109  L 0 109  Z " stroke-width="60" stroke-dasharray="0" stroke="rgba(121, 121, 121, 0.1568627450980392)" fill="none" transform="matrix(1 0 0 1 751 1699 )" class="stroke" mask="url(#Clip295)" />
  </g>
</svg>