<?xml version="1.0" encoding="utf-8"?>
<svg version="1.1" xmlns:xlink="http://www.w3.org/1999/xlink" width="306px" height="1097px" xmlns="http://www.w3.org/2000/svg">
  <defs>
    <mask fill="white" id="clip302">
      <path d="M 0 1097  L 0 1026.48869509044  L 86.2777777777778 986  L 119.652694610778 986  L 160.97005988024 862.532353896858  L 180.730538922156 711.677667919974  L 156.778443113772 597.104488697025  L 72.9461077844311 389.599730771016  L 31.62874251497 300.487258042055  L 14.2634730538921 211.374785313095  L 8.87425149700607 148.996054402822  L 17.8562874251497 88.5268764795989  L 50.1916167664671 0  L 119.652694610778 0  L 92.7065868263473 72.613934920856  L 81.3293413173653 157.270784013369  L 140.610778443114 309.398505314951  L 223.844311377246 436.702037784895  L 286.119760479042 583.73761778768  L 305.880239520958 726.317574154018  L 300 846.619412338114  L 270.550898203593 958.646520911665  L 300 1097  L 0 1097  Z " fill-rule="evenodd" />
    </mask>
  </defs>
  <g transform="matrix(1 0 0 1 -797 -711 )">
    <path d="M 0 1097  L 0 1026.48869509044  L 86.2777777777778 986  L 119.652694610778 986  L 160.97005988024 862.532353896858  L 180.730538922156 711.677667919974  L 156.778443113772 597.104488697025  L 72.9461077844311 389.599730771016  L 31.62874251497 300.487258042055  L 14.2634730538921 211.374785313095  L 8.87425149700607 148.996054402822  L 17.8562874251497 88.5268764795989  L 50.1916167664671 0  L 119.652694610778 0  L 92.7065868263473 72.613934920856  L 81.3293413173653 157.270784013369  L 140.610778443114 309.398505314951  L 223.844311377246 436.702037784895  L 286.119760479042 583.73761778768  L 305.880239520958 726.317574154018  L 300 846.619412338114  L 270.550898203593 958.646520911665  L 300 1097  L 0 1097  Z " fill-rule="nonzero" fill="#aaaaaa" stroke="none" fill-opacity="0.996078431372549" transform="matrix(1 0 0 1 797 711 )" />
    <path d="M 0 1097  L 0 1026.48869509044  L 86.2777777777778 986  L 119.652694610778 986  L 160.97005988024 862.532353896858  L 180.730538922156 711.677667919974  L 156.778443113772 597.104488697025  L 72.9461077844311 389.599730771016  L 31.62874251497 300.487258042055  L 14.2634730538921 211.374785313095  L 8.87425149700607 148.996054402822  L 17.8562874251497 88.5268764795989  L 50.1916167664671 0  L 119.652694610778 0  L 92.7065868263473 72.613934920856  L 81.3293413173653 157.270784013369  L 140.610778443114 309.398505314951  L 223.844311377246 436.702037784895  L 286.119760479042 583.73761778768  L 305.880239520958 726.317574154018  L 300 846.619412338114  L 270.550898203593 958.646520911665  L 300 1097  L 0 1097  Z " stroke-width="60" stroke="#797979" fill="none" stroke-opacity="0.156862745098039" transform="matrix(1 0 0 1 797 711 )" mask="url(#clip302)" />
  </g>
</svg>