<?xml version="1.0" encoding="utf-8"?>
<svg version="1.1" xmlns:xlink="http://www.w3.org/1999/xlink" width="387px" height="565px" xmlns="http://www.w3.org/2000/svg">
  <defs>
    <mask fill="white" id="clip303">
      <path d="M 108.926701570681 427.528614285169  L 51.470588235294 365.625275559692  L 12.046979865772 284.665837946407  L 0.88235294117635 167.813975955346  L 51.470588235294 0.424538428510173  L 67.7516778523491 0.424538428510173  L 42.9194630872483 186.407375202077  L 92.5838926174498 315.112122177044  L 216.073825503356 427.528614285169  L 386.937172774869 498.24268162189  L 377.513089005236 565  L 206.006711409396 504.017476608044  L 108.926701570681 427.528614285169  Z " fill-rule="evenodd" />
    </mask>
  </defs>
  <g transform="matrix(1 0 0 1 -588 -964 )">
    <path d="M 108.926701570681 427.528614285169  L 51.470588235294 365.625275559692  L 12.046979865772 284.665837946407  L 0.88235294117635 167.813975955346  L 51.470588235294 0.424538428510173  L 67.7516778523491 0.424538428510173  L 42.9194630872483 186.407375202077  L 92.5838926174498 315.112122177044  L 216.073825503356 427.528614285169  L 386.937172774869 498.24268162189  L 377.513089005236 565  L 206.006711409396 504.017476608044  L 108.926701570681 427.528614285169  Z " fill-rule="nonzero" fill="#aaaaaa" stroke="none" fill-opacity="0.996078431372549" transform="matrix(1 0 0 1 588 964 )" />
    <path d="M 108.926701570681 427.528614285169  L 51.470588235294 365.625275559692  L 12.046979865772 284.665837946407  L 0.88235294117635 167.813975955346  L 51.470588235294 0.424538428510173  L 67.7516778523491 0.424538428510173  L 42.9194630872483 186.407375202077  L 92.5838926174498 315.112122177044  L 216.073825503356 427.528614285169  L 386.937172774869 498.24268162189  L 377.513089005236 565  L 206.006711409396 504.017476608044  L 108.926701570681 427.528614285169  Z " stroke-width="60" stroke="#797979" fill="none" stroke-opacity="0.156862745098039" transform="matrix(1 0 0 1 588 964 )" mask="url(#clip303)" />
  </g>
</svg>