<?xml version="1.0" encoding="utf-8"?>
<svg version="1.1" xmlns:xlink="http://www.w3.org/1999/xlink" width="113px" height="510px" xmlns="http://www.w3.org/2000/svg">
  <defs>
    <pattern id="BGPattern" patternUnits="userSpaceOnUse" alignment="0 0" imageRepeat="None" />
    <mask fill="white" id="Clip298">
      <path d="M 0.257914700228999 461.5600102661049  L 61.02797290761689 363.2979155328077  L 98.44732774632696 253.52617435189842  L 98.44732774632688 161.71708172786506  L 82.96345677858464 0.05324471598064165  L 94.57636000439128 0.05324471598060626  L 112.6408761334233 199.63822868127008  L 112.64087613342319 248.86919139270836  L 88.12474710116517 383.92169720922124  L 70.63089866698945 509.1243154498665  L 0.257914700228999 461.5600102661049  Z " fill-rule="evenodd" />
    </mask>
  </defs>
  <g transform="matrix(1 0 0 1 -1075 -688 )">
    <path d="M 0.257914700228999 461.5600102661049  L 61.02797290761689 363.2979155328077  L 98.44732774632696 253.52617435189842  L 98.44732774632688 161.71708172786506  L 82.96345677858464 0.05324471598064165  L 94.57636000439128 0.05324471598060626  L 112.6408761334233 199.63822868127008  L 112.64087613342319 248.86919139270836  L 88.12474710116517 383.92169720922124  L 70.63089866698945 509.1243154498665  L 0.257914700228999 461.5600102661049  Z " fill-rule="nonzero" fill="rgba(170, 170, 170, 0.996078431372549)" stroke="none" transform="matrix(1 0 0 1 1075 688 )" class="fill" />
    <path d="M 0.257914700228999 461.5600102661049  L 61.02797290761689 363.2979155328077  L 98.44732774632696 253.52617435189842  L 98.44732774632688 161.71708172786506  L 82.96345677858464 0.05324471598064165  L 94.57636000439128 0.05324471598060626  L 112.6408761334233 199.63822868127008  L 112.64087613342319 248.86919139270836  L 88.12474710116517 383.92169720922124  L 70.63089866698945 509.1243154498665  L 0.257914700228999 461.5600102661049  Z " stroke-width="60" stroke-dasharray="0" stroke="rgba(121, 121, 121, 0.1568627450980392)" fill="none" transform="matrix(1 0 0 1 1075 688 )" class="stroke" mask="url(#Clip298)" />
  </g>
</svg>