<?xml version="1.0" encoding="utf-8"?>
<svg version="1.1" xmlns:xlink="http://www.w3.org/1999/xlink" width="113px" height="510px" xmlns="http://www.w3.org/2000/svg">
  <defs>
    <mask fill="white" id="clip706">
      <path d="M 0.257914700228999 461.560010266105  L 61.0279729076169 363.297915532808  L 98.447327746327 253.526174351898  L 98.4473277463269 161.717081727865  L 82.9634567785846 0.0532447159806416  L 94.5763600043913 0.0532447159806063  L 112.640876133423 199.63822868127  L 112.640876133423 248.869191392708  L 88.1247471011652 383.921697209221  L 70.6308986669895 509.124315449867  L 0.257914700228999 461.560010266105  Z " fill-rule="evenodd" />
    </mask>
  </defs>
  <g transform="matrix(1 0 0 1 -1075 -688 )">
    <path d="M 0.257914700228999 461.560010266105  L 61.0279729076169 363.297915532808  L 98.447327746327 253.526174351898  L 98.4473277463269 161.717081727865  L 82.9634567785846 0.0532447159806416  L 94.5763600043913 0.0532447159806063  L 112.640876133423 199.63822868127  L 112.640876133423 248.869191392708  L 88.1247471011652 383.921697209221  L 70.6308986669895 509.124315449867  L 0.257914700228999 461.560010266105  Z " fill-rule="nonzero" fill="#aaaaaa" stroke="none" fill-opacity="0.996078431372549" transform="matrix(1 0 0 1 1075 688 )" />
    <path d="M 0.257914700228999 461.560010266105  L 61.0279729076169 363.297915532808  L 98.447327746327 253.526174351898  L 98.4473277463269 161.717081727865  L 82.9634567785846 0.0532447159806416  L 94.5763600043913 0.0532447159806063  L 112.640876133423 199.63822868127  L 112.640876133423 248.869191392708  L 88.1247471011652 383.921697209221  L 70.6308986669895 509.124315449867  L 0.257914700228999 461.560010266105  Z " stroke-width="60" stroke="#797979" fill="none" stroke-opacity="0.156862745098039" transform="matrix(1 0 0 1 1075 688 )" mask="url(#clip706)" />
  </g>
</svg>