<?xml version="1.0" encoding="utf-8"?>
<svg version="1.1" xmlns:xlink="http://www.w3.org/1999/xlink" width="330px" height="109px" xmlns="http://www.w3.org/2000/svg">
  <defs>
    <mask fill="white" id="clip703">
      <path d="M 0 109  L 33.4060270731113 50.7516737674984  L 126.348922991266 6.52363562588775  L 198.993945088214 0.44228038141594  L 270.570658036677 35.8247108947047  L 329.654320987652 109  L 0 109  Z " fill-rule="evenodd" />
    </mask>
  </defs>
  <g transform="matrix(1 0 0 1 -751 -1699 )">
    <path d="M 0 109  L 33.4060270731113 50.7516737674984  L 126.348922991266 6.52363562588775  L 198.993945088214 0.44228038141594  L 270.570658036677 35.8247108947047  L 329.654320987652 109  L 0 109  Z " fill-rule="nonzero" fill="#aaaaaa" stroke="none" fill-opacity="0.996078431372549" transform="matrix(1 0 0 1 751 1699 )" />
    <path d="M 0 109  L 33.4060270731113 50.7516737674984  L 126.348922991266 6.52363562588775  L 198.993945088214 0.44228038141594  L 270.570658036677 35.8247108947047  L 329.654320987652 109  L 0 109  Z " stroke-width="60" stroke="#797979" fill="none" stroke-opacity="0.156862745098039" transform="matrix(1 0 0 1 751 1699 )" mask="url(#clip703)" />
  </g>
</svg>