<?xml version="1.0" encoding="utf-8"?>
<svg version="1.1" xmlns:xlink="http://www.w3.org/1999/xlink" width="530px" height="774px" xmlns="http://www.w3.org/2000/svg">
  <defs>
    <mask fill="white" id="clip716">
      <path d="M 149.176102926255 585.676367180036  L 70.4894360845112 500.874271297702  L 16.498447878189 389.967006319502  L 1.20839033287717 229.890296264491  L 70.4894360845112 0.581580077286502  L 92.7865355600646 0.581580077286502  L 58.7785928585055 255.361607798952  L 126.794478261624 431.675721354039  L 295.91505818289 585.676367180036  L 529.913957546979 682.54838154928  L 517.007589593734 774  L 282.128054384961 690.459339636506  L 149.176102926255 585.676367180036  Z " fill-rule="evenodd" />
    </mask>
  </defs>
  <g transform="matrix(1 0 0 1 -31 -133 )">
    <path d="M 149.176102926255 585.676367180036  L 70.4894360845112 500.874271297702  L 16.498447878189 389.967006319502  L 1.20839033287717 229.890296264491  L 70.4894360845112 0.581580077286502  L 92.7865355600646 0.581580077286502  L 58.7785928585055 255.361607798952  L 126.794478261624 431.675721354039  L 295.91505818289 585.676367180036  L 529.913957546979 682.54838154928  L 517.007589593734 774  L 282.128054384961 690.459339636506  L 149.176102926255 585.676367180036  Z " fill-rule="nonzero" fill="#aaaaaa" stroke="none" fill-opacity="0.996078431372549" transform="matrix(1 0 0 1 31 133 )" />
    <path d="M 149.176102926255 585.676367180036  L 70.4894360845112 500.874271297702  L 16.498447878189 389.967006319502  L 1.20839033287717 229.890296264491  L 70.4894360845112 0.581580077286502  L 92.7865355600646 0.581580077286502  L 58.7785928585055 255.361607798952  L 126.794478261624 431.675721354039  L 295.91505818289 585.676367180036  L 529.913957546979 682.54838154928  L 517.007589593734 774  L 282.128054384961 690.459339636506  L 149.176102926255 585.676367180036  Z " stroke-width="60" stroke="#797979" fill="none" stroke-opacity="0.156862745098039" transform="matrix(1 0 0 1 31 133 )" mask="url(#clip716)" />
  </g>
</svg>