<?xml version="1.0" encoding="utf-8"?>
<svg version="1.1" xmlns:xlink="http://www.w3.org/1999/xlink" width="452px" height="149px" xmlns="http://www.w3.org/2000/svg">
  <defs>
    <pattern id="BGPattern" patternUnits="userSpaceOnUse" alignment="0 0" imageRepeat="None" />
    <mask fill="white" id="Clip307">
      <path d="M 0 149  L 45.7561340516555 69.37614120511246  L 173.05973694561223 8.917630350984172  L 272.5614035753716 0.604585108541056  L 370.5998104017521 48.97139379184407  L 451.5265245042991 149  L 0 149  Z " fill-rule="evenodd" />
    </mask>
  </defs>
  <g transform="matrix(1 0 0 1 -254 -1140 )">
    <path d="M 0 149  L 45.7561340516555 69.37614120511246  L 173.05973694561223 8.917630350984172  L 272.5614035753716 0.604585108541056  L 370.5998104017521 48.97139379184407  L 451.5265245042991 149  L 0 149  Z " fill-rule="nonzero" fill="rgba(170, 170, 170, 0.996078431372549)" stroke="none" transform="matrix(1 0 0 1 254 1140 )" class="fill" />
    <path d="M 0 149  L 45.7561340516555 69.37614120511246  L 173.05973694561223 8.917630350984172  L 272.5614035753716 0.604585108541056  L 370.5998104017521 48.97139379184407  L 451.5265245042991 149  L 0 149  Z " stroke-width="60" stroke-dasharray="0" stroke="rgba(121, 121, 121, 0.1568627450980392)" fill="none" transform="matrix(1 0 0 1 254 1140 )" class="stroke" mask="url(#Clip307)" />
  </g>
</svg>