<?xml version="1.0" encoding="utf-8"?>
<svg version="1.1" xmlns:xlink="http://www.w3.org/1999/xlink" width="155px" height="698px" xmlns="http://www.w3.org/2000/svg">
  <defs>
    <mask fill="white" id="clip315">
      <path d="M 0.353776801199069 631.703700324983  L 83.710936289209 497.219500082156  L 135.038369917528 346.982881760049  L 135.038369917528 221.330437345196  L 113.79943186443 0.0728721799107605  L 129.728635404254 0.0728721799107121  L 154.5073964662 273.230360038287  L 154.5073964662 340.609207043354  L 120.879077882129 525.445773827522  L 96.8830910918882 696.801514086288  L 0.353776801199069 631.703700324983  Z " fill-rule="evenodd" />
    </mask>
  </defs>
  <g transform="matrix(1 0 0 1 -698 245 )">
    <path d="M 0.353776801199069 631.703700324983  L 83.710936289209 497.219500082156  L 135.038369917528 346.982881760049  L 135.038369917528 221.330437345196  L 113.79943186443 0.0728721799107605  L 129.728635404254 0.0728721799107121  L 154.5073964662 273.230360038287  L 154.5073964662 340.609207043354  L 120.879077882129 525.445773827522  L 96.8830910918882 696.801514086288  L 0.353776801199069 631.703700324983  Z " fill-rule="nonzero" fill="#aaaaaa" stroke="none" fill-opacity="0.996078431372549" transform="matrix(1 0 0 1 698 -245 )" />
    <path d="M 0.353776801199069 631.703700324983  L 83.710936289209 497.219500082156  L 135.038369917528 346.982881760049  L 135.038369917528 221.330437345196  L 113.79943186443 0.0728721799107605  L 129.728635404254 0.0728721799107121  L 154.5073964662 273.230360038287  L 154.5073964662 340.609207043354  L 120.879077882129 525.445773827522  L 96.8830910918882 696.801514086288  L 0.353776801199069 631.703700324983  Z " stroke-width="60" stroke="#797979" fill="none" stroke-opacity="0.156862745098039" transform="matrix(1 0 0 1 698 -245 )" mask="url(#clip315)" />
  </g>
</svg>