<?xml version="1.0" encoding="utf-8"?>
<svg version="1.1" xmlns:xlink="http://www.w3.org/1999/xlink" width="452px" height="149px" xmlns="http://www.w3.org/2000/svg">
  <defs>
    <mask fill="white" id="clip714">
      <path d="M 0 149  L 45.7561340516555 69.3761412051125  L 173.059736945612 8.91763035098417  L 272.561403575372 0.604585108541056  L 370.599810401752 48.9713937918441  L 451.526524504299 149  L 0 149  Z " fill-rule="evenodd" />
    </mask>
  </defs>
  <g transform="matrix(1 0 0 1 -254 -1140 )">
    <path d="M 0 149  L 45.7561340516555 69.3761412051125  L 173.059736945612 8.91763035098417  L 272.561403575372 0.604585108541056  L 370.599810401752 48.9713937918441  L 451.526524504299 149  L 0 149  Z " fill-rule="nonzero" fill="#aaaaaa" stroke="none" fill-opacity="0.996078431372549" transform="matrix(1 0 0 1 254 1140 )" />
    <path d="M 0 149  L 45.7561340516555 69.3761412051125  L 173.059736945612 8.91763035098417  L 272.561403575372 0.604585108541056  L 370.599810401752 48.9713937918441  L 451.526524504299 149  L 0 149  Z " stroke-width="60" stroke="#797979" fill="none" stroke-opacity="0.156862745098039" transform="matrix(1 0 0 1 254 1140 )" mask="url(#clip714)" />
  </g>
</svg>