<?xml version="1.0" encoding="utf-8"?>
<svg version="1.1" xmlns:xlink="http://www.w3.org/1999/xlink" width="155px" height="698px" xmlns="http://www.w3.org/2000/svg">
  <defs>
    <pattern id="BGPattern" patternUnits="userSpaceOnUse" alignment="0 0" imageRepeat="None" />
    <mask fill="white" id="Clip310">
      <path d="M 0.3537768011990694 631.7037003249828  L 83.71093628920902 497.2195000821564  L 135.03836991752814 346.9828817600492  L 135.03836991752803 221.33043734519572  L 113.79943186443026 0.07287217991076053  L 129.7286354042535 0.0728721799107121  L 154.5073964662001 273.2303600382873  L 154.50739646619994 340.60920704335376  L 120.87907788212922 525.4457738275224  L 96.88309109188818 696.801514086288  L 0.3537768011990694 631.7037003249828  Z " fill-rule="evenodd" />
    </mask>
  </defs>
  <g transform="matrix(1 0 0 1 -698 245 )">
    <path d="M 0.3537768011990694 631.7037003249828  L 83.71093628920902 497.2195000821564  L 135.03836991752814 346.9828817600492  L 135.03836991752803 221.33043734519572  L 113.79943186443026 0.07287217991076053  L 129.7286354042535 0.0728721799107121  L 154.5073964662001 273.2303600382873  L 154.50739646619994 340.60920704335376  L 120.87907788212922 525.4457738275224  L 96.88309109188818 696.801514086288  L 0.3537768011990694 631.7037003249828  Z " fill-rule="nonzero" fill="rgba(170, 170, 170, 0.996078431372549)" stroke="none" transform="matrix(1 0 0 1 698 -245 )" class="fill" />
    <path d="M 0.3537768011990694 631.7037003249828  L 83.71093628920902 497.2195000821564  L 135.03836991752814 346.9828817600492  L 135.03836991752803 221.33043734519572  L 113.79943186443026 0.07287217991076053  L 129.7286354042535 0.0728721799107121  L 154.5073964662001 273.2303600382873  L 154.50739646619994 340.60920704335376  L 120.87907788212922 525.4457738275224  L 96.88309109188818 696.801514086288  L 0.3537768011990694 631.7037003249828  Z " stroke-width="60" stroke-dasharray="0" stroke="rgba(121, 121, 121, 0.1568627450980392)" fill="none" transform="matrix(1 0 0 1 698 -245 )" class="stroke" mask="url(#Clip310)" />
  </g>
</svg>