<?xml version="1.0" encoding="utf-8"?>
<svg version="1.1" xmlns:xlink="http://www.w3.org/1999/xlink" width="419px" height="1503px" xmlns="http://www.w3.org/2000/svg">
  <defs>
    <mask fill="white" id="clip715">
      <path d="M 0 1503  L 0 1406.39244186047  L 118.138525780683 1351  L 163.838166803648 1351  L 220.413251927518 1181.75581395349  L 247.470901334586 975.069767441861  L 214.673750538139 818.093023255814  L 99.8837227505772 533.790697674419  L 43.3086376267073 411.697674418605  L 19.5307032992836 289.604651162791  L 12.1513443700835 204.139534883721  L 24.4502759187508 121.290697674418  L 68.7264294939533 0  L 163.838166803648 0  L 126.941372157646 99.4883720930233  L 111.362725529334 215.476744186047  L 192.535673750538 423.906976744186  L 306.505772768189 598.325581395349  L 391.77836483895 799.779069767442  L 418.836014246018 995.127906976744  L 410.78431372549 1159.95348837209  L 370.46021682126 1313.44186046512  L 410.78431372549 1503  L 0 1503  Z " fill-rule="evenodd" />
    </mask>
  </defs>
  <g transform="matrix(1 0 0 1 -317 214 )">
    <path d="M 0 1503  L 0 1406.39244186047  L 118.138525780683 1351  L 163.838166803648 1351  L 220.413251927518 1181.75581395349  L 247.470901334586 975.069767441861  L 214.673750538139 818.093023255814  L 99.8837227505772 533.790697674419  L 43.3086376267073 411.697674418605  L 19.5307032992836 289.604651162791  L 12.1513443700835 204.139534883721  L 24.4502759187508 121.290697674418  L 68.7264294939533 0  L 163.838166803648 0  L 126.941372157646 99.4883720930233  L 111.362725529334 215.476744186047  L 192.535673750538 423.906976744186  L 306.505772768189 598.325581395349  L 391.77836483895 799.779069767442  L 418.836014246018 995.127906976744  L 410.78431372549 1159.95348837209  L 370.46021682126 1313.44186046512  L 410.78431372549 1503  L 0 1503  Z " fill-rule="nonzero" fill="#aaaaaa" stroke="none" fill-opacity="0.996078431372549" transform="matrix(1 0 0 1 317 -214 )" />
    <path d="M 0 1503  L 0 1406.39244186047  L 118.138525780683 1351  L 163.838166803648 1351  L 220.413251927518 1181.75581395349  L 247.470901334586 975.069767441861  L 214.673750538139 818.093023255814  L 99.8837227505772 533.790697674419  L 43.3086376267073 411.697674418605  L 19.5307032992836 289.604651162791  L 12.1513443700835 204.139534883721  L 24.4502759187508 121.290697674418  L 68.7264294939533 0  L 163.838166803648 0  L 126.941372157646 99.4883720930233  L 111.362725529334 215.476744186047  L 192.535673750538 423.906976744186  L 306.505772768189 598.325581395349  L 391.77836483895 799.779069767442  L 418.836014246018 995.127906976744  L 410.78431372549 1159.95348837209  L 370.46021682126 1313.44186046512  L 410.78431372549 1503  L 0 1503  Z " stroke-width="60" stroke="#797979" fill="none" stroke-opacity="0.156862745098039" transform="matrix(1 0 0 1 317 -214 )" mask="url(#clip715)" />
  </g>
</svg>