<?xml version="1.0" encoding="utf-8"?>
<svg version="1.1" xmlns:xlink="http://www.w3.org/1999/xlink" width="530px" height="774px" xmlns="http://www.w3.org/2000/svg">
  <defs>
    <pattern id="BGPattern" patternUnits="userSpaceOnUse" alignment="0 0" imageRepeat="None" />
    <mask fill="white" id="Clip309">
      <path d="M 149.1761029262551 585.6763671800362  L 70.4894360845112 500.8742712977024  L 16.498447878188987 389.96700631950216  L 1.2083903328771721 229.89029626449118  L 70.4894360845112 0.5815800772865024  L 92.78653556006462 0.5815800772865024  L 58.77859285850549 255.3616077989518  L 126.79447826162377 431.6757213540391  L 295.9150581828904 585.6763671800362  L 529.9139575469785 682.5483815492796  L 517.0075895937335 774  L 282.1280543849609 690.4593396365061  L 149.1761029262551 585.6763671800362  Z " fill-rule="evenodd" />
    </mask>
  </defs>
  <g transform="matrix(1 0 0 1 -31 -133 )">
    <path d="M 149.1761029262551 585.6763671800362  L 70.4894360845112 500.8742712977024  L 16.498447878188987 389.96700631950216  L 1.2083903328771721 229.89029626449118  L 70.4894360845112 0.5815800772865024  L 92.78653556006462 0.5815800772865024  L 58.77859285850549 255.3616077989518  L 126.79447826162377 431.6757213540391  L 295.9150581828904 585.6763671800362  L 529.9139575469785 682.5483815492796  L 517.0075895937335 774  L 282.1280543849609 690.4593396365061  L 149.1761029262551 585.6763671800362  Z " fill-rule="nonzero" fill="rgba(170, 170, 170, 0.996078431372549)" stroke="none" transform="matrix(1 0 0 1 31 133 )" class="fill" />
    <path d="M 149.1761029262551 585.6763671800362  L 70.4894360845112 500.8742712977024  L 16.498447878188987 389.96700631950216  L 1.2083903328771721 229.89029626449118  L 70.4894360845112 0.5815800772865024  L 92.78653556006462 0.5815800772865024  L 58.77859285850549 255.3616077989518  L 126.79447826162377 431.6757213540391  L 295.9150581828904 585.6763671800362  L 529.9139575469785 682.5483815492796  L 517.0075895937335 774  L 282.1280543849609 690.4593396365061  L 149.1761029262551 585.6763671800362  Z " stroke-width="60" stroke-dasharray="0" stroke="rgba(121, 121, 121, 0.1568627450980392)" fill="none" transform="matrix(1 0 0 1 31 133 )" class="stroke" mask="url(#Clip309)" />
  </g>
</svg>