<?xml version="1.0" encoding="utf-8"?>
<svg version="1.1" xmlns:xlink="http://www.w3.org/1999/xlink" width="419px" height="1503px" xmlns="http://www.w3.org/2000/svg">
  <defs>
    <pattern id="BGPattern" patternUnits="userSpaceOnUse" alignment="0 0" imageRepeat="None" />
    <mask fill="white" id="Clip308">
      <path d="M 0 1503  L 0 1406.3924418604652  L 118.13852578068271 1351  L 163.83816680364762 1351  L 220.41325192751754 1181.7558139534885  L 247.4709013345857 975.0697674418607  L 214.6737505381393 818.093023255814  L 99.88372275057722 533.7906976744188  L 43.30863762670727 411.6976744186046  L 19.53070329928361 289.60465116279056  L 12.151344370083477 204.13953488372098  L 24.450275918750776 121.2906976744185  L 68.72642949395326 0  L 163.83816680364762 0  L 126.94137215764555 99.48837209302327  L 111.36272552933359 215.47674418604663  L 192.53567375053797 423.906976744186  L 306.5057727681891 598.3255813953488  L 391.77836483894976 799.7790697674418  L 418.8360142460179 995.1279069767444  L 410.78431372549016 1159.953488372093  L 370.4602168212595 1313.4418604651162  L 410.78431372549016 1503  L 0 1503  Z " fill-rule="evenodd" />
    </mask>
  </defs>
  <g transform="matrix(1 0 0 1 -317 214 )">
    <path d="M 0 1503  L 0 1406.3924418604652  L 118.13852578068271 1351  L 163.83816680364762 1351  L 220.41325192751754 1181.7558139534885  L 247.4709013345857 975.0697674418607  L 214.6737505381393 818.093023255814  L 99.88372275057722 533.7906976744188  L 43.30863762670727 411.6976744186046  L 19.53070329928361 289.60465116279056  L 12.151344370083477 204.13953488372098  L 24.450275918750776 121.2906976744185  L 68.72642949395326 0  L 163.83816680364762 0  L 126.94137215764555 99.48837209302327  L 111.36272552933359 215.47674418604663  L 192.53567375053797 423.906976744186  L 306.5057727681891 598.3255813953488  L 391.77836483894976 799.7790697674418  L 418.8360142460179 995.1279069767444  L 410.78431372549016 1159.953488372093  L 370.4602168212595 1313.4418604651162  L 410.78431372549016 1503  L 0 1503  Z " fill-rule="nonzero" fill="rgba(170, 170, 170, 0.996078431372549)" stroke="none" transform="matrix(1 0 0 1 317 -214 )" class="fill" />
    <path d="M 0 1503  L 0 1406.3924418604652  L 118.13852578068271 1351  L 163.83816680364762 1351  L 220.41325192751754 1181.7558139534885  L 247.4709013345857 975.0697674418607  L 214.6737505381393 818.093023255814  L 99.88372275057722 533.7906976744188  L 43.30863762670727 411.6976744186046  L 19.53070329928361 289.60465116279056  L 12.151344370083477 204.13953488372098  L 24.450275918750776 121.2906976744185  L 68.72642949395326 0  L 163.83816680364762 0  L 126.94137215764555 99.48837209302327  L 111.36272552933359 215.47674418604663  L 192.53567375053797 423.906976744186  L 306.5057727681891 598.3255813953488  L 391.77836483894976 799.7790697674418  L 418.8360142460179 995.1279069767444  L 410.78431372549016 1159.953488372093  L 370.4602168212595 1313.4418604651162  L 410.78431372549016 1503  L 0 1503  Z " stroke-width="60" stroke-dasharray="0" stroke="rgba(121, 121, 121, 0.1568627450980392)" fill="none" transform="matrix(1 0 0 1 317 -214 )" class="stroke" mask="url(#Clip308)" />
  </g>
</svg>