<?xml version="1.0" encoding="utf-8"?>
<svg version="1.1" xmlns:xlink="http://www.w3.org/1999/xlink" width="138px" height="138px" xmlns="http://www.w3.org/2000/svg">
  <defs>
    <pattern id="BGPattern" patternUnits="userSpaceOnUse" alignment="0 0" imageRepeat="None" />
    <mask fill="white" id="Clip509">
      <path d="M 0 69  C 0 30.359999999999996  30.359999999999996 0  69 0  C 107.64 0  138 30.359999999999996  138 69  C 138 107.64  107.64 138  69 138  C 30.359999999999996 138  0 107.64  0 69  Z " fill-rule="evenodd" />
    </mask>
  </defs>
  <g>
    <path d="M 0 69  C 0 30.359999999999996  30.359999999999996 0  69 0  C 107.64 0  138 30.359999999999996  138 69  C 138 107.64  107.64 138  69 138  C 30.359999999999996 138  0 107.64  0 69  Z " fill-rule="nonzero" fill="rgba(127, 127, 127, 1)" stroke="none" class="fill" />
    <path d="M 0 69  C 0 30.359999999999996  30.359999999999996 0  69 0  C 107.64 0  138 30.359999999999996  138 69  C 138 107.64  107.64 138  69 138  C 30.359999999999996 138  0 107.64  0 69  Z " stroke-width="0" stroke-dasharray="0" stroke="rgba(121, 121, 121, 1)" fill="none" class="stroke" mask="url(#Clip509)" />
  </g>
</svg>