<?xml version="1.0" encoding="utf-8"?>
<svg version="1.1" xmlns:xlink="http://www.w3.org/1999/xlink" width="119px" height="210px" xmlns="http://www.w3.org/2000/svg">
  <defs>
    <pattern id="BGPattern" patternUnits="userSpaceOnUse" alignment="0 0" imageRepeat="None" />
    <mask fill="white" id="Clip99">
      <path d="M 0.5634517766497993 96.34517766497459  L 12.74619289340103 64.36548223350258  L 57.923857868020264 0  L 118.3299492385787 91.7766497461929  L 111.73096446700504 163.35025380710658  L 62.49238578680207 209.03553299492387  L 23.406091370558443 163.35025380710658  L 0.5634517766497993 96.34517766497459  Z " fill-rule="evenodd" />
    </mask>
  </defs>
  <g transform="matrix(1 0 0 1 -737 -560 )">
    <path d="M 0.5634517766497993 96.34517766497459  L 12.74619289340103 64.36548223350258  L 57.923857868020264 0  L 118.3299492385787 91.7766497461929  L 111.73096446700504 163.35025380710658  L 62.49238578680207 209.03553299492387  L 23.406091370558443 163.35025380710658  L 0.5634517766497993 96.34517766497459  Z " fill-rule="nonzero" fill="rgba(128, 128, 255, 0.16862745098039217)" stroke="none" transform="matrix(1 0 0 1 737 560 )" class="fill" />
    <path d="M 0.5634517766497993 96.34517766497459  L 12.74619289340103 64.36548223350258  L 57.923857868020264 0  L 118.3299492385787 91.7766497461929  L 111.73096446700504 163.35025380710658  L 62.49238578680207 209.03553299492387  L 23.406091370558443 163.35025380710658  L 0.5634517766497993 96.34517766497459  Z " stroke-width="10" stroke-dasharray="0" stroke="rgba(128, 128, 255, 1)" fill="none" transform="matrix(1 0 0 1 737 560 )" class="stroke" mask="url(#Clip99)" />
  </g>
</svg>