<?xml version="1.0" encoding="utf-8"?>
<svg version="1.1" xmlns:xlink="http://www.w3.org/1999/xlink" width="130px" height="133px" xmlns="http://www.w3.org/2000/svg">
  <defs>
    <pattern id="BGPattern" patternUnits="userSpaceOnUse" alignment="0 0" imageRepeat="None" />
    <mask fill="white" id="Clip429">
      <path d="M 0 60  C 0 26.4  26.4 0  60 0  C 93.60000000000001 0  120 26.4  120 60  C 120 93.60000000000001  93.60000000000001 120  60 120  C 26.4 120  0 93.60000000000001  0 60  Z " fill-rule="evenodd" />
    </mask>
  </defs>
  <g transform="matrix(1 0 0 1 -989 -94 )">
    <path d="M 0 60  C 0 26.4  26.4 0  60 0  C 93.60000000000001 0  120 26.4  120 60  C 120 93.60000000000001  93.60000000000001 120  60 120  C 26.4 120  0 93.60000000000001  0 60  Z " fill-rule="nonzero" fill="rgba(242, 242, 242, 1)" stroke="none" transform="matrix(1 0 0 1 989 94 )" class="fill" />
    <path d="M 0 60  C 0 26.4  26.4 0  60 0  C 93.60000000000001 0  120 26.4  120 60  C 120 93.60000000000001  93.60000000000001 120  60 120  C 26.4 120  0 93.60000000000001  0 60  Z " stroke-width="2" stroke-dasharray="0" stroke="rgba(121, 121, 121, 1)" fill="none" transform="matrix(1 0 0 1 989 94 )" class="stroke" mask="url(#Clip429)" />
  </g>
  <style>svg { filter: drop-shadow(5px 8px 2.5px rgba(0, 0, 0, 0.34901960784313724)); }</style>
</svg>