<?xml version="1.0" encoding="utf-8"?>
<svg version="1.1" xmlns:xlink="http://www.w3.org/1999/xlink" width="43px" height="43px" xmlns="http://www.w3.org/2000/svg">
  <g transform="matrix(1 0 0 1 -801 -1091 )">
    <path d="M 822.5 1091  C 834.54 1091  844 1100.46  844 1112.5  C 844 1124.54  834.54 1134  822.5 1134  C 810.46 1134  801 1124.54  801 1112.5  C 801 1100.46  810.46 1091  822.5 1091  Z " fill-rule="nonzero" fill="#ffffff" stroke="none" />
    <path d="M 822.5 1091.5  C 834.26 1091.5  843.5 1100.74  843.5 1112.5  C 843.5 1124.26  834.26 1133.5  822.5 1133.5  C 810.74 1133.5  801.5 1124.26  801.5 1112.5  C 801.5 1100.74  810.74 1091.5  822.5 1091.5  Z " stroke-width="1" stroke="#797979" fill="none" />
  </g>
</svg>