<?xml version="1.0" encoding="utf-8"?>
<svg version="1.1" xmlns:xlink="http://www.w3.org/1999/xlink" width="40px" height="40px" xmlns="http://www.w3.org/2000/svg">
  <g transform="matrix(1 0 0 1 -542 -1172 )">
    <path d="M 562 1172  C 573.2 1172  582 1180.8  582 1192  C 582 1203.2  573.2 1212  562 1212  C 550.8 1212  542 1203.2  542 1192  C 542 1180.8  550.8 1172  562 1172  Z " fill-rule="nonzero" fill="#ffffff" stroke="none" />
    <path d="M 562 1172.5  C 572.92 1172.5  581.5 1181.08  581.5 1192  C 581.5 1202.92  572.92 1211.5  562 1211.5  C 551.08 1211.5  542.5 1202.92  542.5 1192  C 542.5 1181.08  551.08 1172.5  562 1172.5  Z " stroke-width="1" stroke="#797979" fill="none" />
  </g>
</svg>