<?xml version="1.0" encoding="utf-8"?>
<svg version="1.1" xmlns:xlink="http://www.w3.org/1999/xlink" width="53px" height="36px" xmlns="http://www.w3.org/2000/svg">
  <defs>
    <linearGradient gradientUnits="userSpaceOnUse" x1="26.5" y1="11.74153846153677" x2="26.5" y2="36.77538461538138" id="LinearGradient203">
      <stop id="Stop204" stop-color="#f2f2f2" offset="0" />
      <stop id="Stop205" stop-color="#d7d7d7" stop-opacity="0.11764705882352941" offset="0.98" />
      <stop id="Stop206" stop-color="#000000" stop-opacity="0.00784313725490196" offset="1" />
    </linearGradient>
    <pattern id="BGPattern" patternUnits="userSpaceOnUse" alignment="0 0" imageRepeat="None" />
    <mask fill="white" id="Clip207">
      <path d="M 0 27  L 26.5 0  L 53 27  C 53 27  41.33999999999998 35.213903743314354  26.5 35.213903743314354  C 11.659999999999975 35.213903743314354  0 27  0 27  Z " fill-rule="evenodd" />
    </mask>
  </defs>
  <g transform="matrix(1 0 0 1 -94 -88 )">
    <path d="M 0 27  L 26.5 0  L 53 27  C 53 27  41.33999999999998 35.213903743314354  26.5 35.213903743314354  C 11.659999999999975 35.213903743314354  0 27  0 27  Z " fill-rule="nonzero" fill="url(#LinearGradient203)" stroke="none" transform="matrix(1 0 0 1 94 88 )" class="fill" />
    <path d="M 0 27  L 26.5 0  L 53 27  C 53 27  41.33999999999998 35.213903743314354  26.5 35.213903743314354  C 11.659999999999975 35.213903743314354  0 27  0 27  Z " stroke-width="0" stroke-dasharray="0" stroke="rgba(121, 121, 121, 1)" fill="none" transform="matrix(1 0 0 1 94 88 )" class="stroke" mask="url(#Clip207)" />
  </g>
</svg>