<?xml version="1.0" encoding="utf-8"?>
<svg version="1.1" xmlns:xlink="http://www.w3.org/1999/xlink" width="170px" height="170px" xmlns="http://www.w3.org/2000/svg">
  <g transform="matrix(1 0 0 1 -1687 -878 )">
    <path d="M 1772 880.5  C 1818.2 880.5  1854.5 916.8  1854.5 963  C 1854.5 1009.2  1818.2 1045.5  1772 1045.5  C 1725.8 1045.5  1689.5 1009.2  1689.5 963  C 1689.5 916.8  1725.8 880.5  1772 880.5  Z " fill-rule="nonzero" fill="#ffffff" stroke="none" fill-opacity="0" />
    <path d="M 1772 879.5  C 1818.76 879.5  1855.5 916.24  1855.5 963  C 1855.5 1009.76  1818.76 1046.5  1772 1046.5  C 1725.24 1046.5  1688.5 1009.76  1688.5 963  C 1688.5 916.24  1725.24 879.5  1772 879.5  Z " stroke-width="3" stroke="#ffffff" fill="none" stroke-opacity="0.176470588235294" />
  </g>
</svg>