<?xml version="1.0" encoding="utf-8"?>
<svg version="1.1" xmlns:xlink="http://www.w3.org/1999/xlink" width="120px" height="120px" xmlns="http://www.w3.org/2000/svg">
  <defs>
    <pattern id="BGPattern" patternUnits="userSpaceOnUse" alignment="0 0" imageRepeat="None" />
    <radialGradient cx="18.35570469798668" cy="31.48322147651072" r="114.77295000434687" gradientTransform="matrix(0.8069623518513882 0.590602880702822 -0.5906028807028233 0.80696235185139 22.137423362841997 -4.763485041993823 )" gradientUnits="userSpaceOnUse" id="RadialGradient218">
      <stop id="Stop219" stop-color="#ffffff" offset="0" />
      <stop id="Stop220" stop-color="#ffffff" stop-opacity="0" offset="1" />
    </radialGradient>
    <mask fill="white" id="Clip221">
      <path d="M 0 60  C 0 26.4  26.4 0  60 0  C 93.60000000000001 0  120 26.4  120 60  C 120 93.60000000000001  93.60000000000001 120  60 120  C 26.4 120  0 93.60000000000001  0 60  Z " fill-rule="evenodd" />
    </mask>
  </defs>
  <g transform="matrix(1 0 0 1 -1785 -941 )">
    <path d="M 0 60  C 0 26.4  26.4 0  60 0  C 93.60000000000001 0  120 26.4  120 60  C 120 93.60000000000001  93.60000000000001 120  60 120  C 26.4 120  0 93.60000000000001  0 60  Z " fill-rule="nonzero" fill="rgba(215, 215, 215, 1)" stroke="none" transform="matrix(1 0 0 1 1785 941 )" class="fill" />
    <path d="M 0 60  C 0 26.4  26.4 0  60 0  C 93.60000000000001 0  120 26.4  120 60  C 120 93.60000000000001  93.60000000000001 120  60 120  C 26.4 120  0 93.60000000000001  0 60  Z " stroke-width="6" stroke-dasharray="0" stroke="url(#RadialGradient218)" fill="none" transform="matrix(1 0 0 1 1785 941 )" class="stroke" mask="url(#Clip221)" />
  </g>
</svg>