<?xml version="1.0" encoding="utf-8"?>
<svg version="1.1" xmlns:xlink="http://www.w3.org/1999/xlink" width="1441px" height="2282px" xmlns="http://www.w3.org/2000/svg">
  <defs>
    <mask fill="white" id="clip2671">
      <path d="M 388 1295.70967741935  L 270.193548387097 1050.54838709677  L 118.58064516129 1118.29032258065  L 47.4285714285716 1094.14285714286  L 0.30107526881693 786.032258064516  L 146 276.354838709677  L 415.354838709678 266.677419354839  L 539.548387096774 119.903225806452  L 608.903225806452 123.795010108452  L 626.645161290322 0.54838709677415  L 970.193548387097 44.0967741935484  L 1155.67741935484 229.58064516129  L 1318.58064516129 305.387096774193  L 1431.48387096774 498.935483870968  L 1441 2064.5  L 821 2282  L 388 1771.28571428571  L 388 1295.70967741935  Z " fill-rule="evenodd" />
    </mask>
  </defs>
  <g transform="matrix(1 0 0 1 -2704 -543 )">
    <path d="M 388 1295.70967741935  L 270.193548387097 1050.54838709677  L 118.58064516129 1118.29032258065  L 47.4285714285716 1094.14285714286  L 0.30107526881693 786.032258064516  L 146 276.354838709677  L 415.354838709678 266.677419354839  L 539.548387096774 119.903225806452  L 608.903225806452 123.795010108452  L 626.645161290322 0.54838709677415  L 970.193548387097 44.0967741935484  L 1155.67741935484 229.58064516129  L 1318.58064516129 305.387096774193  L 1431.48387096774 498.935483870968  L 1441 2064.5  L 821 2282  L 388 1771.28571428571  L 388 1295.70967741935  Z " fill-rule="nonzero" fill="#0000ff" stroke="none" transform="matrix(1 0 0 1 2704 543 )" />
    <path d="M 388 1295.70967741935  L 270.193548387097 1050.54838709677  L 118.58064516129 1118.29032258065  L 47.4285714285716 1094.14285714286  L 0.30107526881693 786.032258064516  L 146 276.354838709677  L 415.354838709678 266.677419354839  L 539.548387096774 119.903225806452  L 608.903225806452 123.795010108452  L 626.645161290322 0.54838709677415  L 970.193548387097 44.0967741935484  L 1155.67741935484 229.58064516129  L 1318.58064516129 305.387096774193  L 1431.48387096774 498.935483870968  L 1441 2064.5  L 821 2282  L 388 1771.28571428571  L 388 1295.70967741935  Z " stroke-width="2" stroke="#797979" fill="none" transform="matrix(1 0 0 1 2704 543 )" mask="url(#clip2671)" />
  </g>
</svg>