<?xml version="1.0" encoding="utf-8"?>
<svg version="1.1" xmlns:xlink="http://www.w3.org/1999/xlink" width="1180px" height="1747px" xmlns="http://www.w3.org/2000/svg">
  <defs>
    <mask fill="white" id="clip2670">
      <path d="M 0 1412.71428571429  L 14 158  L 139.294117647059 138.764705882353  L 320.445609948226 201.080819233954  L 554 158  L 671.647058823529 0.529411764705856  L 995.176470588235 0  L 974.93023255814 158  L 1077.25581395349 278.162790697674  L 1135.39534883721 236.302325581395  L 1179.58139534884 310.720930232558  L 1005.78571428571 398.428571428571  L 984.357142857143 623.428571428571  L 923.642857142857 764.5  L 868.285714285714 1100.21428571429  L 638 1452  L 638 1575.21428571429  L 795.071428571428 1666.28571428571  L 416.5 1746.64285714286  L 193.285714285714 1648.42857142857  L 0 1412.71428571429  Z " fill-rule="evenodd" />
    </mask>
  </defs>
  <g transform="matrix(1 0 0 1 -46 -573 )">
    <path d="M 0 1412.71428571429  L 14 158  L 139.294117647059 138.764705882353  L 320.445609948226 201.080819233954  L 554 158  L 671.647058823529 0.529411764705856  L 995.176470588235 0  L 974.93023255814 158  L 1077.25581395349 278.162790697674  L 1135.39534883721 236.302325581395  L 1179.58139534884 310.720930232558  L 1005.78571428571 398.428571428571  L 984.357142857143 623.428571428571  L 923.642857142857 764.5  L 868.285714285714 1100.21428571429  L 638 1452  L 638 1575.21428571429  L 795.071428571428 1666.28571428571  L 416.5 1746.64285714286  L 193.285714285714 1648.42857142857  L 0 1412.71428571429  Z " fill-rule="nonzero" fill="#b8741a" stroke="none" transform="matrix(1 0 0 1 46 573 )" />
    <path d="M 0 1412.71428571429  L 14 158  L 139.294117647059 138.764705882353  L 320.445609948226 201.080819233954  L 554 158  L 671.647058823529 0.529411764705856  L 995.176470588235 0  L 974.93023255814 158  L 1077.25581395349 278.162790697674  L 1135.39534883721 236.302325581395  L 1179.58139534884 310.720930232558  L 1005.78571428571 398.428571428571  L 984.357142857143 623.428571428571  L 923.642857142857 764.5  L 868.285714285714 1100.21428571429  L 638 1452  L 638 1575.21428571429  L 795.071428571428 1666.28571428571  L 416.5 1746.64285714286  L 193.285714285714 1648.42857142857  L 0 1412.71428571429  Z " stroke-width="2" stroke="#f59a23" fill="none" transform="matrix(1 0 0 1 46 573 )" mask="url(#clip2670)" />
  </g>
</svg>