<?xml version="1.0" encoding="utf-8"?>
<svg version="1.1" xmlns:xlink="http://www.w3.org/1999/xlink" width="2614px" height="991px" xmlns="http://www.w3.org/2000/svg">
  <defs>
    <mask fill="white" id="clip2669">
      <path d="M 508.285714285714 745.142857142857  L 467.14606741573 675.142857142857  L 404.89552238806 721.932584269663  L 303.101123595506 592.719101123595  L 324.449438202247 438  L 0.853932584269614 438  L 0.853932584269614 397.213483146068  L 251 321.932584269663  L 251.415730337079 287.101123595506  L 405 226.426966292135  L 405 179.940298507463  L 601.910447761194 135.164179104478  L 2014 0  L 2216.85714285714 0  L 2328.28571428571 168  L 2296.85714285714 343.714285714286  L 2614 428  L 2409.71428571429 675.142857142857  L 2134 688  L 2051.14285714286 990.857142857143  L 1505.42857142857 966.571428571429  L 1351.14285714286 906.571428571428  L 1306.85714285714 966.571428571429  L 1229.71428571429 919  L 1072.57142857143 919  L 849.714285714286 906.571428571428  L 629.714285714286 858  L 508.285714285714 745.142857142857  Z " fill-rule="evenodd" />
    </mask>
  </defs>
  <g transform="matrix(1 0 0 1 -716 -132 )">
    <path d="M 508.285714285714 745.142857142857  L 467.14606741573 675.142857142857  L 404.89552238806 721.932584269663  L 303.101123595506 592.719101123595  L 324.449438202247 438  L 0.853932584269614 438  L 0.853932584269614 397.213483146068  L 251 321.932584269663  L 251.415730337079 287.101123595506  L 405 226.426966292135  L 405 179.940298507463  L 601.910447761194 135.164179104478  L 2014 0  L 2216.85714285714 0  L 2328.28571428571 168  L 2296.85714285714 343.714285714286  L 2614 428  L 2409.71428571429 675.142857142857  L 2134 688  L 2051.14285714286 990.857142857143  L 1505.42857142857 966.571428571429  L 1351.14285714286 906.571428571428  L 1306.85714285714 966.571428571429  L 1229.71428571429 919  L 1072.57142857143 919  L 849.714285714286 906.571428571428  L 629.714285714286 858  L 508.285714285714 745.142857142857  Z " fill-rule="nonzero" fill="#027db4" stroke="none" transform="matrix(1 0 0 1 716 132 )" />
    <path d="M 508.285714285714 745.142857142857  L 467.14606741573 675.142857142857  L 404.89552238806 721.932584269663  L 303.101123595506 592.719101123595  L 324.449438202247 438  L 0.853932584269614 438  L 0.853932584269614 397.213483146068  L 251 321.932584269663  L 251.415730337079 287.101123595506  L 405 226.426966292135  L 405 179.940298507463  L 601.910447761194 135.164179104478  L 2014 0  L 2216.85714285714 0  L 2328.28571428571 168  L 2296.85714285714 343.714285714286  L 2614 428  L 2409.71428571429 675.142857142857  L 2134 688  L 2051.14285714286 990.857142857143  L 1505.42857142857 966.571428571429  L 1351.14285714286 906.571428571428  L 1306.85714285714 966.571428571429  L 1229.71428571429 919  L 1072.57142857143 919  L 849.714285714286 906.571428571428  L 629.714285714286 858  L 508.285714285714 745.142857142857  Z " stroke-width="2" stroke="#797979" fill="none" transform="matrix(1 0 0 1 716 132 )" mask="url(#clip2669)" />
  </g>
</svg>