<?xml version="1.0" encoding="utf-8"?>
<svg version="1.1" xmlns:xlink="http://www.w3.org/1999/xlink" width="1413px" height="1292px" xmlns="http://www.w3.org/2000/svg">
  <defs>
    <mask fill="white" id="clip2674">
      <path d="M 0.785714285714278 1291.07142857143  L 0.785714285714278 0  L 179.357142857143 217.857142857143  L 407.928571428571 323.214285714285  L 790.666666666667 235  L 1059 585  L 1412.15789473684 760.240963855422  L 1299 1185  L 910.44578313253 1138.55421686747  L 582.734939759036 1251.80722891566  L 329.722891566265 1202.40963855422  L 0.785714285714278 1291.07142857143  Z " fill-rule="evenodd" />
    </mask>
  </defs>
  <g transform="matrix(1 0 0 1 -51 -2000 )">
    <path d="M 0.785714285714278 1291.07142857143  L 0.785714285714278 0  L 179.357142857143 217.857142857143  L 407.928571428571 323.214285714285  L 790.666666666667 235  L 1059 585  L 1412.15789473684 760.240963855422  L 1299 1185  L 910.44578313253 1138.55421686747  L 582.734939759036 1251.80722891566  L 329.722891566265 1202.40963855422  L 0.785714285714278 1291.07142857143  Z " fill-rule="nonzero" fill="#ffffff" stroke="none" transform="matrix(1 0 0 1 51 2000 )" />
    <path d="M 0.785714285714278 1291.07142857143  L 0.785714285714278 0  L 179.357142857143 217.857142857143  L 407.928571428571 323.214285714285  L 790.666666666667 235  L 1059 585  L 1412.15789473684 760.240963855422  L 1299 1185  L 910.44578313253 1138.55421686747  L 582.734939759036 1251.80722891566  L 329.722891566265 1202.40963855422  L 0.785714285714278 1291.07142857143  Z " stroke-width="2" stroke="#797979" fill="none" transform="matrix(1 0 0 1 51 2000 )" mask="url(#clip2674)" />
  </g>
</svg>