<?xml version="1.0" encoding="utf-8"?>
<svg version="1.1" xmlns:xlink="http://www.w3.org/1999/xlink" width="815px" height="486px" xmlns="http://www.w3.org/2000/svg">
  <defs>
    <mask fill="white" id="clip2675">
      <path d="M 66.5806451612902 373.096774193548  L 13.3548387096773 331.161290322581  L 0.45161290322585 231.161290322581  L 39 43  L 327.870967741936 0.51612903225805  L 564.967741935484 13.4193548387098  L 814.967741935484 123.096774193548  L 802.064516129032 442.451612903226  L 734.322580645161 486  L 526.258064516129 473.096774193548  L 419.806451612903 463.41935483871  L 431.096774193548 427.935483870968  L 373.032258064516 403.741935483871  L 327.870967741936 455  L 224.645161290323 455  L 66.5806451612902 373.096774193548  Z " fill-rule="evenodd" />
    </mask>
  </defs>
  <g transform="matrix(1 0 0 1 -1506 -1714 )">
    <path d="M 66.5806451612902 373.096774193548  L 13.3548387096773 331.161290322581  L 0.45161290322585 231.161290322581  L 39 43  L 327.870967741936 0.51612903225805  L 564.967741935484 13.4193548387098  L 814.967741935484 123.096774193548  L 802.064516129032 442.451612903226  L 734.322580645161 486  L 526.258064516129 473.096774193548  L 419.806451612903 463.41935483871  L 431.096774193548 427.935483870968  L 373.032258064516 403.741935483871  L 327.870967741936 455  L 224.645161290323 455  L 66.5806451612902 373.096774193548  Z " fill-rule="nonzero" fill="#ffffff" stroke="none" transform="matrix(1 0 0 1 1506 1714 )" />
    <path d="M 66.5806451612902 373.096774193548  L 13.3548387096773 331.161290322581  L 0.45161290322585 231.161290322581  L 39 43  L 327.870967741936 0.51612903225805  L 564.967741935484 13.4193548387098  L 814.967741935484 123.096774193548  L 802.064516129032 442.451612903226  L 734.322580645161 486  L 526.258064516129 473.096774193548  L 419.806451612903 463.41935483871  L 431.096774193548 427.935483870968  L 373.032258064516 403.741935483871  L 327.870967741936 455  L 224.645161290323 455  L 66.5806451612902 373.096774193548  Z " stroke-width="2" stroke="#797979" fill="none" transform="matrix(1 0 0 1 1506 1714 )" mask="url(#clip2675)" />
  </g>
</svg>