<?xml version="1.0" encoding="utf-8"?>
<svg version="1.1" xmlns:xlink="http://www.w3.org/1999/xlink" width="1695px" height="1594px" xmlns="http://www.w3.org/2000/svg">
  <defs>
    <mask fill="white" id="clip2673">
      <path d="M 0.425531914893781 1106.68085106383  L 113.191489361702 568.382978723404  L 203.181818181818 350.636363636364  L 446.363636363637 105.181818181818  L 514.545454545455 164.272727272727  L 651 0.63636363636374  L 651 484.857142857143  L 1089.26829268293 983.951219512195  L 1694.28571428571 779.142857142857  L 1694.28571428571 1296.28571428571  L 1325.85365853659 1576.63414634146  L 764.878048780487 1593.70731707317  L 338.048780487805 1576.63414634146  L 372.765957446808 1440.72340425532  L 0.425531914893781 1106.68085106383  Z " fill-rule="evenodd" />
    </mask>
  </defs>
  <g transform="matrix(1 0 0 1 -2440 -1838 )">
    <path d="M 0.425531914893781 1106.68085106383  L 113.191489361702 568.382978723404  L 203.181818181818 350.636363636364  L 446.363636363637 105.181818181818  L 514.545454545455 164.272727272727  L 651 0.63636363636374  L 651 484.857142857143  L 1089.26829268293 983.951219512195  L 1694.28571428571 779.142857142857  L 1694.28571428571 1296.28571428571  L 1325.85365853659 1576.63414634146  L 764.878048780487 1593.70731707317  L 338.048780487805 1576.63414634146  L 372.765957446808 1440.72340425532  L 0.425531914893781 1106.68085106383  Z " fill-rule="nonzero" fill="#95f204" stroke="none" transform="matrix(1 0 0 1 2440 1838 )" />
    <path d="M 0.425531914893781 1106.68085106383  L 113.191489361702 568.382978723404  L 203.181818181818 350.636363636364  L 446.363636363637 105.181818181818  L 514.545454545455 164.272727272727  L 651 0.63636363636374  L 651 484.857142857143  L 1089.26829268293 983.951219512195  L 1694.28571428571 779.142857142857  L 1694.28571428571 1296.28571428571  L 1325.85365853659 1576.63414634146  L 764.878048780487 1593.70731707317  L 338.048780487805 1576.63414634146  L 372.765957446808 1440.72340425532  L 0.425531914893781 1106.68085106383  Z " stroke-width="2" stroke="#797979" fill="none" transform="matrix(1 0 0 1 2440 1838 )" mask="url(#clip2673)" />
  </g>
</svg>