<?xml version="1.0" encoding="utf-8"?>
<svg version="1.1" xmlns:xlink="http://www.w3.org/1999/xlink" width="1336px" height="1872px" xmlns="http://www.w3.org/2000/svg">
  <defs>
    <mask fill="white" id="clip2676">
      <path d="M 427.615384615385 1692.69230769231  L 154.538461538462 1344.61538461538  L 0.692307692307622 1256.15384615385  L 0.692307692307622 1129.23076923077  L 227.615384615385 786.923076923077  L 289.153846153846 448.461538461538  L 348.769230769231 308.076923076923  L 361.333333333333 86.6666666666665  L 544.666666666667 0  L 659.071428571428 95.7142857142857  L 869.785714285714 142.142857142857  L 1259.07142857143 160  L 1335.85714285714 204.642857142857  L 1273.67977336759 832.268539755094  L 1150.96703296703 825.384615384615  L 864.153846153846 864.945054945055  L 823 1052.85714285714  L 835.582417582417 1150.65934065934  L 891.626373626373 1201.20879120879  L 1047.67032967033 1278  L 1150.96703296703 1278  L 1197.12087912088 1229.78021978022  L 1184.07142857143 1736.78571428571  L 823 1718  L 781 1872  L 427.615384615385 1692.69230769231  Z " fill-rule="evenodd" />
    </mask>
  </defs>
  <g transform="matrix(1 0 0 1 -682 -890 )">
    <path d="M 427.615384615385 1692.69230769231  L 154.538461538462 1344.61538461538  L 0.692307692307622 1256.15384615385  L 0.692307692307622 1129.23076923077  L 227.615384615385 786.923076923077  L 289.153846153846 448.461538461538  L 348.769230769231 308.076923076923  L 361.333333333333 86.6666666666665  L 544.666666666667 0  L 659.071428571428 95.7142857142857  L 869.785714285714 142.142857142857  L 1259.07142857143 160  L 1335.85714285714 204.642857142857  L 1273.67977336759 832.268539755094  L 1150.96703296703 825.384615384615  L 864.153846153846 864.945054945055  L 823 1052.85714285714  L 835.582417582417 1150.65934065934  L 891.626373626373 1201.20879120879  L 1047.67032967033 1278  L 1150.96703296703 1278  L 1197.12087912088 1229.78021978022  L 1184.07142857143 1736.78571428571  L 823 1718  L 781 1872  L 427.615384615385 1692.69230769231  Z " fill-rule="nonzero" fill="#ffff00" stroke="none" fill-opacity="0.388235294117647" transform="matrix(1 0 0 1 682 890 )" />
    <path d="M 427.615384615385 1692.69230769231  L 154.538461538462 1344.61538461538  L 0.692307692307622 1256.15384615385  L 0.692307692307622 1129.23076923077  L 227.615384615385 786.923076923077  L 289.153846153846 448.461538461538  L 348.769230769231 308.076923076923  L 361.333333333333 86.6666666666665  L 544.666666666667 0  L 659.071428571428 95.7142857142857  L 869.785714285714 142.142857142857  L 1259.07142857143 160  L 1335.85714285714 204.642857142857  L 1273.67977336759 832.268539755094  L 1150.96703296703 825.384615384615  L 864.153846153846 864.945054945055  L 823 1052.85714285714  L 835.582417582417 1150.65934065934  L 891.626373626373 1201.20879120879  L 1047.67032967033 1278  L 1150.96703296703 1278  L 1197.12087912088 1229.78021978022  L 1184.07142857143 1736.78571428571  L 823 1718  L 781 1872  L 427.615384615385 1692.69230769231  Z " stroke-width="2" stroke="#797979" fill="none" transform="matrix(1 0 0 1 682 890 )" mask="url(#clip2676)" />
  </g>
</svg>