<?xml version="1.0" encoding="utf-8"?>
<svg version="1.1" xmlns:xlink="http://www.w3.org/1999/xlink" width="1225px" height="1679px" xmlns="http://www.w3.org/2000/svg">
  <defs>
    <mask fill="white" id="clip2677">
      <path d="M 0.692307692307622 1583.53846153846  L 13 1078.92307692308  L 74.5384615384614 1102  L 59.1538461538462 1135.84615384615  L 371.461538461539 1162  L 437.615384615385 1122  L 454.538461538461 798.290322580645  L 197.814814814815 689.692307692308  L 86.8461538461538 680.461538461538  L 145.962962962963 56.4444444444443  L 197.814814814815 0.888888888888914  L 355.222222222222 56.4444444444443  L 898.322580645161 84.5806451612902  L 837.032258064516 291.838709677419  L 887.83870967742 600.709677419355  L 955.580645161291 616.838709677419  L 1108.8064516129 553.935483870968  L 1225 798.290322580645  L 1088.38461538462 968.153846153846  L 1020.69230769231 903.538461538461  L 782.230769230769 1152.76923076923  L 689.923076923077 1362  L 620.692307692308 1678.92307692308  L 553 1614.30769230769  L 0.692307692307622 1583.53846153846  Z " fill-rule="evenodd" />
    </mask>
  </defs>
  <g transform="matrix(1 0 0 1 -1867 -1038 )">
    <path d="M 0.692307692307622 1583.53846153846  L 13 1078.92307692308  L 74.5384615384614 1102  L 59.1538461538462 1135.84615384615  L 371.461538461539 1162  L 437.615384615385 1122  L 454.538461538461 798.290322580645  L 197.814814814815 689.692307692308  L 86.8461538461538 680.461538461538  L 145.962962962963 56.4444444444443  L 197.814814814815 0.888888888888914  L 355.222222222222 56.4444444444443  L 898.322580645161 84.5806451612902  L 837.032258064516 291.838709677419  L 887.83870967742 600.709677419355  L 955.580645161291 616.838709677419  L 1108.8064516129 553.935483870968  L 1225 798.290322580645  L 1088.38461538462 968.153846153846  L 1020.69230769231 903.538461538461  L 782.230769230769 1152.76923076923  L 689.923076923077 1362  L 620.692307692308 1678.92307692308  L 553 1614.30769230769  L 0.692307692307622 1583.53846153846  Z " fill-rule="nonzero" fill="#00ffff" stroke="none" transform="matrix(1 0 0 1 1867 1038 )" />
    <path d="M 0.692307692307622 1583.53846153846  L 13 1078.92307692308  L 74.5384615384614 1102  L 59.1538461538462 1135.84615384615  L 371.461538461539 1162  L 437.615384615385 1122  L 454.538461538461 798.290322580645  L 197.814814814815 689.692307692308  L 86.8461538461538 680.461538461538  L 145.962962962963 56.4444444444443  L 197.814814814815 0.888888888888914  L 355.222222222222 56.4444444444443  L 898.322580645161 84.5806451612902  L 837.032258064516 291.838709677419  L 887.83870967742 600.709677419355  L 955.580645161291 616.838709677419  L 1108.8064516129 553.935483870968  L 1225 798.290322580645  L 1088.38461538462 968.153846153846  L 1020.69230769231 903.538461538461  L 782.230769230769 1152.76923076923  L 689.923076923077 1362  L 620.692307692308 1678.92307692308  L 553 1614.30769230769  L 0.692307692307622 1583.53846153846  Z " stroke-width="2" stroke="#797979" fill="none" transform="matrix(1 0 0 1 1867 1038 )" mask="url(#clip2677)" />
  </g>
</svg>