<?xml version="1.0" encoding="utf-8"?>
<svg version="1.1" xmlns:xlink="http://www.w3.org/1999/xlink" width="2185px" height="822px" xmlns="http://www.w3.org/2000/svg">
  <defs>
    <mask fill="white" id="clip2672">
      <path d="M 0.450980392156907 648.901960784313  L 331.823529411765 533.21568627451  L 720.058823529412 586.156862745098  L 877.504504504504 0.306306306305942  L 1795 48  L 1867.54545454545 110.363636363636  L 1814.17647058823 343.019607843137  L 2184.76470588235 670.470588235294  L 2149.47058823529 809.686274509803  L 1514.17647058824 821.450980392157  L 406.333333333333 821.450980392157  L 0.450980392156907 648.901960784313  Z " fill-rule="evenodd" />
    </mask>
  </defs>
  <g transform="matrix(1 0 0 1 -627 -2606 )">
    <path d="M 0.450980392156907 648.901960784313  L 331.823529411765 533.21568627451  L 720.058823529412 586.156862745098  L 877.504504504504 0.306306306305942  L 1795 48  L 1867.54545454545 110.363636363636  L 1814.17647058823 343.019607843137  L 2184.76470588235 670.470588235294  L 2149.47058823529 809.686274509803  L 1514.17647058824 821.450980392157  L 406.333333333333 821.450980392157  L 0.450980392156907 648.901960784313  Z " fill-rule="nonzero" fill="#d9001b" stroke="none" transform="matrix(1 0 0 1 627 2606 )" />
    <path d="M 0.450980392156907 648.901960784313  L 331.823529411765 533.21568627451  L 720.058823529412 586.156862745098  L 877.504504504504 0.306306306305942  L 1795 48  L 1867.54545454545 110.363636363636  L 1814.17647058823 343.019607843137  L 2184.76470588235 670.470588235294  L 2149.47058823529 809.686274509803  L 1514.17647058824 821.450980392157  L 406.333333333333 821.450980392157  L 0.450980392156907 648.901960784313  Z " stroke-width="2" stroke="#797979" fill="none" transform="matrix(1 0 0 1 627 2606 )" mask="url(#clip2672)" />
  </g>
</svg>