<?xml version="1.0" encoding="utf-8"?>
<svg version="1.1" xmlns:xlink="http://www.w3.org/1999/xlink" width="173px" height="93px" xmlns="http://www.w3.org/2000/svg">
  <defs>
    <pattern id="BGPattern" patternUnits="userSpaceOnUse" alignment="0 0" imageRepeat="None" />
    <mask fill="white" id="Clip359">
      <path d="M 0.03797468354423472 14.379746835443031  C 0.03797468354423472 1.325300035671944  6.056083710662506 7.2064598906126776  11.444444444446733 9.5072463768131  C 25.703486228908332 15.595741981452875  89.10568031704247 55.43989431968521  88 54.171730515193076  C 86.89431968295753 52.90356671070094  173 -33.22025316455688  173 14.379746835443031  C 173 61.97974683544294  135.60000000000002 93  88 93  C 40.39999999999998 93  0.03797468354423472 61.97974683544294  0.03797468354423472 14.379746835443031  Z " fill-rule="evenodd" />
    </mask>
  </defs>
  <g transform="matrix(1 0 0 1 -13 -55 )">
    <path d="M 0.03797468354423472 14.379746835443031  C 0.03797468354423472 1.325300035671944  6.056083710662506 7.2064598906126776  11.444444444446733 9.5072463768131  C 25.703486228908332 15.595741981452875  89.10568031704247 55.43989431968521  88 54.171730515193076  C 86.89431968295753 52.90356671070094  173 -33.22025316455688  173 14.379746835443031  C 173 61.97974683544294  135.60000000000002 93  88 93  C 40.39999999999998 93  0.03797468354423472 61.97974683544294  0.03797468354423472 14.379746835443031  Z " fill-rule="nonzero" fill="rgba(51, 51, 51, 0.9647058823529412)" stroke="none" transform="matrix(1 0 0 1 13 55 )" class="fill" />
    <path d="M 0.03797468354423472 14.379746835443031  C 0.03797468354423472 1.325300035671944  6.056083710662506 7.2064598906126776  11.444444444446733 9.5072463768131  C 25.703486228908332 15.595741981452875  89.10568031704247 55.43989431968521  88 54.171730515193076  C 86.89431968295753 52.90356671070094  173 -33.22025316455688  173 14.379746835443031  C 173 61.97974683544294  135.60000000000002 93  88 93  C 40.39999999999998 93  0.03797468354423472 61.97974683544294  0.03797468354423472 14.379746835443031  Z " stroke-width="2" stroke-dasharray="0" stroke="rgba(0, 0, 0, 0)" fill="none" transform="matrix(1 0 0 1 13 55 )" class="stroke" mask="url(#Clip359)" />
  </g>
</svg>