<?xml version="1.0" encoding="utf-8"?>
<svg version="1.1" xmlns:xlink="http://www.w3.org/1999/xlink" width="67px" height="61px" xmlns="http://www.w3.org/2000/svg">
  <defs>
    <pattern id="BGPattern" patternUnits="userSpaceOnUse" alignment="0 0" imageRepeat="None" />
    <mask fill="white" id="Clip365">
      <path d="M 0 51  L 0 0  L 57 0  L 57 51  C 57 51  39.29199999999796 35.19000000000713  27.739999999999828 36.210000000004754  C 16.188000000001693 37.23000000000238  0 51  0 51  Z " fill-rule="evenodd" />
    </mask>
  </defs>
  <g transform="matrix(1 0 0 1 -836 -970 )">
    <path d="M 0 51  L 0 0  L 57 0  L 57 51  C 57 51  39.29199999999796 35.19000000000713  27.739999999999828 36.210000000004754  C 16.188000000001693 37.23000000000238  0 51  0 51  Z " fill-rule="nonzero" fill="rgba(215, 215, 215, 1)" stroke="none" transform="matrix(1 0 0 1 836 970 )" class="fill" />
    <path d="M 0 51  L 0 0  L 57 0  L 57 51  C 57 51  39.29199999999796 35.19000000000713  27.739999999999828 36.210000000004754  C 16.188000000001693 37.23000000000238  0 51  0 51  Z " stroke-width="0" stroke-dasharray="0" stroke="rgba(121, 121, 121, 1)" fill="none" transform="matrix(1 0 0 1 836 970 )" class="stroke" mask="url(#Clip365)" />
  </g>
  <style>svg { filter: drop-shadow(5px 5px 2.5px rgba(0, 0, 0, 0.34901960784313724)); }</style>
</svg>