<?xml version="1.0" encoding="utf-8"?>
<svg version="1.1" xmlns:xlink="http://www.w3.org/1999/xlink" width="83px" height="126px" xmlns="http://www.w3.org/2000/svg">
  <defs>
    <pattern id="BGPattern" patternUnits="userSpaceOnUse" alignment="0 0" imageRepeat="None" />
    <mask fill="white" id="Clip364">
      <path d="M 0 116  L 0 0  L 73 0  L 73 107.72869565217685  L 47.317272727264395 104.50086956520836  L 31.389999999991822 112.16695652173631  L 15.462727272718492 107.72869565217685  L 0 116  Z " fill-rule="evenodd" />
    </mask>
  </defs>
  <g transform="matrix(1 0 0 1 -856 -946 )">
    <path d="M 0 116  L 0 0  L 73 0  L 73 107.72869565217685  L 47.317272727264395 104.50086956520836  L 31.389999999991822 112.16695652173631  L 15.462727272718492 107.72869565217685  L 0 116  Z " fill-rule="nonzero" fill="rgba(85, 85, 85, 1)" stroke="none" transform="matrix(1 0 0 1 856 946 )" class="fill" />
    <path d="M 0 116  L 0 0  L 73 0  L 73 107.72869565217685  L 47.317272727264395 104.50086956520836  L 31.389999999991822 112.16695652173631  L 15.462727272718492 107.72869565217685  L 0 116  Z " stroke-width="2" stroke-dasharray="0" stroke="rgba(121, 121, 121, 0)" fill="none" transform="matrix(1 0 0 1 856 946 )" class="stroke" mask="url(#Clip364)" />
  </g>
  <style>svg { filter: drop-shadow(5px 5px 2.5px rgba(0, 0, 0, 0.34901960784313724)); }</style>
</svg>