<?xml version="1.0" encoding="utf-8"?>
<svg version="1.1" xmlns:xlink="http://www.w3.org/1999/xlink" width="41px" height="41px" xmlns="http://www.w3.org/2000/svg">
  <defs>
    <pattern id="BGPattern" patternUnits="userSpaceOnUse" alignment="0 0" imageRepeat="None" />
    <mask fill="white" id="Clip368">
      <path d="M 0 20.5  C 0 9.02  9.02 0  20.5 0  C 31.98 0  41 9.02  41 20.5  C 41 31.98  31.98 41  20.5 41  C 9.02 41  0 31.98  0 20.5  Z " fill-rule="evenodd" />
    </mask>
  </defs>
  <g transform="matrix(1 0 0 1 -244 -932 )">
    <path d="M 0 20.5  C 0 9.02  9.02 0  20.5 0  C 31.98 0  41 9.02  41 20.5  C 41 31.98  31.98 41  20.5 41  C 9.02 41  0 31.98  0 20.5  Z " fill-rule="nonzero" fill="rgba(127, 127, 127, 1)" stroke="none" transform="matrix(1 0 0 1 244 932 )" class="fill" />
    <path d="M 0 20.5  C 0 9.02  9.02 0  20.5 0  C 31.98 0  41 9.02  41 20.5  C 41 31.98  31.98 41  20.5 41  C 9.02 41  0 31.98  0 20.5  Z " stroke-width="2" stroke-dasharray="0" stroke="rgba(121, 121, 121, 1)" fill="none" transform="matrix(1 0 0 1 244 932 )" class="stroke" mask="url(#Clip368)" />
  </g>
</svg>