<?xml version="1.0" encoding="utf-8"?>
<svg version="1.1" xmlns:xlink="http://www.w3.org/1999/xlink" width="77px" height="77px" xmlns="http://www.w3.org/2000/svg">
  <defs>
    <pattern id="BGPattern" patternUnits="userSpaceOnUse" alignment="0 0" imageRepeat="None" />
    <mask fill="white" id="Clip517">
      <path d="M 0 38.5  C 0 16.939999999999998  16.939999999999998 0  38.5 0  C 60.06 0  77 16.939999999999998  77 38.5  C 77 60.06  60.06 77  38.5 77  C 16.939999999999998 77  0 60.06  0 38.5  Z " fill-rule="evenodd" />
    </mask>
  </defs>
  <g transform="matrix(1 0 0 1 -232 -227 )">
    <path d="M 0 38.5  C 0 16.939999999999998  16.939999999999998 0  38.5 0  C 60.06 0  77 16.939999999999998  77 38.5  C 77 60.06  60.06 77  38.5 77  C 16.939999999999998 77  0 60.06  0 38.5  Z " fill-rule="nonzero" fill="rgba(255, 255, 255, 1)" stroke="none" transform="matrix(1 0 0 1 232 227 )" class="fill" />
    <path d="M 0 38.5  C 0 16.939999999999998  16.939999999999998 0  38.5 0  C 60.06 0  77 16.939999999999998  77 38.5  C 77 60.06  60.06 77  38.5 77  C 16.939999999999998 77  0 60.06  0 38.5  Z " stroke-width="2" stroke-dasharray="0" stroke="rgba(121, 121, 121, 1)" fill="none" transform="matrix(1 0 0 1 232 227 )" class="stroke" mask="url(#Clip517)" />
  </g>
</svg>