<?xml version="1.0" encoding="utf-8"?>
<svg version="1.1" xmlns:xlink="http://www.w3.org/1999/xlink" width="77px" height="77px" xmlns="http://www.w3.org/2000/svg">
  <g transform="matrix(1 0 0 1 -232 -227 )">
    <path d="M 270.5 227  C 292.06 227  309 243.94  309 265.5  C 309 287.06  292.06 304  270.5 304  C 248.94 304  232 287.06  232 265.5  C 232 243.94  248.94 227  270.5 227  Z " fill-rule="nonzero" fill="#ffffff" stroke="none" />
    <path d="M 270.5 227.5  C 291.78 227.5  308.5 244.22  308.5 265.5  C 308.5 286.78  291.78 303.5  270.5 303.5  C 249.22 303.5  232.5 286.78  232.5 265.5  C 232.5 244.22  249.22 227.5  270.5 227.5  Z " stroke-width="1" stroke="#797979" fill="none" />
  </g>
</svg>