<?xml version="1.0" encoding="utf-8"?>
<svg version="1.1" xmlns:xlink="http://www.w3.org/1999/xlink" width="71px" height="71px" xmlns="http://www.w3.org/2000/svg">
  <defs>
    <pattern id="BGPattern" patternUnits="userSpaceOnUse" alignment="0 0" imageRepeat="None" />
    <mask fill="white" id="Clip519">
      <path d="M 0 35.5  C 0 15.619999999999997  15.619999999999997 0  35.5 0  C 55.38 0  71 15.619999999999997  71 35.5  C 71 55.38  55.38 71  35.5 71  C 15.619999999999997 71  0 55.38  0 35.5  Z " fill-rule="evenodd" />
    </mask>
  </defs>
  <g transform="matrix(1 0 0 1 -1516 -296 )">
    <path d="M 0 35.5  C 0 15.619999999999997  15.619999999999997 0  35.5 0  C 55.38 0  71 15.619999999999997  71 35.5  C 71 55.38  55.38 71  35.5 71  C 15.619999999999997 71  0 55.38  0 35.5  Z " fill-rule="nonzero" fill="rgba(255, 255, 255, 1)" stroke="none" transform="matrix(1 0 0 1 1516 296 )" class="fill" />
    <path d="M 0 35.5  C 0 15.619999999999997  15.619999999999997 0  35.5 0  C 55.38 0  71 15.619999999999997  71 35.5  C 71 55.38  55.38 71  35.5 71  C 15.619999999999997 71  0 55.38  0 35.5  Z " stroke-width="2" stroke-dasharray="0" stroke="rgba(121, 121, 121, 1)" fill="none" transform="matrix(1 0 0 1 1516 296 )" class="stroke" mask="url(#Clip519)" />
  </g>
</svg>