<?xml version="1.0" encoding="utf-8"?>
<svg version="1.1" xmlns:xlink="http://www.w3.org/1999/xlink" width="119px" height="210px" xmlns="http://www.w3.org/2000/svg">
  <defs>
    <mask fill="white" id="clip750">
      <path d="M 0.563451776649799 96.3451776649746  L 12.746192893401 64.3654822335026  L 57.9238578680203 0  L 118.329949238579 91.7766497461929  L 111.730964467005 163.350253807107  L 62.4923857868021 209.035532994924  L 23.4060913705584 163.350253807107  L 0.563451776649799 96.3451776649746  Z " fill-rule="evenodd" />
    </mask>
  </defs>
  <g transform="matrix(1 0 0 1 -737 -560 )">
    <path d="M 0.563451776649799 96.3451776649746  L 12.746192893401 64.3654822335026  L 57.9238578680203 0  L 118.329949238579 91.7766497461929  L 111.730964467005 163.350253807107  L 62.4923857868021 209.035532994924  L 23.4060913705584 163.350253807107  L 0.563451776649799 96.3451776649746  Z " fill-rule="nonzero" fill="#8080ff" stroke="none" fill-opacity="0.168627450980392" transform="matrix(1 0 0 1 737 560 )" />
    <path d="M 0.563451776649799 96.3451776649746  L 12.746192893401 64.3654822335026  L 57.9238578680203 0  L 118.329949238579 91.7766497461929  L 111.730964467005 163.350253807107  L 62.4923857868021 209.035532994924  L 23.4060913705584 163.350253807107  L 0.563451776649799 96.3451776649746  Z " stroke-width="10" stroke="#8080ff" fill="none" transform="matrix(1 0 0 1 737 560 )" mask="url(#clip750)" />
  </g>
</svg>