<?xml version="1.0" encoding="utf-8"?>
<svg version="1.1" xmlns:xlink="http://www.w3.org/1999/xlink" width="146px" height="210px" xmlns="http://www.w3.org/2000/svg">
  <defs>
    <pattern id="BGPattern" patternUnits="userSpaceOnUse" alignment="0 0" imageRepeat="None" />
    <mask fill="white" id="Clip1986">
      <path d="M 133.0092846659095 209  L 109.51148550996732 209.00006367915273  C 119.40740309078046 190.88481364703358  125 169.955033674774  125 147.5  C 125 77.16076289117092  70.12413179844634 21.78767165549283  0 21.0081794492139  L 0.00023169518499344122 0.007144575839930667  C 81.884478283323 0.7875137764736166  146 65.400731199599  146 147.5  C 146 169.56225410763292  141.36996400950602 190.3617711269493  133.0092846659095 209  Z " fill-rule="evenodd" />
    </mask>
  </defs>
  <g transform="matrix(1 0 0 1 -2910 -83 )">
    <path d="M 133.0092846659095 209  L 109.51148550996732 209.00006367915273  C 119.40740309078046 190.88481364703358  125 169.955033674774  125 147.5  C 125 77.16076289117092  70.12413179844634 21.78767165549283  0 21.0081794492139  L 0.00023169518499344122 0.007144575839930667  C 81.884478283323 0.7875137764736166  146 65.400731199599  146 147.5  C 146 169.56225410763292  141.36996400950602 190.3617711269493  133.0092846659095 209  Z " fill-rule="nonzero" fill="rgba(245, 154, 35, 0.2980392156862745)" stroke="none" transform="matrix(1 0 0 1 2910 83 )" class="fill" />
    <path d="M 133.0092846659095 209  L 109.51148550996732 209.00006367915273  C 119.40740309078046 190.88481364703358  125 169.955033674774  125 147.5  C 125 77.16076289117092  70.12413179844634 21.78767165549283  0 21.0081794492139  L 0.00023169518499344122 0.007144575839930667  C 81.884478283323 0.7875137764736166  146 65.400731199599  146 147.5  C 146 169.56225410763292  141.36996400950602 190.3617711269493  133.0092846659095 209  Z " stroke-width="10" stroke-dasharray="0" stroke="rgba(0, 0, 0, 1)" fill="none" transform="matrix(1 0 0 1 2910 83 )" class="stroke" mask="url(#Clip1986)" />
  </g>
</svg>