<?xml version="1.0" encoding="utf-8"?>
<svg version="1.1" xmlns:xlink="http://www.w3.org/1999/xlink" width="137px" height="92px" xmlns="http://www.w3.org/2000/svg">
  <defs>
    <pattern id="BGPattern" patternUnits="userSpaceOnUse" alignment="0 0" imageRepeat="None" />
    <mask fill="white" id="Clip1987">
      <path d="M 136.14103817904015 91  L 113.09832649337477 91.00030550156055  C 92.72234012346166 49.33755589181027  50.20511982814082 21.1866187075415  0 21.000773931537537  L 0.00036007505877932994 0.0007941319319826334  C 62.26991381197263 0.1984902523197576  114.40846948061744 37.2898623417328  136.14103817904015 91  Z " fill-rule="evenodd" />
    </mask>
  </defs>
  <g transform="matrix(1 0 0 1 -2909 -83 )">
    <path d="M 136.14103817904015 91  L 113.09832649337477 91.00030550156055  C 92.72234012346166 49.33755589181027  50.20511982814082 21.1866187075415  0 21.000773931537537  L 0.00036007505877932994 0.0007941319319826334  C 62.26991381197263 0.1984902523197576  114.40846948061744 37.2898623417328  136.14103817904015 91  Z " fill-rule="nonzero" fill="rgba(245, 154, 35, 0.996078431372549)" stroke="none" transform="matrix(1 0 0 1 2909 83 )" class="fill" />
    <path d="M 136.14103817904015 91  L 113.09832649337477 91.00030550156055  C 92.72234012346166 49.33755589181027  50.20511982814082 21.1866187075415  0 21.000773931537537  L 0.00036007505877932994 0.0007941319319826334  C 62.26991381197263 0.1984902523197576  114.40846948061744 37.2898623417328  136.14103817904015 91  Z " stroke-width="10" stroke-dasharray="0" stroke="rgba(0, 0, 0, 1)" fill="none" transform="matrix(1 0 0 1 2909 83 )" class="stroke" mask="url(#Clip1987)" />
  </g>
</svg>