<?xml version="1.0" encoding="utf-8"?>
<svg version="1.1" xmlns:xlink="http://www.w3.org/1999/xlink" width="49px" height="49px" xmlns="http://www.w3.org/2000/svg">
  <defs>
    <pattern id="BGPattern" patternUnits="userSpaceOnUse" alignment="0 0" imageRepeat="None" />
    <mask fill="white" id="Clip1990">
      <path d="M 0 24.5  C 0 10.78  10.78 0  24.5 0  C 38.22 0  49 10.78  49 24.5  C 49 38.22  38.22 49  24.5 49  C 10.78 49  0 38.22  0 24.5  Z " fill-rule="evenodd" />
    </mask>
  </defs>
  <g transform="matrix(1 0 0 1 -2884 -2022 )">
    <path d="M 0 24.5  C 0 10.78  10.78 0  24.5 0  C 38.22 0  49 10.78  49 24.5  C 49 38.22  38.22 49  24.5 49  C 10.78 49  0 38.22  0 24.5  Z " fill-rule="nonzero" fill="rgba(255, 255, 255, 1)" stroke="none" transform="matrix(1 0 0 1 2884 2022 )" class="fill" />
    <path d="M 0 24.5  C 0 10.78  10.78 0  24.5 0  C 38.22 0  49 10.78  49 24.5  C 49 38.22  38.22 49  24.5 49  C 10.78 49  0 38.22  0 24.5  Z " stroke-width="6" stroke-dasharray="0" stroke="rgba(194, 128, 255, 1)" fill="none" transform="matrix(1 0 0 1 2884 2022 )" class="stroke" mask="url(#Clip1990)" />
  </g>
</svg>