<?xml version="1.0" encoding="utf-8"?>
<svg version="1.1" xmlns:xlink="http://www.w3.org/1999/xlink" width="295px" height="295px" xmlns="http://www.w3.org/2000/svg">
  <defs>
    <pattern id="BGPattern" patternUnits="userSpaceOnUse" alignment="0 0" imageRepeat="None" />
    <mask fill="white" id="Clip1994">
      <path d="M 295 147.5  C 295 230.1  230.0999999999999 295  147.5 295  C 64.90000000000009 295  0 230.1  0 147.5  C 0 64.89999999999998  64.90000000000009 0  147.5 0  C 230.0999999999999 0  295 64.89999999999998  295 147.5  Z M 21 147.5  C 21 218.34000000000003  76.66000000000008 274  147.5 274  C 218.33999999999992 274  274 218.34000000000003  274 147.5  C 274 76.66  218.33999999999992 21  147.5 21  C 76.66000000000008 21  21 76.66  21 147.5  Z " fill-rule="evenodd" />
    </mask>
  </defs>
  <g transform="matrix(1 0 0 1 -6075 -3027 )">
    <path d="M 295 147.5  C 295 230.1  230.0999999999999 295  147.5 295  C 64.90000000000009 295  0 230.1  0 147.5  C 0 64.89999999999998  64.90000000000009 0  147.5 0  C 230.0999999999999 0  295 64.89999999999998  295 147.5  Z M 21 147.5  C 21 218.34000000000003  76.66000000000008 274  147.5 274  C 218.33999999999992 274  274 218.34000000000003  274 147.5  C 274 76.66  218.33999999999992 21  147.5 21  C 76.66000000000008 21  21 76.66  21 147.5  Z " fill-rule="nonzero" fill="rgba(255, 255, 0, 0.996078431372549)" stroke="none" transform="matrix(1 0 0 1 6075 3027 )" class="fill" />
    <path d="M 295 147.5  C 295 230.1  230.0999999999999 295  147.5 295  C 64.90000000000009 295  0 230.1  0 147.5  C 0 64.89999999999998  64.90000000000009 0  147.5 0  C 230.0999999999999 0  295 64.89999999999998  295 147.5  Z " stroke-width="10" stroke-dasharray="0" stroke="rgba(0, 0, 0, 1)" fill="none" transform="matrix(1 0 0 1 6075 3027 )" class="stroke" mask="url(#Clip1994)" />
    <path d="M 21 147.5  C 21 218.34000000000003  76.66000000000008 274  147.5 274  C 218.33999999999992 274  274 218.34000000000003  274 147.5  C 274 76.66  218.33999999999992 21  147.5 21  C 76.66000000000008 21  21 76.66  21 147.5  Z " stroke-width="10" stroke-dasharray="0" stroke="rgba(0, 0, 0, 1)" fill="none" transform="matrix(1 0 0 1 6075 3027 )" class="stroke" mask="url(#Clip1994)" />
  </g>
</svg>