<?xml version="1.0" encoding="utf-8"?>
<svg version="1.1" xmlns:xlink="http://www.w3.org/1999/xlink" width="20px" height="22px" xmlns="http://www.w3.org/2000/svg">
  <defs>
    <pattern id="BGPattern" patternUnits="userSpaceOnUse" alignment="0 0" imageRepeat="None" />
    <mask fill="white" id="Clip550">
      <path d="M 20 22  L 20 1.1733333333334335  L 10 1.1733333333334335  L 10 12.613333333333324  L 0 12.613333333333324  L 0 22  L 20 22  Z " fill-rule="evenodd" />
    </mask>
  </defs>
  <g transform="matrix(1 0 0 1 -105 -105 )">
    <path d="M 20 22  L 20 1.1733333333334335  L 10 1.1733333333334335  L 10 12.613333333333324  L 0 12.613333333333324  L 0 22  L 20 22  Z " fill-rule="nonzero" fill="rgba(170, 170, 170, 1)" stroke="none" transform="matrix(1 0 0 1 105 105 )" class="fill" />
    <path d="M 20 22  L 20 1.1733333333334335  L 10 1.1733333333334335  L 10 12.613333333333324  L 0 12.613333333333324  L 0 22  L 20 22  Z " stroke-width="2" stroke-dasharray="0" stroke="rgba(127, 127, 127, 1)" fill="none" transform="matrix(1 0 0 1 105 105 )" class="stroke" mask="url(#Clip550)" />
  </g>
</svg>