<?xml version="1.0" encoding="utf-8"?>
<svg version="1.1" xmlns:xlink="http://www.w3.org/1999/xlink" width="51px" height="51px" xmlns="http://www.w3.org/2000/svg">
  <g transform="matrix(1 0 0 1 -892 -496 )">
    <path d="M 917.5 496  C 931.78 496  943 507.22  943 521.5  C 943 535.78  931.78 547  917.5 547  C 903.22 547  892 535.78  892 521.5  C 892 507.22  903.22 496  917.5 496  Z " fill-rule="nonzero" fill="#ffffff" stroke="none" />
    <path d="M 917.5 496.5  C 931.5 496.5  942.5 507.5  942.5 521.5  C 942.5 535.5  931.5 546.5  917.5 546.5  C 903.5 546.5  892.5 535.5  892.5 521.5  C 892.5 507.5  903.5 496.5  917.5 496.5  Z " stroke-width="1" stroke="#797979" fill="none" />
  </g>
</svg>