<?xml version="1.0" encoding="utf-8"?>
<svg version="1.1" xmlns:xlink="http://www.w3.org/1999/xlink" width="10px" height="10px" xmlns="http://www.w3.org/2000/svg">
  <defs>
    <pattern id="BGPattern" patternUnits="userSpaceOnUse" alignment="0 0" imageRepeat="None" />
    <filter x="-50.00%" y="-50.00%" width="200.00%" height="200.00%" filterUnits="objectBoundingBox" id="Filter584">
      <feOffset dx="-1" dy="1" in="SourceGraphic" result="offset" id="offset" />
      <feMorphology radius="1" operator="erode" in="offset" result="morphology" id="morphology" />
      <feGaussianBlur stdDeviation="0" in="morphology" result="blur" id="blur" />
      <feComposite in2="blur" operator="out" in="SourceGraphic" result="inverse" id="inverse" />
      <feFlood flood-color="rgba(0, 0, 0, 0.34901960784313724)" in="inverse" result="color" id="color" />
      <feComposite in2="inverse" operator="in" in="color" result="shadow" id="shadow" />
      <feComposite in2="SourceGraphic" operator="over" in="shadow" />
    </filter>
    <mask fill="white" id="Clip585">
      <path d="M 0 5  C 0 2.1999999999999997  2.1999999999999997 0  5 0  C 7.800000000000001 0  10 2.1999999999999997  10 5  C 10 7.800000000000001  7.800000000000001 10  5 10  C 2.1999999999999997 10  0 7.800000000000001  0 5  Z " fill-rule="evenodd" />
    </mask>
  </defs>
  <g transform="matrix(1 0 0 1 -864 -1309 )">
    <path d="M 0 5  C 0 2.1999999999999997  2.1999999999999997 0  5 0  C 7.800000000000001 0  10 2.1999999999999997  10 5  C 10 7.800000000000001  7.800000000000001 10  5 10  C 2.1999999999999997 10  0 7.800000000000001  0 5  Z " fill-rule="nonzero" fill="rgba(0, 0, 0, 1)" stroke="none" transform="matrix(1 0 0 1 864 1309 )" class="fill" />
    <path d="M 0 5  C 0 2.1999999999999997  2.1999999999999997 0  5 0  C 7.800000000000001 0  10 2.1999999999999997  10 5  C 10 7.800000000000001  7.800000000000001 10  5 10  C 2.1999999999999997 10  0 7.800000000000001  0 5  Z " stroke-width="2" stroke-dasharray="0" stroke="rgba(121, 121, 121, 0)" fill="none" transform="matrix(1 0 0 1 864 1309 )" class="stroke" mask="url(#Clip585)" />
  </g>
  <style>path.fill { filter: url('#Filter584'); }</style>
</svg>