<?xml version="1.0" encoding="utf-8"?>
<svg version="1.1" xmlns:xlink="http://www.w3.org/1999/xlink" width="49px" height="83px" xmlns="http://www.w3.org/2000/svg">
  <defs>
    <mask fill="white" id="clip837">
      <path d="M 6 83  L 6 48.4641288433381  L 0.3938506588579 39.9721815519765  L 6 32.7979502196192  L 6 0  L 34 0  C 42.4000000000001 0  49 6.59999999999991  49 15  L 49 68  C 49 76.4000000000001  42.4000000000001 83  34 83  L 6 83  Z " fill-rule="evenodd" />
    </mask>
  </defs>
  <g transform="matrix(1 0 0 1 -2858 -1242 )">
    <path d="M 6 83  L 6 48.4641288433381  L 0.3938506588579 39.9721815519765  L 6 32.7979502196192  L 6 0  L 34 0  C 42.4000000000001 0  49 6.59999999999991  49 15  L 49 68  C 49 76.4000000000001  42.4000000000001 83  34 83  L 6 83  Z " fill-rule="nonzero" fill="#f2f2f2" stroke="none" transform="matrix(1 0 0 1 2858 1242 )" />
    <path d="M 6 83  L 6 48.4641288433381  L 0.3938506588579 39.9721815519765  L 6 32.7979502196192  L 6 0  L 34 0  C 42.4000000000001 0  49 6.59999999999991  49 15  L 49 68  C 49 76.4000000000001  42.4000000000001 83  34 83  L 6 83  Z " stroke-width="2" stroke="#797979" fill="none" transform="matrix(1 0 0 1 2858 1242 )" mask="url(#clip837)" />
  </g>
</svg>