<?xml version="1.0" encoding="utf-8"?>
<svg version="1.1" xmlns:xlink="http://www.w3.org/1999/xlink" width="43px" height="83px" xmlns="http://www.w3.org/2000/svg">
  <defs>
    <mask fill="white" id="clip838">
      <path d="M 0 83  L 0 0  L 28 0  C 36.4000000000001 0  43 6.59999999999991  43 15  L 43 68  C 43 76.4000000000001  36.4000000000001 83  28 83  L 0 83  Z " fill-rule="evenodd" />
    </mask>
  </defs>
  <g transform="matrix(1 0 0 1 -2864 -1336 )">
    <path d="M 0 83  L 0 0  L 28 0  C 36.4000000000001 0  43 6.59999999999991  43 15  L 43 68  C 43 76.4000000000001  36.4000000000001 83  28 83  L 0 83  Z " fill-rule="nonzero" fill="#aaaaaa" stroke="none" transform="matrix(1 0 0 1 2864 1336 )" />
    <path d="M 0 83  L 0 0  L 28 0  C 36.4000000000001 0  43 6.59999999999991  43 15  L 43 68  C 43 76.4000000000001  36.4000000000001 83  28 83  L 0 83  Z " stroke-width="2" stroke="#797979" fill="none" transform="matrix(1 0 0 1 2864 1336 )" mask="url(#clip838)" />
  </g>
</svg>