<?xml version="1.0" encoding="utf-8"?>
<svg version="1.1" xmlns:xlink="http://www.w3.org/1999/xlink" width="1441px" height="2282px" xmlns="http://www.w3.org/2000/svg">
  <defs>
    <pattern id="BGPattern" patternUnits="userSpaceOnUse" alignment="0 0" imageRepeat="None" />
    <mask fill="white" id="Clip264">
      <path d="M 388 1295.7096774193546  L 270.1935483870966 1050.5483870967741  L 118.58064516129026 1118.2903225806451  L 47.428571428571566 1094.142857142857  L 0.3010752688169305 786.032258064516  L 146 276.35483870967744  L 415.35483870967755 266.67741935483866  L 539.5483870967741 119.90322580645159  L 608.9032258064517 123.7950101084516  L 626.6451612903224 0.5483870967741495  L 970.1935483870966 44.09677419354841  L 1155.6774193548385 229.58064516129036  L 1318.5806451612902 305.3870967741934  L 1431.4838709677424 498.9354838709678  L 1441 2064.5  L 821 2282  L 388 1771.2857142857142  L 388 1295.7096774193546  Z " fill-rule="evenodd" />
    </mask>
  </defs>
  <g transform="matrix(1 0 0 1 -2704 -543 )">
    <path d="M 388 1295.7096774193546  L 270.1935483870966 1050.5483870967741  L 118.58064516129026 1118.2903225806451  L 47.428571428571566 1094.142857142857  L 0.3010752688169305 786.032258064516  L 146 276.35483870967744  L 415.35483870967755 266.67741935483866  L 539.5483870967741 119.90322580645159  L 608.9032258064517 123.7950101084516  L 626.6451612903224 0.5483870967741495  L 970.1935483870966 44.09677419354841  L 1155.6774193548385 229.58064516129036  L 1318.5806451612902 305.3870967741934  L 1431.4838709677424 498.9354838709678  L 1441 2064.5  L 821 2282  L 388 1771.2857142857142  L 388 1295.7096774193546  Z " fill-rule="nonzero" fill="rgba(0, 0, 255, 1)" stroke="none" transform="matrix(1 0 0 1 2704 543 )" class="fill" />
    <path d="M 388 1295.7096774193546  L 270.1935483870966 1050.5483870967741  L 118.58064516129026 1118.2903225806451  L 47.428571428571566 1094.142857142857  L 0.3010752688169305 786.032258064516  L 146 276.35483870967744  L 415.35483870967755 266.67741935483866  L 539.5483870967741 119.90322580645159  L 608.9032258064517 123.7950101084516  L 626.6451612903224 0.5483870967741495  L 970.1935483870966 44.09677419354841  L 1155.6774193548385 229.58064516129036  L 1318.5806451612902 305.3870967741934  L 1431.4838709677424 498.9354838709678  L 1441 2064.5  L 821 2282  L 388 1771.2857142857142  L 388 1295.7096774193546  Z " stroke-width="2" stroke-dasharray="0" stroke="rgba(121, 121, 121, 1)" fill="none" transform="matrix(1 0 0 1 2704 543 )" class="stroke" mask="url(#Clip264)" />
  </g>
</svg>