<?xml version="1.0" encoding="utf-8"?>
<svg version="1.1" xmlns:xlink="http://www.w3.org/1999/xlink" width="1180px" height="1747px" xmlns="http://www.w3.org/2000/svg">
  <defs>
    <pattern id="BGPattern" patternUnits="userSpaceOnUse" alignment="0 0" imageRepeat="None" />
    <mask fill="white" id="Clip2165">
      <path d="M 0 1412.714285714286  L 14.000000000000028 158  L 139.29411764705887 138.76470588235293  L 320.4456099482255 201.08081923395423  L 554.0000000000001 158  L 671.6470588235294 0.5294117647058556  L 995.176470588235 0  L 974.9302325581397 158  L 1077.2558139534883 278.1627906976744  L 1135.3953488372092 236.3023255813954  L 1179.5813953488373 310.7209302325582  L 1005.7857142857142 398.42857142857133  L 984.3571428571427 623.4285714285713  L 923.642857142857 764.4999999999998  L 868.2857142857142 1100.2142857142856  L 638 1451.9999999999998  L 638 1575.2142857142853  L 795.0714285714284 1666.2857142857138  L 416.5 1746.6428571428573  L 193.2857142857143 1648.4285714285716  L 0 1412.714285714286  Z " fill-rule="evenodd" />
    </mask>
  </defs>
  <g transform="matrix(1 0 0 1 -46 -573 )">
    <path d="M 0 1412.714285714286  L 14.000000000000028 158  L 139.29411764705887 138.76470588235293  L 320.4456099482255 201.08081923395423  L 554.0000000000001 158  L 671.6470588235294 0.5294117647058556  L 995.176470588235 0  L 974.9302325581397 158  L 1077.2558139534883 278.1627906976744  L 1135.3953488372092 236.3023255813954  L 1179.5813953488373 310.7209302325582  L 1005.7857142857142 398.42857142857133  L 984.3571428571427 623.4285714285713  L 923.642857142857 764.4999999999998  L 868.2857142857142 1100.2142857142856  L 638 1451.9999999999998  L 638 1575.2142857142853  L 795.0714285714284 1666.2857142857138  L 416.5 1746.6428571428573  L 193.2857142857143 1648.4285714285716  L 0 1412.714285714286  Z " fill-rule="nonzero" fill="rgba(184, 116, 26, 1)" stroke="none" transform="matrix(1 0 0 1 46 573 )" class="fill" />
    <path d="M 0 1412.714285714286  L 14.000000000000028 158  L 139.29411764705887 138.76470588235293  L 320.4456099482255 201.08081923395423  L 554.0000000000001 158  L 671.6470588235294 0.5294117647058556  L 995.176470588235 0  L 974.9302325581397 158  L 1077.2558139534883 278.1627906976744  L 1135.3953488372092 236.3023255813954  L 1179.5813953488373 310.7209302325582  L 1005.7857142857142 398.42857142857133  L 984.3571428571427 623.4285714285713  L 923.642857142857 764.4999999999998  L 868.2857142857142 1100.2142857142856  L 638 1451.9999999999998  L 638 1575.2142857142853  L 795.0714285714284 1666.2857142857138  L 416.5 1746.6428571428573  L 193.2857142857143 1648.4285714285716  L 0 1412.714285714286  Z " stroke-width="2" stroke-dasharray="0" stroke="rgba(245, 154, 35, 1)" fill="none" transform="matrix(1 0 0 1 46 573 )" class="stroke" mask="url(#Clip2165)" />
  </g>
</svg>