<?xml version="1.0" encoding="utf-8"?>
<svg version="1.1" xmlns:xlink="http://www.w3.org/1999/xlink" width="2614px" height="991px" xmlns="http://www.w3.org/2000/svg">
  <defs>
    <pattern id="BGPattern" patternUnits="userSpaceOnUse" alignment="0 0" imageRepeat="None" />
    <mask fill="white" id="Clip2164">
      <path d="M 508.28571428571445 745.1428571428573  L 467.1460674157304 675.1428571428571  L 404.8955223880596 721.932584269663  L 303.10112359550556 592.7191011235955  L 324.44943820224717 438  L 0.8539325842696144 438  L 0.8539325842696144 397.2134831460676  L 251 321.932584269663  L 251.41573033707868 287.10112359550567  L 405 226.4269662921348  L 405 179.94029850746267  L 601.9104477611941 135.16417910447757  L 2014 0  L 2216.857142857143 0  L 2328.2857142857147 168  L 2296.857142857143 343.7142857142857  L 2614 428  L 2409.714285714286 675.1428571428571  L 2134 687.9999999999999  L 2051.1428571428573 990.8571428571429  L 1505.4285714285718 966.5714285714287  L 1351.1428571428573 906.5714285714284  L 1306.8571428571427 966.5714285714287  L 1229.7142857142858 919  L 1072.5714285714287 919  L 849.7142857142858 906.5714285714284  L 629.7142857142856 858.0000000000001  L 508.28571428571445 745.1428571428573  Z " fill-rule="evenodd" />
    </mask>
  </defs>
  <g transform="matrix(1 0 0 1 -716 -132 )">
    <path d="M 508.28571428571445 745.1428571428573  L 467.1460674157304 675.1428571428571  L 404.8955223880596 721.932584269663  L 303.10112359550556 592.7191011235955  L 324.44943820224717 438  L 0.8539325842696144 438  L 0.8539325842696144 397.2134831460676  L 251 321.932584269663  L 251.41573033707868 287.10112359550567  L 405 226.4269662921348  L 405 179.94029850746267  L 601.9104477611941 135.16417910447757  L 2014 0  L 2216.857142857143 0  L 2328.2857142857147 168  L 2296.857142857143 343.7142857142857  L 2614 428  L 2409.714285714286 675.1428571428571  L 2134 687.9999999999999  L 2051.1428571428573 990.8571428571429  L 1505.4285714285718 966.5714285714287  L 1351.1428571428573 906.5714285714284  L 1306.8571428571427 966.5714285714287  L 1229.7142857142858 919  L 1072.5714285714287 919  L 849.7142857142858 906.5714285714284  L 629.7142857142856 858.0000000000001  L 508.28571428571445 745.1428571428573  Z " fill-rule="nonzero" fill="rgba(2, 125, 180, 1)" stroke="none" transform="matrix(1 0 0 1 716 132 )" class="fill" />
    <path d="M 508.28571428571445 745.1428571428573  L 467.1460674157304 675.1428571428571  L 404.8955223880596 721.932584269663  L 303.10112359550556 592.7191011235955  L 324.44943820224717 438  L 0.8539325842696144 438  L 0.8539325842696144 397.2134831460676  L 251 321.932584269663  L 251.41573033707868 287.10112359550567  L 405 226.4269662921348  L 405 179.94029850746267  L 601.9104477611941 135.16417910447757  L 2014 0  L 2216.857142857143 0  L 2328.2857142857147 168  L 2296.857142857143 343.7142857142857  L 2614 428  L 2409.714285714286 675.1428571428571  L 2134 687.9999999999999  L 2051.1428571428573 990.8571428571429  L 1505.4285714285718 966.5714285714287  L 1351.1428571428573 906.5714285714284  L 1306.8571428571427 966.5714285714287  L 1229.7142857142858 919  L 1072.5714285714287 919  L 849.7142857142858 906.5714285714284  L 629.7142857142856 858.0000000000001  L 508.28571428571445 745.1428571428573  Z " stroke-width="2" stroke-dasharray="0" stroke="rgba(121, 121, 121, 1)" fill="none" transform="matrix(1 0 0 1 716 132 )" class="stroke" mask="url(#Clip2164)" />
  </g>
</svg>