<?xml version="1.0" encoding="utf-8"?>
<svg version="1.1" xmlns:xlink="http://www.w3.org/1999/xlink" width="2185px" height="822px" xmlns="http://www.w3.org/2000/svg">
  <defs>
    <pattern id="BGPattern" patternUnits="userSpaceOnUse" alignment="0 0" imageRepeat="None" />
    <mask fill="white" id="Clip265">
      <path d="M 0.45098039215690733 648.9019607843134  L 331.82352941176464 533.2156862745096  L 720.0588235294117 586.1568627450979  L 877.5045045045044 0.3063063063059417  L 1795 48  L 1867.5454545454545 110.36363636363603  L 1814.1764705882347 343.01960784313724  L 2184.7647058823527 670.4705882352941  L 2149.470588235294 809.6862745098033  L 1514.1764705882351 821.4509803921569  L 406.33333333333326 821.4509803921569  L 0.45098039215690733 648.9019607843134  Z " fill-rule="evenodd" />
    </mask>
  </defs>
  <g transform="matrix(1 0 0 1 -627 -2606 )">
    <path d="M 0.45098039215690733 648.9019607843134  L 331.82352941176464 533.2156862745096  L 720.0588235294117 586.1568627450979  L 877.5045045045044 0.3063063063059417  L 1795 48  L 1867.5454545454545 110.36363636363603  L 1814.1764705882347 343.01960784313724  L 2184.7647058823527 670.4705882352941  L 2149.470588235294 809.6862745098033  L 1514.1764705882351 821.4509803921569  L 406.33333333333326 821.4509803921569  L 0.45098039215690733 648.9019607843134  Z " fill-rule="nonzero" fill="rgba(217, 0, 27, 1)" stroke="none" transform="matrix(1 0 0 1 627 2606 )" class="fill" />
    <path d="M 0.45098039215690733 648.9019607843134  L 331.82352941176464 533.2156862745096  L 720.0588235294117 586.1568627450979  L 877.5045045045044 0.3063063063059417  L 1795 48  L 1867.5454545454545 110.36363636363603  L 1814.1764705882347 343.01960784313724  L 2184.7647058823527 670.4705882352941  L 2149.470588235294 809.6862745098033  L 1514.1764705882351 821.4509803921569  L 406.33333333333326 821.4509803921569  L 0.45098039215690733 648.9019607843134  Z " stroke-width="2" stroke-dasharray="0" stroke="rgba(121, 121, 121, 1)" fill="none" transform="matrix(1 0 0 1 627 2606 )" class="stroke" mask="url(#Clip265)" />
  </g>
</svg>