<?xml version="1.0" encoding="utf-8"?>
<svg version="1.1" xmlns:xlink="http://www.w3.org/1999/xlink" width="815px" height="486px" xmlns="http://www.w3.org/2000/svg">
  <defs>
    <pattern id="BGPattern" patternUnits="userSpaceOnUse" alignment="0 0" imageRepeat="None" />
    <mask fill="white" id="Clip268">
      <path d="M 66.58064516129025 373.0967741935483  L 13.354838709677324 331.1612903225807  L 0.4516129032258504 231.16129032258073  L 39 43  L 327.8709677419356 0.5161290322580498  L 564.9677419354839 13.41935483870975  L 814.9677419354839 123.09677419354828  L 802.0645161290322 442.45161290322585  L 734.3225806451615 486  L 526.258064516129 473.0967741935483  L 419.8064516129032 463.41935483870975  L 431.0967741935483 427.9354838709678  L 373.0322580645161 403.7419354838712  L 327.8709677419356 455  L 224.64516129032265 455  L 66.58064516129025 373.0967741935483  Z " fill-rule="evenodd" />
    </mask>
  </defs>
  <g transform="matrix(1 0 0 1 -1506 -1714 )">
    <path d="M 66.58064516129025 373.0967741935483  L 13.354838709677324 331.1612903225807  L 0.4516129032258504 231.16129032258073  L 39 43  L 327.8709677419356 0.5161290322580498  L 564.9677419354839 13.41935483870975  L 814.9677419354839 123.09677419354828  L 802.0645161290322 442.45161290322585  L 734.3225806451615 486  L 526.258064516129 473.0967741935483  L 419.8064516129032 463.41935483870975  L 431.0967741935483 427.9354838709678  L 373.0322580645161 403.7419354838712  L 327.8709677419356 455  L 224.64516129032265 455  L 66.58064516129025 373.0967741935483  Z " fill-rule="nonzero" fill="rgba(255, 255, 255, 1)" stroke="none" transform="matrix(1 0 0 1 1506 1714 )" class="fill" />
    <path d="M 66.58064516129025 373.0967741935483  L 13.354838709677324 331.1612903225807  L 0.4516129032258504 231.16129032258073  L 39 43  L 327.8709677419356 0.5161290322580498  L 564.9677419354839 13.41935483870975  L 814.9677419354839 123.09677419354828  L 802.0645161290322 442.45161290322585  L 734.3225806451615 486  L 526.258064516129 473.0967741935483  L 419.8064516129032 463.41935483870975  L 431.0967741935483 427.9354838709678  L 373.0322580645161 403.7419354838712  L 327.8709677419356 455  L 224.64516129032265 455  L 66.58064516129025 373.0967741935483  Z " stroke-width="2" stroke-dasharray="0" stroke="rgba(121, 121, 121, 1)" fill="none" transform="matrix(1 0 0 1 1506 1714 )" class="stroke" mask="url(#Clip268)" />
  </g>
</svg>