<?xml version="1.0" encoding="utf-8"?>
<svg version="1.1" xmlns:xlink="http://www.w3.org/1999/xlink" width="1225px" height="1679px" xmlns="http://www.w3.org/2000/svg">
  <defs>
    <pattern id="BGPattern" patternUnits="userSpaceOnUse" alignment="0 0" imageRepeat="None" />
    <mask fill="white" id="Clip270">
      <path d="M 0.6923076923076223 1583.5384615384614  L 13 1078.9230769230767  L 74.53846153846143 1102  L 59.15384615384619 1135.8461538461538  L 371.46153846153857 1162  L 437.61538461538476 1122  L 454.53846153846143 798.2903225806451  L 197.81481481481478 689.6923076923076  L 86.84615384615381 680.4615384615383  L 145.96296296296282 56.44444444444434  L 197.81481481481478 0.888888888888914  L 355.2222222222222 56.44444444444434  L 898.3225806451615 84.58064516129025  L 837.032258064516 291.8387096774193  L 887.8387096774195 600.7096774193549  L 955.5806451612907 616.8387096774193  L 1108.8064516129034 553.9354838709678  L 1225 798.2903225806451  L 1088.3846153846152 968.1538461538462  L 1020.6923076923076 903.5384615384614  L 782.2307692307692 1152.7692307692305  L 689.9230769230766 1362  L 620.6923076923076 1678.9230769230767  L 553 1614.3076923076924  L 0.6923076923076223 1583.5384615384614  Z " fill-rule="evenodd" />
    </mask>
  </defs>
  <g transform="matrix(1 0 0 1 -1867 -1038 )">
    <path d="M 0.6923076923076223 1583.5384615384614  L 13 1078.9230769230767  L 74.53846153846143 1102  L 59.15384615384619 1135.8461538461538  L 371.46153846153857 1162  L 437.61538461538476 1122  L 454.53846153846143 798.2903225806451  L 197.81481481481478 689.6923076923076  L 86.84615384615381 680.4615384615383  L 145.96296296296282 56.44444444444434  L 197.81481481481478 0.888888888888914  L 355.2222222222222 56.44444444444434  L 898.3225806451615 84.58064516129025  L 837.032258064516 291.8387096774193  L 887.8387096774195 600.7096774193549  L 955.5806451612907 616.8387096774193  L 1108.8064516129034 553.9354838709678  L 1225 798.2903225806451  L 1088.3846153846152 968.1538461538462  L 1020.6923076923076 903.5384615384614  L 782.2307692307692 1152.7692307692305  L 689.9230769230766 1362  L 620.6923076923076 1678.9230769230767  L 553 1614.3076923076924  L 0.6923076923076223 1583.5384615384614  Z " fill-rule="nonzero" fill="rgba(0, 255, 255, 1)" stroke="none" transform="matrix(1 0 0 1 1867 1038 )" class="fill" />
    <path d="M 0.6923076923076223 1583.5384615384614  L 13 1078.9230769230767  L 74.53846153846143 1102  L 59.15384615384619 1135.8461538461538  L 371.46153846153857 1162  L 437.61538461538476 1122  L 454.53846153846143 798.2903225806451  L 197.81481481481478 689.6923076923076  L 86.84615384615381 680.4615384615383  L 145.96296296296282 56.44444444444434  L 197.81481481481478 0.888888888888914  L 355.2222222222222 56.44444444444434  L 898.3225806451615 84.58064516129025  L 837.032258064516 291.8387096774193  L 887.8387096774195 600.7096774193549  L 955.5806451612907 616.8387096774193  L 1108.8064516129034 553.9354838709678  L 1225 798.2903225806451  L 1088.3846153846152 968.1538461538462  L 1020.6923076923076 903.5384615384614  L 782.2307692307692 1152.7692307692305  L 689.9230769230766 1362  L 620.6923076923076 1678.9230769230767  L 553 1614.3076923076924  L 0.6923076923076223 1583.5384615384614  Z " stroke-width="2" stroke-dasharray="0" stroke="rgba(121, 121, 121, 1)" fill="none" transform="matrix(1 0 0 1 1867 1038 )" class="stroke" mask="url(#Clip270)" />
  </g>
</svg>