<?xml version="1.0" encoding="utf-8"?>
<svg version="1.1" xmlns:xlink="http://www.w3.org/1999/xlink" width="1413px" height="1292px" xmlns="http://www.w3.org/2000/svg">
  <defs>
    <pattern id="BGPattern" patternUnits="userSpaceOnUse" alignment="0 0" imageRepeat="None" />
    <mask fill="white" id="Clip267">
      <path d="M 0.7857142857142776 1291.071428571429  L 0.7857142857142776 0  L 179.3571428571429 217.85714285714332  L 407.92857142857144 323.21428571428544  L 790.6666666666665 235.0000000000002  L 1059 584.9999999999997  L 1412.157894736842 760.2409638554219  L 1299 1185  L 910.4457831325301 1138.5542168674701  L 582.734939759036 1251.807228915663  L 329.7228915662652 1202.409638554217  L 0.7857142857142776 1291.071428571429  Z " fill-rule="evenodd" />
    </mask>
  </defs>
  <g transform="matrix(1 0 0 1 -51 -2000 )">
    <path d="M 0.7857142857142776 1291.071428571429  L 0.7857142857142776 0  L 179.3571428571429 217.85714285714332  L 407.92857142857144 323.21428571428544  L 790.6666666666665 235.0000000000002  L 1059 584.9999999999997  L 1412.157894736842 760.2409638554219  L 1299 1185  L 910.4457831325301 1138.5542168674701  L 582.734939759036 1251.807228915663  L 329.7228915662652 1202.409638554217  L 0.7857142857142776 1291.071428571429  Z " fill-rule="nonzero" fill="rgba(255, 255, 255, 1)" stroke="none" transform="matrix(1 0 0 1 51 2000 )" class="fill" />
    <path d="M 0.7857142857142776 1291.071428571429  L 0.7857142857142776 0  L 179.3571428571429 217.85714285714332  L 407.92857142857144 323.21428571428544  L 790.6666666666665 235.0000000000002  L 1059 584.9999999999997  L 1412.157894736842 760.2409638554219  L 1299 1185  L 910.4457831325301 1138.5542168674701  L 582.734939759036 1251.807228915663  L 329.7228915662652 1202.409638554217  L 0.7857142857142776 1291.071428571429  Z " stroke-width="2" stroke-dasharray="0" stroke="rgba(121, 121, 121, 1)" fill="none" transform="matrix(1 0 0 1 51 2000 )" class="stroke" mask="url(#Clip267)" />
  </g>
</svg>