<?xml version="1.0" encoding="utf-8"?>
<svg version="1.1" xmlns:xlink="http://www.w3.org/1999/xlink" width="1695px" height="1594px" xmlns="http://www.w3.org/2000/svg">
  <defs>
    <pattern id="BGPattern" patternUnits="userSpaceOnUse" alignment="0 0" imageRepeat="None" />
    <mask fill="white" id="Clip266">
      <path d="M 0.42553191489378145 1106.6808510638298  L 113.19148936170221 568.3829787234044  L 203.18181818181802 350.6363636363635  L 446.36363636363654 105.18181818181823  L 514.5454545454545 164.27272727272725  L 651 0.6363636363637397  L 651 484.8571428571431  L 1089.268292682927 983.9512195121947  L 1694.2857142857147 779.1428571428573  L 1694.2857142857147 1296.2857142857142  L 1325.8536585365855 1576.6341463414637  L 764.8780487804875 1593.7073170731705  L 338.04878048780483 1576.6341463414637  L 372.76595744680844 1440.723404255319  L 0.42553191489378145 1106.6808510638298  Z " fill-rule="evenodd" />
    </mask>
  </defs>
  <g transform="matrix(1 0 0 1 -2440 -1838 )">
    <path d="M 0.42553191489378145 1106.6808510638298  L 113.19148936170221 568.3829787234044  L 203.18181818181802 350.6363636363635  L 446.36363636363654 105.18181818181823  L 514.5454545454545 164.27272727272725  L 651 0.6363636363637397  L 651 484.8571428571431  L 1089.268292682927 983.9512195121947  L 1694.2857142857147 779.1428571428573  L 1694.2857142857147 1296.2857142857142  L 1325.8536585365855 1576.6341463414637  L 764.8780487804875 1593.7073170731705  L 338.04878048780483 1576.6341463414637  L 372.76595744680844 1440.723404255319  L 0.42553191489378145 1106.6808510638298  Z " fill-rule="nonzero" fill="rgba(149, 242, 4, 1)" stroke="none" transform="matrix(1 0 0 1 2440 1838 )" class="fill" />
    <path d="M 0.42553191489378145 1106.6808510638298  L 113.19148936170221 568.3829787234044  L 203.18181818181802 350.6363636363635  L 446.36363636363654 105.18181818181823  L 514.5454545454545 164.27272727272725  L 651 0.6363636363637397  L 651 484.8571428571431  L 1089.268292682927 983.9512195121947  L 1694.2857142857147 779.1428571428573  L 1694.2857142857147 1296.2857142857142  L 1325.8536585365855 1576.6341463414637  L 764.8780487804875 1593.7073170731705  L 338.04878048780483 1576.6341463414637  L 372.76595744680844 1440.723404255319  L 0.42553191489378145 1106.6808510638298  Z " stroke-width="2" stroke-dasharray="0" stroke="rgba(121, 121, 121, 1)" fill="none" transform="matrix(1 0 0 1 2440 1838 )" class="stroke" mask="url(#Clip266)" />
  </g>
</svg>