<?xml version="1.0" encoding="utf-8"?>
<svg version="1.1" xmlns:xlink="http://www.w3.org/1999/xlink" width="1336px" height="1872px" xmlns="http://www.w3.org/2000/svg">
  <defs>
    <pattern id="BGPattern" patternUnits="userSpaceOnUse" alignment="0 0" imageRepeat="None" />
    <mask fill="white" id="Clip269">
      <path d="M 427.6153846153845 1692.6923076923076  L 154.53846153846155 1344.6153846153848  L 0.6923076923076223 1256.1538461538462  L 0.6923076923076223 1129.230769230769  L 227.61538461538453 786.9230769230769  L 289.1538461538461 448.46153846153834  L 348.7692307692308 308.0769230769231  L 361.33333333333326 86.66666666666652  L 544.6666666666667 0  L 659.0714285714284 95.71428571428567  L 869.7857142857142 142.1428571428571  L 1259.0714285714284 160  L 1335.8571428571427 204.6428571428571  L 1273.6797733675853 832.2685397550945  L 1150.967032967033 825.384615384615  L 864.1538461538462 864.9450549450548  L 823 1052.857142857143  L 835.5824175824173 1150.6593406593404  L 891.6263736263734 1201.2087912087914  L 1047.6703296703295 1278  L 1150.967032967033 1278  L 1197.1208791208787 1229.7802197802202  L 1184.0714285714284 1736.7857142857142  L 823 1718  L 781 1872  L 427.6153846153845 1692.6923076923076  Z " fill-rule="evenodd" />
    </mask>
  </defs>
  <g transform="matrix(1 0 0 1 -682 -890 )">
    <path d="M 427.6153846153845 1692.6923076923076  L 154.53846153846155 1344.6153846153848  L 0.6923076923076223 1256.1538461538462  L 0.6923076923076223 1129.230769230769  L 227.61538461538453 786.9230769230769  L 289.1538461538461 448.46153846153834  L 348.7692307692308 308.0769230769231  L 361.33333333333326 86.66666666666652  L 544.6666666666667 0  L 659.0714285714284 95.71428571428567  L 869.7857142857142 142.1428571428571  L 1259.0714285714284 160  L 1335.8571428571427 204.6428571428571  L 1273.6797733675853 832.2685397550945  L 1150.967032967033 825.384615384615  L 864.1538461538462 864.9450549450548  L 823 1052.857142857143  L 835.5824175824173 1150.6593406593404  L 891.6263736263734 1201.2087912087914  L 1047.6703296703295 1278  L 1150.967032967033 1278  L 1197.1208791208787 1229.7802197802202  L 1184.0714285714284 1736.7857142857142  L 823 1718  L 781 1872  L 427.6153846153845 1692.6923076923076  Z " fill-rule="nonzero" fill="rgba(255, 255, 0, 0.38823529411764707)" stroke="none" transform="matrix(1 0 0 1 682 890 )" class="fill" />
    <path d="M 427.6153846153845 1692.6923076923076  L 154.53846153846155 1344.6153846153848  L 0.6923076923076223 1256.1538461538462  L 0.6923076923076223 1129.230769230769  L 227.61538461538453 786.9230769230769  L 289.1538461538461 448.46153846153834  L 348.7692307692308 308.0769230769231  L 361.33333333333326 86.66666666666652  L 544.6666666666667 0  L 659.0714285714284 95.71428571428567  L 869.7857142857142 142.1428571428571  L 1259.0714285714284 160  L 1335.8571428571427 204.6428571428571  L 1273.6797733675853 832.2685397550945  L 1150.967032967033 825.384615384615  L 864.1538461538462 864.9450549450548  L 823 1052.857142857143  L 835.5824175824173 1150.6593406593404  L 891.6263736263734 1201.2087912087914  L 1047.6703296703295 1278  L 1150.967032967033 1278  L 1197.1208791208787 1229.7802197802202  L 1184.0714285714284 1736.7857142857142  L 823 1718  L 781 1872  L 427.6153846153845 1692.6923076923076  Z " stroke-width="2" stroke-dasharray="0" stroke="rgba(121, 121, 121, 1)" fill="none" transform="matrix(1 0 0 1 682 890 )" class="stroke" mask="url(#Clip269)" />
  </g>
</svg>