<?xml version="1.0" encoding="utf-8"?>
<svg version="1.1" xmlns:xlink="http://www.w3.org/1999/xlink" width="578px" height="662px" xmlns="http://www.w3.org/2000/svg">
  <defs>
    <pattern id="BGPattern" patternUnits="userSpaceOnUse" alignment="0 0" imageRepeat="None" />
    <mask fill="white" id="Clip2170">
      <path d="M 0 662  L 0 0  L 215.82978723404258 143.12765957446845  L 577.5319148936171 528.2340425531916  L 369.0212765957447 477.17021276595773  L 288.17021276595744 662  L 0 662  Z " fill-rule="evenodd" />
    </mask>
  </defs>
  <g transform="matrix(1 0 0 1 -48 -2759 )">
    <path d="M 0 662  L 0 0  L 215.82978723404258 143.12765957446845  L 577.5319148936171 528.2340425531916  L 369.0212765957447 477.17021276595773  L 288.17021276595744 662  L 0 662  Z " fill-rule="nonzero" fill="rgba(245, 154, 35, 1)" stroke="none" transform="matrix(1 0 0 1 48 2759 )" class="fill" />
    <path d="M 0 662  L 0 0  L 215.82978723404258 143.12765957446845  L 577.5319148936171 528.2340425531916  L 369.0212765957447 477.17021276595773  L 288.17021276595744 662  L 0 662  Z " stroke-width="0" stroke-dasharray="0" stroke="rgba(121, 121, 121, 1)" fill="none" transform="matrix(1 0 0 1 48 2759 )" class="stroke" mask="url(#Clip2170)" />
  </g>
</svg>