<?xml version="1.0" encoding="utf-8"?>
<svg version="1.1" xmlns:xlink="http://www.w3.org/1999/xlink" width="676px" height="1071px" xmlns="http://www.w3.org/2000/svg">
  <defs>
    <pattern id="BGPattern" patternUnits="userSpaceOnUse" alignment="0 0" imageRepeat="None" />
    <mask fill="white" id="Clip2171">
      <path d="M 215.63636363636363 914.8181818181811  L 0 771.181818181818  L 0 0.7192982456142545  L 185.33333333333334 230.54385964912353  L 411.64912280701765 337.56140350877195  L 323.92982456140356 548.0877192982457  L 675.404255319149 793.8510638297876  L 362.126582278481 1071  L 215.63636363636363 914.8181818181811  Z " fill-rule="evenodd" />
    </mask>
  </defs>
  <g transform="matrix(1 0 0 1 -48 -1987 )">
    <path d="M 215.63636363636363 914.8181818181811  L 0 771.181818181818  L 0 0.7192982456142545  L 185.33333333333334 230.54385964912353  L 411.64912280701765 337.56140350877195  L 323.92982456140356 548.0877192982457  L 675.404255319149 793.8510638297876  L 362.126582278481 1071  L 215.63636363636363 914.8181818181811  Z " fill-rule="nonzero" fill="rgba(245, 154, 35, 1)" stroke="none" transform="matrix(1 0 0 1 48 1987 )" class="fill" />
    <path d="M 215.63636363636363 914.8181818181811  L 0 771.181818181818  L 0 0.7192982456142545  L 185.33333333333334 230.54385964912353  L 411.64912280701765 337.56140350877195  L 323.92982456140356 548.0877192982457  L 675.404255319149 793.8510638297876  L 362.126582278481 1071  L 215.63636363636363 914.8181818181811  Z " stroke-width="0" stroke-dasharray="0" stroke="rgba(121, 121, 121, 1)" fill="none" transform="matrix(1 0 0 1 48 1987 )" class="stroke" mask="url(#Clip2171)" />
  </g>
</svg>