<?xml version="1.0" encoding="utf-8"?>
<svg version="1.1" xmlns:xlink="http://www.w3.org/1999/xlink" width="118px" height="118px" xmlns="http://www.w3.org/2000/svg">
  <defs>
    <pattern id="BGPattern" patternUnits="userSpaceOnUse" alignment="0 0" imageRepeat="None" />
    <mask fill="white" id="Clip511">
      <path d="M 0 59  C 0 25.959999999999997  25.959999999999997 0  59 0  C 92.04 0  118 25.959999999999997  118 59  C 118 92.04  92.04 118  59 118  C 25.959999999999997 118  0 92.04  0 59  Z " fill-rule="evenodd" />
    </mask>
  </defs>
  <g transform="matrix(1 0 0 1 -1295 -845 )">
    <path d="M 0 59  C 0 25.959999999999997  25.959999999999997 0  59 0  C 92.04 0  118 25.959999999999997  118 59  C 118 92.04  92.04 118  59 118  C 25.959999999999997 118  0 92.04  0 59  Z " fill-rule="nonzero" fill="rgba(255, 255, 255, 1)" stroke="none" transform="matrix(1 0 0 1 1295 845 )" class="fill" />
    <path d="M 0 59  C 0 25.959999999999997  25.959999999999997 0  59 0  C 92.04 0  118 25.959999999999997  118 59  C 118 92.04  92.04 118  59 118  C 25.959999999999997 118  0 92.04  0 59  Z " stroke-width="2" stroke-dasharray="0" stroke="rgba(121, 121, 121, 1)" fill="none" transform="matrix(1 0 0 1 1295 845 )" class="stroke" mask="url(#Clip511)" />
  </g>
</svg>