<?xml version="1.0" encoding="utf-8"?>
<svg version="1.1" xmlns:xlink="http://www.w3.org/1999/xlink" width="118px" height="118px" xmlns="http://www.w3.org/2000/svg">
  <g transform="matrix(1 0 0 1 -1295 -845 )">
    <path d="M 1354 845  C 1387.04 845  1413 870.96  1413 904  C 1413 937.04  1387.04 963  1354 963  C 1320.96 963  1295 937.04  1295 904  C 1295 870.96  1320.96 845  1354 845  Z " fill-rule="nonzero" fill="#ffffff" stroke="none" />
    <path d="M 1354 845.5  C 1386.76 845.5  1412.5 871.24  1412.5 904  C 1412.5 936.76  1386.76 962.5  1354 962.5  C 1321.24 962.5  1295.5 936.76  1295.5 904  C 1295.5 871.24  1321.24 845.5  1354 845.5  Z " stroke-width="1" stroke="#797979" fill="none" />
  </g>
</svg>