<?xml version="1.0" encoding="utf-8"?>
<svg version="1.1" xmlns:xlink="http://www.w3.org/1999/xlink" width="88px" height="88px" xmlns="http://www.w3.org/2000/svg">
  <defs>
    <pattern id="BGPattern" patternUnits="userSpaceOnUse" alignment="0 0" imageRepeat="None" />
    <mask fill="white" id="Clip513">
      <path d="M 0 44  C 0 19.36  19.36 0  44 0  C 68.64 0  88 19.36  88 44  C 88 68.64  68.64 88  44 88  C 19.36 88  0 68.64  0 44  Z " fill-rule="evenodd" />
    </mask>
  </defs>
  <g transform="matrix(1 0 0 1 -2353 -1134 )">
    <path d="M 0 44  C 0 19.36  19.36 0  44 0  C 68.64 0  88 19.36  88 44  C 88 68.64  68.64 88  44 88  C 19.36 88  0 68.64  0 44  Z " fill-rule="nonzero" fill="rgba(255, 255, 255, 1)" stroke="none" transform="matrix(1 0 0 1 2353 1134 )" class="fill" />
    <path d="M 0 44  C 0 19.36  19.36 0  44 0  C 68.64 0  88 19.36  88 44  C 88 68.64  68.64 88  44 88  C 19.36 88  0 68.64  0 44  Z " stroke-width="2" stroke-dasharray="0" stroke="rgba(121, 121, 121, 1)" fill="none" transform="matrix(1 0 0 1 2353 1134 )" class="stroke" mask="url(#Clip513)" />
  </g>
</svg>