<?xml version="1.0" encoding="utf-8"?>
<svg version="1.1" xmlns:xlink="http://www.w3.org/1999/xlink" width="225px" height="225px" xmlns="http://www.w3.org/2000/svg">
  <defs>
    <pattern id="BGPattern" patternUnits="userSpaceOnUse" alignment="0 0" imageRepeat="None" />
    <mask fill="white" id="Clip514">
      <path d="M 0 112.5  C 0 49.49999999999999  49.49999999999999 0  112.5 0  C 175.5 0  225 49.49999999999999  225 112.5  C 225 175.5  175.5 225  112.5 225  C 49.49999999999999 225  0 175.5  0 112.5  Z " fill-rule="evenodd" />
    </mask>
  </defs>
  <g transform="matrix(1 0 0 1 -1757 -4920 )">
    <path d="M 0 112.5  C 0 49.49999999999999  49.49999999999999 0  112.5 0  C 175.5 0  225 49.49999999999999  225 112.5  C 225 175.5  175.5 225  112.5 225  C 49.49999999999999 225  0 175.5  0 112.5  Z " fill-rule="nonzero" fill="rgba(255, 255, 255, 1)" stroke="none" transform="matrix(1 0 0 1 1757 4920 )" class="fill" />
    <path d="M 0 112.5  C 0 49.49999999999999  49.49999999999999 0  112.5 0  C 175.5 0  225 49.49999999999999  225 112.5  C 225 175.5  175.5 225  112.5 225  C 49.49999999999999 225  0 175.5  0 112.5  Z " stroke-width="2" stroke-dasharray="0" stroke="rgba(121, 121, 121, 1)" fill="none" transform="matrix(1 0 0 1 1757 4920 )" class="stroke" mask="url(#Clip514)" />
  </g>
</svg>