<?xml version="1.0" encoding="utf-8"?>
<svg version="1.1" xmlns:xlink="http://www.w3.org/1999/xlink" width="225px" height="225px" xmlns="http://www.w3.org/2000/svg">
  <g transform="matrix(1 0 0 1 -1757 -4920 )">
    <path d="M 1869.5 4920  C 1932.5 4920  1982 4969.5  1982 5032.5  C 1982 5095.5  1932.5 5145  1869.5 5145  C 1806.5 5145  1757 5095.5  1757 5032.5  C 1757 4969.5  1806.5 4920  1869.5 4920  Z " fill-rule="nonzero" fill="#ffffff" stroke="none" />
    <path d="M 1869.5 4920.5  C 1932.22 4920.5  1981.5 4969.78  1981.5 5032.5  C 1981.5 5095.22  1932.22 5144.5  1869.5 5144.5  C 1806.78 5144.5  1757.5 5095.22  1757.5 5032.5  C 1757.5 4969.78  1806.78 4920.5  1869.5 4920.5  Z " stroke-width="1" stroke="#797979" fill="none" />
  </g>
</svg>