<?xml version="1.0" encoding="utf-8"?>
<svg version="1.1" xmlns:xlink="http://www.w3.org/1999/xlink" width="82px" height="82px" xmlns="http://www.w3.org/2000/svg">
  <g transform="matrix(1 0 0 1 -1392 -339 )">
    <path d="M 1433 340  C 1455.4 340  1473 357.6  1473 380  C 1473 402.4  1455.4 420  1433 420  C 1410.6 420  1393 402.4  1393 380  C 1393 357.6  1410.6 340  1433 340  Z " fill-rule="nonzero" fill="#ffffff" stroke="none" fill-opacity="0" />
    <path d="M 1433 340  C 1455.4 340  1473 357.6  1473 380  C 1473 402.4  1455.4 420  1433 420  C 1410.6 420  1393 402.4  1393 380  C 1393 357.6  1410.6 340  1433 340  Z " stroke-width="2" stroke="#555555" fill="none" />
  </g>
</svg>