<?xml version="1.0" encoding="utf-8"?>
<svg version="1.1" xmlns:xlink="http://www.w3.org/1999/xlink" width="68px" height="68px" xmlns="http://www.w3.org/2000/svg">
  <defs>
    <pattern id="BGPattern" patternUnits="userSpaceOnUse" alignment="0 0" imageRepeat="None" />
    <mask fill="white" id="Clip337">
      <path d="M 0 34  C 0 14.959999999999997  14.959999999999997 0  34 0  C 53.04 0  68 14.959999999999997  68 34  C 68 53.04  53.04 68  34 68  C 14.959999999999997 68  0 53.04  0 34  Z " fill-rule="evenodd" />
    </mask>
  </defs>
  <g transform="matrix(1 0 0 1 -256 -806 )">
    <path d="M 0 34  C 0 14.959999999999997  14.959999999999997 0  34 0  C 53.04 0  68 14.959999999999997  68 34  C 68 53.04  53.04 68  34 68  C 14.959999999999997 68  0 53.04  0 34  Z " fill-rule="nonzero" fill="rgba(170, 170, 170, 1)" stroke="none" transform="matrix(1 0 0 1 256 806 )" class="fill" />
    <path d="M 0 34  C 0 14.959999999999997  14.959999999999997 0  34 0  C 53.04 0  68 14.959999999999997  68 34  C 68 53.04  53.04 68  34 68  C 14.959999999999997 68  0 53.04  0 34  Z " stroke-width="0" stroke-dasharray="0" stroke="rgba(121, 121, 121, 1)" fill="none" transform="matrix(1 0 0 1 256 806 )" class="stroke" mask="url(#Clip337)" />
  </g>
</svg>