<?xml version="1.0" encoding="utf-8"?>
<svg version="1.1" xmlns:xlink="http://www.w3.org/1999/xlink" width="126px" height="126px" xmlns="http://www.w3.org/2000/svg">
  <defs>
    <pattern id="BGPattern" patternUnits="userSpaceOnUse" alignment="0 0" imageRepeat="None" />
    <mask fill="white" id="Clip484">
      <path d="M 0 58  C 0 25.519999999999996  25.519999999999996 0  58 0  C 90.48 0  116 25.519999999999996  116 58  C 116 90.48  90.48 116  58 116  C 25.519999999999996 116  0 90.48  0 58  Z " fill-rule="evenodd" />
    </mask>
  </defs>
  <g transform="matrix(1 0 0 1 -47 -2934 )">
    <path d="M 0 58  C 0 25.519999999999996  25.519999999999996 0  58 0  C 90.48 0  116 25.519999999999996  116 58  C 116 90.48  90.48 116  58 116  C 25.519999999999996 116  0 90.48  0 58  Z " fill-rule="nonzero" fill="rgba(215, 215, 215, 1)" stroke="none" transform="matrix(1 0 0 1 47 2934 )" class="fill" />
    <path d="M 0 58  C 0 25.519999999999996  25.519999999999996 0  58 0  C 90.48 0  116 25.519999999999996  116 58  C 116 90.48  90.48 116  58 116  C 25.519999999999996 116  0 90.48  0 58  Z " stroke-width="4" stroke-dasharray="0" stroke="rgba(0, 0, 0, 1)" fill="none" transform="matrix(1 0 0 1 47 2934 )" class="stroke" mask="url(#Clip484)" />
  </g>
  <style>svg { filter: drop-shadow(5px 5px 2.5px rgba(0, 0, 0, 0.34901960784313724)); }</style>
</svg>