<?xml version="1.0" encoding="utf-8"?>
<svg version="1.1" xmlns:xlink="http://www.w3.org/1999/xlink" width="126px" height="126px" xmlns="http://www.w3.org/2000/svg">
  <defs>
    <filter x="47px" y="2934px" width="126px" height="126px" filterUnits="userSpaceOnUse" id="filter534">
      <feOffset dx="5" dy="5" in="SourceAlpha" result="shadowOffsetInner" />
      <feGaussianBlur stdDeviation="2.5" in="shadowOffsetInner" result="shadowGaussian" />
      <feComposite in2="shadowGaussian" operator="atop" in="SourceAlpha" result="shadowComposite" />
      <feColorMatrix type="matrix" values="0 0 0 0 0  0 0 0 0 0  0 0 0 0 0  0 0 0 0.349019607843137 0  " in="shadowComposite" />
    </filter>
    <g id="widget535">
      <path d="M 105 2935  C 136.92 2935  162 2960.08  162 2992  C 162 3023.92  136.92 3049  105 3049  C 73.08 3049  48 3023.92  48 2992  C 48 2960.08  73.08 2935  105 2935  Z " fill-rule="nonzero" fill="#d7d7d7" stroke="none" />
      <path d="M 105 2935  C 136.92 2935  162 2960.08  162 2992  C 162 3023.92  136.92 3049  105 3049  C 73.08 3049  48 3023.92  48 2992  C 48 2960.08  73.08 2935  105 2935  Z " stroke-width="2" stroke="#000000" fill="none" />
    </g>
  </defs>
  <g transform="matrix(1 0 0 1 -47 -2934 )">
    <use xlink:href="#widget535" filter="url(#filter534)" />
    <use xlink:href="#widget535" />
  </g>
</svg>