<?xml version="1.0" encoding="utf-8"?>
<svg version="1.1" xmlns:xlink="http://www.w3.org/1999/xlink" width="95px" height="95px" xmlns="http://www.w3.org/2000/svg">
  <defs>
    <pattern id="BGPattern" patternUnits="userSpaceOnUse" alignment="0 0" imageRepeat="None" />
    <mask fill="white" id="Clip497">
      <path d="M 0 47.5  C 0 20.9  20.9 0  47.5 0  C 74.10000000000001 0  95 20.9  95 47.5  C 95 74.10000000000001  74.10000000000001 95  47.5 95  C 20.9 95  0 74.10000000000001  0 47.5  Z " fill-rule="evenodd" />
    </mask>
  </defs>
  <g transform="matrix(1 0 0 1 -1300 -2336 )">
    <path d="M 0 47.5  C 0 20.9  20.9 0  47.5 0  C 74.10000000000001 0  95 20.9  95 47.5  C 95 74.10000000000001  74.10000000000001 95  47.5 95  C 20.9 95  0 74.10000000000001  0 47.5  Z " fill-rule="nonzero" fill="rgba(170, 170, 170, 1)" stroke="none" transform="matrix(1 0 0 1 1300 2336 )" class="fill" />
    <path d="M 0 47.5  C 0 20.9  20.9 0  47.5 0  C 74.10000000000001 0  95 20.9  95 47.5  C 95 74.10000000000001  74.10000000000001 95  47.5 95  C 20.9 95  0 74.10000000000001  0 47.5  Z " stroke-width="0" stroke-dasharray="0" stroke="rgba(121, 121, 121, 1)" fill="none" transform="matrix(1 0 0 1 1300 2336 )" class="stroke" mask="url(#Clip497)" />
  </g>
</svg>