<?xml version="1.0" encoding="utf-8"?>
<svg version="1.1" xmlns:xlink="http://www.w3.org/1999/xlink" width="89px" height="89px" xmlns="http://www.w3.org/2000/svg">
  <g transform="matrix(1 0 0 1 -6709 -1442 )">
    <path d="M 6753.5 1442  C 6778.42 1442  6798 1461.58  6798 1486.5  C 6798 1511.42  6778.42 1531  6753.5 1531  C 6728.58 1531  6709 1511.42  6709 1486.5  C 6709 1461.58  6728.58 1442  6753.5 1442  Z " fill-rule="nonzero" fill="#d9001b" stroke="none" />
    <path d="M 6753.5 1442.5  C 6778.14 1442.5  6797.5 1461.86  6797.5 1486.5  C 6797.5 1511.14  6778.14 1530.5  6753.5 1530.5  C 6728.86 1530.5  6709.5 1511.14  6709.5 1486.5  C 6709.5 1461.86  6728.86 1442.5  6753.5 1442.5  Z " stroke-width="1" stroke="#797979" fill="none" />
  </g>
</svg>