<?xml version="1.0" encoding="utf-8"?>
<svg version="1.1" xmlns:xlink="http://www.w3.org/1999/xlink" width="412px" height="294px" xmlns="http://www.w3.org/2000/svg">
  <defs>
    <pattern id="BGPattern" patternUnits="userSpaceOnUse" alignment="0 0" imageRepeat="None" />
    <mask fill="white" id="Clip507">
      <path d="M 0.860215053763568 87.77419354838685  L 25.591397849461828 0.6774193548385482  L 365 37.23655913978473  L 365 53.36559139784913  L 411.6129032258059 78.0967741935483  L 384 132.9354838709678  L 384 251.21505376344066  L 87.95698924731187 293.15053763440847  L 79.3548387096771 123.2580645161288  L 59.99999999999999 66.26881720430083  L 0.860215053763568 87.77419354838685  Z " fill-rule="evenodd" />
    </mask>
  </defs>
  <g transform="matrix(1 0 0 1 -5740 -2709 )">
    <path d="M 0.860215053763568 87.77419354838685  L 25.591397849461828 0.6774193548385482  L 365 37.23655913978473  L 365 53.36559139784913  L 411.6129032258059 78.0967741935483  L 384 132.9354838709678  L 384 251.21505376344066  L 87.95698924731187 293.15053763440847  L 79.3548387096771 123.2580645161288  L 59.99999999999999 66.26881720430083  L 0.860215053763568 87.77419354838685  Z " fill-rule="nonzero" fill="rgba(255, 255, 255, 0)" stroke="none" transform="matrix(1 0 0 1 5740 2709 )" class="fill" />
    <path d="M 0.860215053763568 87.77419354838685  L 25.591397849461828 0.6774193548385482  L 365 37.23655913978473  L 365 53.36559139784913  L 411.6129032258059 78.0967741935483  L 384 132.9354838709678  L 384 251.21505376344066  L 87.95698924731187 293.15053763440847  L 79.3548387096771 123.2580645161288  L 59.99999999999999 66.26881720430083  L 0.860215053763568 87.77419354838685  Z " stroke-width="4" stroke-dasharray="0" stroke="rgba(245, 154, 35, 1)" fill="none" transform="matrix(1 0 0 1 5740 2709 )" class="stroke" mask="url(#Clip507)" />
  </g>
</svg>