<?xml version="1.0" encoding="utf-8"?>
<svg version="1.1" xmlns:xlink="http://www.w3.org/1999/xlink" width="412px" height="294px" xmlns="http://www.w3.org/2000/svg">
  <defs>
    <mask fill="white" id="clip955">
      <path d="M 0.860215053763568 87.7741935483868  L 25.5913978494618 0.677419354838548  L 365 37.2365591397847  L 365 53.3655913978491  L 411.612903225806 78.0967741935483  L 384 132.935483870968  L 384 251.215053763441  L 87.9569892473119 293.150537634408  L 79.3548387096771 123.258064516129  L 60 66.2688172043008  L 0.860215053763568 87.7741935483868  Z " fill-rule="evenodd" />
    </mask>
  </defs>
  <g transform="matrix(1 0 0 1 -5740 -2709 )">
    <path d="M 0.860215053763568 87.7741935483868  L 25.5913978494618 0.677419354838548  L 365 37.2365591397847  L 365 53.3655913978491  L 411.612903225806 78.0967741935483  L 384 132.935483870968  L 384 251.215053763441  L 87.9569892473119 293.150537634408  L 79.3548387096771 123.258064516129  L 60 66.2688172043008  L 0.860215053763568 87.7741935483868  Z " fill-rule="nonzero" fill="#ffffff" stroke="none" fill-opacity="0" transform="matrix(1 0 0 1 5740 2709 )" />
    <path d="M 0.860215053763568 87.7741935483868  L 25.5913978494618 0.677419354838548  L 365 37.2365591397847  L 365 53.3655913978491  L 411.612903225806 78.0967741935483  L 384 132.935483870968  L 384 251.215053763441  L 87.9569892473119 293.150537634408  L 79.3548387096771 123.258064516129  L 60 66.2688172043008  L 0.860215053763568 87.7741935483868  Z " stroke-width="4" stroke="#f59a23" fill="none" transform="matrix(1 0 0 1 5740 2709 )" mask="url(#clip955)" />
  </g>
</svg>