<?xml version="1.0" encoding="utf-8"?>
<svg version="1.1" xmlns:xlink="http://www.w3.org/1999/xlink" width="170px" height="170px" xmlns="http://www.w3.org/2000/svg">
  <g transform="matrix(1 0 0 1 -609 -2713 )">
    <path d="M 694 2713  C 741.6 2713  779 2750.4  779 2798  C 779 2845.6  741.6 2883  694 2883  C 646.4 2883  609 2845.6  609 2798  C 609 2750.4  646.4 2713  694 2713  Z " fill-rule="nonzero" fill="#ffffff" stroke="none" />
    <path d="M 694 2713.5  C 741.32 2713.5  778.5 2750.68  778.5 2798  C 778.5 2845.32  741.32 2882.5  694 2882.5  C 646.68 2882.5  609.5 2845.32  609.5 2798  C 609.5 2750.68  646.68 2713.5  694 2713.5  Z " stroke-width="1" stroke="#797979" fill="none" />
  </g>
</svg>