<?xml version="1.0" encoding="utf-8"?>
<svg version="1.1" xmlns:xlink="http://www.w3.org/1999/xlink" width="69px" height="69px" xmlns="http://www.w3.org/2000/svg">
  <defs>
    <pattern id="BGPattern" patternUnits="userSpaceOnUse" alignment="0 0" imageRepeat="None" />
    <mask fill="white" id="Clip2178">
      <path d="M 0 34.5  C 0 15.179999999999998  15.179999999999998 0  34.5 0  C 53.82 0  69 15.179999999999998  69 34.5  C 69 53.82  53.82 69  34.5 69  C 15.179999999999998 69  0 53.82  0 34.5  Z " fill-rule="evenodd" />
    </mask>
  </defs>
  <g transform="matrix(1 0 0 1 -887 -206 )">
    <path d="M 0 34.5  C 0 15.179999999999998  15.179999999999998 0  34.5 0  C 53.82 0  69 15.179999999999998  69 34.5  C 69 53.82  53.82 69  34.5 69  C 15.179999999999998 69  0 53.82  0 34.5  Z " fill-rule="nonzero" fill="rgba(230, 230, 230, 1)" stroke="none" transform="matrix(1 0 0 1 887 206 )" class="fill" />
    <path d="M 0 34.5  C 0 15.179999999999998  15.179999999999998 0  34.5 0  C 53.82 0  69 15.179999999999998  69 34.5  C 69 53.82  53.82 69  34.5 69  C 15.179999999999998 69  0 53.82  0 34.5  Z " stroke-width="2" stroke-dasharray="0" stroke="rgba(121, 121, 121, 1)" fill="none" transform="matrix(1 0 0 1 887 206 )" class="stroke" mask="url(#Clip2178)" />
  </g>
</svg>