<?xml version="1.0" encoding="utf-8"?>
<svg version="1.1" xmlns:xlink="http://www.w3.org/1999/xlink" width="78px" height="78px" xmlns="http://www.w3.org/2000/svg">
  <defs>
    <pattern id="BGPattern" patternUnits="userSpaceOnUse" alignment="0 0" imageRepeat="None" />
    <mask fill="white" id="Clip2192">
      <path d="M 0 39  C 0 17.159999999999997  17.159999999999997 0  39 0  C 60.84 0  78 17.159999999999997  78 39  C 78 60.84  60.84 78  39 78  C 17.159999999999997 78  0 60.84  0 39  Z " fill-rule="evenodd" />
    </mask>
  </defs>
  <g transform="matrix(1 0 0 1 -1026 -2059 )">
    <path d="M 0 39  C 0 17.159999999999997  17.159999999999997 0  39 0  C 60.84 0  78 17.159999999999997  78 39  C 78 60.84  60.84 78  39 78  C 17.159999999999997 78  0 60.84  0 39  Z " fill-rule="nonzero" fill="rgba(255, 255, 255, 1)" stroke="none" transform="matrix(1 0 0 1 1026 2059 )" class="fill" />
    <path d="M 0 39  C 0 17.159999999999997  17.159999999999997 0  39 0  C 60.84 0  78 17.159999999999997  78 39  C 78 60.84  60.84 78  39 78  C 17.159999999999997 78  0 60.84  0 39  Z " stroke-width="2" stroke-dasharray="0" stroke="rgba(121, 121, 121, 1)" fill="none" transform="matrix(1 0 0 1 1026 2059 )" class="stroke" mask="url(#Clip2192)" />
  </g>
</svg>