<?xml version="1.0" encoding="utf-8"?>
<svg version="1.1" xmlns:xlink="http://www.w3.org/1999/xlink" width="239px" height="241px" xmlns="http://www.w3.org/2000/svg">
  <g transform="matrix(1 0 0 1 -1418 -1813 )">
    <path d="M 1419 1828  A 14 14 0 0 1 1433 1814 L 1642 1814  A 14 14 0 0 1 1656 1828 L 1656 2039  A 14 14 0 0 1 1642 2053 L 1433 2053  A 14 14 0 0 1 1419 2039 L 1419 1828  Z " fill-rule="nonzero" fill="#555555" stroke="none" fill-opacity="0.0235294117647059" />
    <path d="M 1418.5 1828  A 14.5 14.5 0 0 1 1433 1813.5 L 1642 1813.5  A 14.5 14.5 0 0 1 1656.5 1828 L 1656.5 2039  A 14.5 14.5 0 0 1 1642 2053.5 L 1433 2053.5  A 14.5 14.5 0 0 1 1418.5 2039 L 1418.5 1828  Z " stroke-width="1" stroke="#797979" fill="none" stroke-opacity="0.341176470588235" />
  </g>
</svg>