<?xml version="1.0" encoding="utf-8"?>
<svg version="1.1" xmlns:xlink="http://www.w3.org/1999/xlink" width="21px" height="21px" xmlns="http://www.w3.org/2000/svg">
  <g transform="matrix(1 0 0 1 -1491 -1612 )">
    <path d="M 1501.5 1612  C 1507.38 1612  1512 1616.62  1512 1622.5  C 1512 1628.38  1507.38 1633  1501.5 1633  C 1495.62 1633  1491 1628.38  1491 1622.5  C 1491 1616.62  1495.62 1612  1501.5 1612  Z " fill-rule="nonzero" fill="#ffffff" stroke="none" />
    <path d="M 1501.5 1612.5  C 1507.1 1612.5  1511.5 1616.9  1511.5 1622.5  C 1511.5 1628.1  1507.1 1632.5  1501.5 1632.5  C 1495.9 1632.5  1491.5 1628.1  1491.5 1622.5  C 1491.5 1616.9  1495.9 1612.5  1501.5 1612.5  Z " stroke-width="1" stroke="#797979" fill="none" />
  </g>
</svg>