<?xml version="1.0" encoding="utf-8"?>
<svg version="1.1" xmlns:xlink="http://www.w3.org/1999/xlink" width="65px" height="65px" xmlns="http://www.w3.org/2000/svg">
  <g transform="matrix(1 0 0 1 -1357 -431 )">
    <path d="M 1389.5 432  C 1407.14 432  1421 445.86  1421 463.5  C 1421 481.14  1407.14 495  1389.5 495  C 1371.86 495  1358 481.14  1358 463.5  C 1358 445.86  1371.86 432  1389.5 432  Z " fill-rule="nonzero" fill="#f2f2f2" stroke="none" />
    <path d="M 1389.5 432  C 1407.14 432  1421 445.86  1421 463.5  C 1421 481.14  1407.14 495  1389.5 495  C 1371.86 495  1358 481.14  1358 463.5  C 1358 445.86  1371.86 432  1389.5 432  Z " stroke-width="2" stroke="#797979" fill="none" />
  </g>
</svg>