<?xml version="1.0" encoding="utf-8"?>
<svg version="1.1" xmlns:xlink="http://www.w3.org/1999/xlink" width="65px" height="65px" xmlns="http://www.w3.org/2000/svg">
  <g transform="matrix(1 0 0 1 -1058 -431 )">
    <path d="M 1090.5 432  C 1108.14 432  1122 445.86  1122 463.5  C 1122 481.14  1108.14 495  1090.5 495  C 1072.86 495  1059 481.14  1059 463.5  C 1059 445.86  1072.86 432  1090.5 432  Z " fill-rule="nonzero" fill="#d7d7d7" stroke="none" />
    <path d="M 1090.5 432  C 1108.14 432  1122 445.86  1122 463.5  C 1122 481.14  1108.14 495  1090.5 495  C 1072.86 495  1059 481.14  1059 463.5  C 1059 445.86  1072.86 432  1090.5 432  Z " stroke-width="2" stroke="#797979" fill="none" />
  </g>
</svg>