<?xml version="1.0" encoding="utf-8"?>
<svg version="1.1" xmlns:xlink="http://www.w3.org/1999/xlink" width="81px" height="81px" xmlns="http://www.w3.org/2000/svg">
  <g transform="matrix(1 0 0 1 -38 -236 )">
    <path d="M 78.5 236  C 101.18 236  119 253.82  119 276.5  C 119 299.18  101.18 317  78.5 317  C 55.82 317  38 299.18  38 276.5  C 38 253.82  55.82 236  78.5 236  Z " fill-rule="nonzero" fill="#7f7f7f" stroke="none" />
    <path d="M 78.5 236.5  C 100.9 236.5  118.5 254.1  118.5 276.5  C 118.5 298.9  100.9 316.5  78.5 316.5  C 56.1 316.5  38.5 298.9  38.5 276.5  C 38.5 254.1  56.1 236.5  78.5 236.5  Z " stroke-width="1" stroke="#797979" fill="none" />
  </g>
</svg>