<?xml version="1.0" encoding="utf-8"?>
<svg version="1.1" xmlns:xlink="http://www.w3.org/1999/xlink" width="20px" height="20px" xmlns="http://www.w3.org/2000/svg">
  <g transform="matrix(1 0 0 1 -49 -157 )">
    <path d="M 59 157  C 64.6 157  69 161.4  69 167  C 69 172.6  64.6 177  59 177  C 53.4 177  49 172.6  49 167  C 49 161.4  53.4 157  59 157  Z " fill-rule="nonzero" fill="#ffffff" stroke="none" />
    <path d="M 59 157.5  C 64.32 157.5  68.5 161.68  68.5 167  C 68.5 172.32  64.32 176.5  59 176.5  C 53.68 176.5  49.5 172.32  49.5 167  C 49.5 161.68  53.68 157.5  59 157.5  Z " stroke-width="1" stroke="#797979" fill="none" />
  </g>
</svg>