<?xml version="1.0" encoding="utf-8"?>
<svg version="1.1" xmlns:xlink="http://www.w3.org/1999/xlink" width="135px" height="135px" xmlns="http://www.w3.org/2000/svg">
  <g transform="matrix(1 0 0 1 -84 -2545 )">
    <path d="M 151.5 2549.5  C 186.78 2549.5  214.5 2577.22  214.5 2612.5  C 214.5 2647.78  186.78 2675.5  151.5 2675.5  C 116.22 2675.5  88.5 2647.78  88.5 2612.5  C 88.5 2577.22  116.22 2549.5  151.5 2549.5  Z " fill-rule="nonzero" fill="#000000" stroke="none" fill-opacity="0.392156862745098" />
    <path d="M 151.5 2547.5  C 187.9 2547.5  216.5 2576.1  216.5 2612.5  C 216.5 2648.9  187.9 2677.5  151.5 2677.5  C 115.1 2677.5  86.5 2648.9  86.5 2612.5  C 86.5 2576.1  115.1 2547.5  151.5 2547.5  Z " stroke-width="5" stroke="#000000" fill="none" stroke-opacity="0.372549019607843" />
  </g>
</svg>