<?xml version="1.0" encoding="utf-8"?>
<svg version="1.1" xmlns:xlink="http://www.w3.org/1999/xlink" width="17px" height="17px" xmlns="http://www.w3.org/2000/svg">
  <defs>
    <pattern id="BGPattern" patternUnits="userSpaceOnUse" alignment="0 0" imageRepeat="None" />
    <mask fill="white" id="Clip2023">
      <path d="M 0 8.5  C 0 3.7399999999999993  3.7399999999999993 0  8.5 0  C 13.26 0  17 3.7399999999999993  17 8.5  C 17 13.26  13.26 17  8.5 17  C 3.7399999999999993 17  0 13.26  0 8.5  Z " fill-rule="evenodd" />
    </mask>
  </defs>
  <g transform="matrix(1 0 0 1 -637 -432 )">
    <path d="M 0 8.5  C 0 3.7399999999999993  3.7399999999999993 0  8.5 0  C 13.26 0  17 3.7399999999999993  17 8.5  C 17 13.26  13.26 17  8.5 17  C 3.7399999999999993 17  0 13.26  0 8.5  Z " fill-rule="nonzero" fill="rgba(245, 154, 35, 1)" stroke="none" transform="matrix(1 0 0 1 637 432 )" class="fill" />
    <path d="M 0 8.5  C 0 3.7399999999999993  3.7399999999999993 0  8.5 0  C 13.26 0  17 3.7399999999999993  17 8.5  C 17 13.26  13.26 17  8.5 17  C 3.7399999999999993 17  0 13.26  0 8.5  Z " stroke-width="4" stroke-dasharray="0" stroke="rgba(0, 0, 0, 0.996078431372549)" fill="none" transform="matrix(1 0 0 1 637 432 )" class="stroke" mask="url(#Clip2023)" />
  </g>
</svg>