<?xml version="1.0" encoding="utf-8"?>
<svg version="1.1" xmlns:xlink="http://www.w3.org/1999/xlink" width="433px" height="383px" xmlns="http://www.w3.org/2000/svg">
  <g transform="matrix(1 0 0 1 -4289 -1055 )">
    <path d="M 4289 1055  L 4722 1055  L 4722 1438  L 4289 1438  L 4289 1055  " fill-rule="nonzero" fill="rgba(204, 204, 204, 1)" stroke="none" class="fill" />
    <path d="M 4316 1082  L 4695 1082  L 4695 1411  L 4316 1411  L 4316 1082  " fill-rule="nonzero" fill="rgba(255, 255, 255, 1)" stroke="none" class="fill" />
    <path d="M 4542.885 1169.9  C 4526.799 1169.9  4514.16 1157.2610000000002  4514.16 1141.1750000000002  C 4514.16 1125.0890000000002  4526.799 1112.45  4542.885 1112.45  C 4558.971 1112.45  4571.61 1125.0890000000002  4571.61 1141.1750000000002  C 4571.61 1157.2610000000002  4558.971 1169.9  4542.885 1169.9  " fill-rule="nonzero" fill="rgba(204, 204, 204, 1)" stroke="none" class="fill" />
    <path d="M 4326 1402  L 4326 1231.5  L 4416 1154  L 4542 1237.4780600461893  L 4614 1200.5  L 4686 1237.4780600461893  L 4686 1402  L 4326 1402  " fill-rule="nonzero" fill="rgba(22, 155, 213, 1)" stroke="none" class="fill" />
  </g>
</svg>