<?xml version="1.0" encoding="utf-8"?>
<svg version="1.1" xmlns:xlink="http://www.w3.org/1999/xlink" width="111px" height="60px" xmlns="http://www.w3.org/2000/svg">
  <defs>
    <pattern id="BGPattern" patternUnits="userSpaceOnUse" alignment="0 0" imageRepeat="None" />
    <mask fill="white" id="Clip375">
      <path d="M 0.024365259383873145 9.27725602286647  C 0.024365259383873145 0.8550322810786735  3.885695328806579 4.649328961685598  7.342967244702816 6.13370733987942  C 16.491832204675287 10.061769020292177  57.17185268896945 35.767673754635624  56.46242774566473 34.94950355818908  C 55.75300280236004 34.13133336174254  111 -21.43242139648831  111 9.27725602286647  C 111 39.98693344222125  87.0034682080925 60  56.46242774566473 60  C 25.921387283236978 60  0.024365259383873145 39.98693344222125  0.024365259383873145 9.27725602286647  Z " fill-rule="evenodd" />
    </mask>
  </defs>
  <g transform="matrix(1 0 0 1 -248 -1439 )">
    <path d="M 0.024365259383873145 9.27725602286647  C 0.024365259383873145 0.8550322810786735  3.885695328806579 4.649328961685598  7.342967244702816 6.13370733987942  C 16.491832204675287 10.061769020292177  57.17185268896945 35.767673754635624  56.46242774566473 34.94950355818908  C 55.75300280236004 34.13133336174254  111 -21.43242139648831  111 9.27725602286647  C 111 39.98693344222125  87.0034682080925 60  56.46242774566473 60  C 25.921387283236978 60  0.024365259383873145 39.98693344222125  0.024365259383873145 9.27725602286647  Z " fill-rule="nonzero" fill="rgba(85, 85, 85, 0.996078431372549)" stroke="none" transform="matrix(1 0 0 1 248 1439 )" class="fill" />
    <path d="M 0.024365259383873145 9.27725602286647  C 0.024365259383873145 0.8550322810786735  3.885695328806579 4.649328961685598  7.342967244702816 6.13370733987942  C 16.491832204675287 10.061769020292177  57.17185268896945 35.767673754635624  56.46242774566473 34.94950355818908  C 55.75300280236004 34.13133336174254  111 -21.43242139648831  111 9.27725602286647  C 111 39.98693344222125  87.0034682080925 60  56.46242774566473 60  C 25.921387283236978 60  0.024365259383873145 39.98693344222125  0.024365259383873145 9.27725602286647  Z " stroke-width="2" stroke-dasharray="0" stroke="rgba(0, 0, 0, 0)" fill="none" transform="matrix(1 0 0 1 248 1439 )" class="stroke" mask="url(#Clip375)" />
  </g>
</svg>