<?xml version="1.0" encoding="utf-8"?>
<svg version="1.1" xmlns:xlink="http://www.w3.org/1999/xlink" width="43px" height="43px" xmlns="http://www.w3.org/2000/svg">
  <g transform="matrix(1 0 0 1 -915 -2494 )">
    <path d="M 936.5 2494  C 948.54 2494  958 2503.46  958 2515.5  C 958 2527.54  948.54 2537  936.5 2537  C 924.46 2537  915 2527.54  915 2515.5  C 915 2503.46  924.46 2494  936.5 2494  Z " fill-rule="nonzero" fill="#7f7f7f" stroke="none" />
    <path d="M 936.5 2494.5  C 948.26 2494.5  957.5 2503.74  957.5 2515.5  C 957.5 2527.26  948.26 2536.5  936.5 2536.5  C 924.74 2536.5  915.5 2527.26  915.5 2515.5  C 915.5 2503.74  924.74 2494.5  936.5 2494.5  Z " stroke-width="1" stroke="#d7d7d7" fill="none" />
  </g>
</svg>