<?xml version="1.0" encoding="utf-8"?>
<svg version="1.1" xmlns:xlink="http://www.w3.org/1999/xlink" width="51px" height="51px" xmlns="http://www.w3.org/2000/svg">
  <defs>
    <pattern id="BGPattern" patternUnits="userSpaceOnUse" alignment="0 0" imageRepeat="None" />
    <mask fill="white" id="Clip387">
      <path d="M 0 25.5  C 0 11.219999999999999  11.219999999999999 0  25.5 0  C 39.78 0  51 11.219999999999999  51 25.5  C 51 39.78  39.78 51  25.5 51  C 11.219999999999999 51  0 39.78  0 25.5  Z " fill-rule="evenodd" />
    </mask>
  </defs>
  <g transform="matrix(1 0 0 1 -911 -4839 )">
    <path d="M 0 25.5  C 0 11.219999999999999  11.219999999999999 0  25.5 0  C 39.78 0  51 11.219999999999999  51 25.5  C 51 39.78  39.78 51  25.5 51  C 11.219999999999999 51  0 39.78  0 25.5  Z " fill-rule="nonzero" fill="rgba(127, 127, 127, 1)" stroke="none" transform="matrix(1 0 0 1 911 4839 )" class="fill" />
    <path d="M 0 25.5  C 0 11.219999999999999  11.219999999999999 0  25.5 0  C 39.78 0  51 11.219999999999999  51 25.5  C 51 39.78  39.78 51  25.5 51  C 11.219999999999999 51  0 39.78  0 25.5  Z " stroke-width="2" stroke-dasharray="0" stroke="rgba(215, 215, 215, 1)" fill="none" transform="matrix(1 0 0 1 911 4839 )" class="stroke" mask="url(#Clip387)" />
  </g>
</svg>