<?xml version="1.0" encoding="utf-8"?>
<svg version="1.1" xmlns:xlink="http://www.w3.org/1999/xlink" width="125px" height="125px" xmlns="http://www.w3.org/2000/svg">
  <defs>
    <pattern id="BGPattern" patternUnits="userSpaceOnUse" alignment="0 0" imageRepeat="None" />
    <mask fill="white" id="Clip388">
      <path d="M 0 62.5  C 0 27.499999999999996  27.499999999999996 0  62.5 0  C 97.5 0  125 27.499999999999996  125 62.5  C 125 97.5  97.5 125  62.5 125  C 27.499999999999996 125  0 97.5  0 62.5  Z " fill-rule="evenodd" />
    </mask>
  </defs>
  <g transform="matrix(1 0 0 1 -805 -5039 )">
    <path d="M 0 62.5  C 0 27.499999999999996  27.499999999999996 0  62.5 0  C 97.5 0  125 27.499999999999996  125 62.5  C 125 97.5  97.5 125  62.5 125  C 27.499999999999996 125  0 97.5  0 62.5  Z " fill-rule="nonzero" fill="rgba(170, 170, 170, 1)" stroke="none" transform="matrix(1 0 0 1 805 5039 )" class="fill" />
    <path d="M 0 62.5  C 0 27.499999999999996  27.499999999999996 0  62.5 0  C 97.5 0  125 27.499999999999996  125 62.5  C 125 97.5  97.5 125  62.5 125  C 27.499999999999996 125  0 97.5  0 62.5  Z " stroke-width="0" stroke-dasharray="0" stroke="rgba(121, 121, 121, 1)" fill="none" transform="matrix(1 0 0 1 805 5039 )" class="stroke" mask="url(#Clip388)" />
  </g>
</svg>