<?xml version="1.0" encoding="utf-8"?>
<svg version="1.1" xmlns:xlink="http://www.w3.org/1999/xlink" width="51px" height="51px" xmlns="http://www.w3.org/2000/svg">
  <g transform="matrix(1 0 0 1 -911 -4839 )">
    <path d="M 936.5 4839  C 950.78 4839  962 4850.22  962 4864.5  C 962 4878.78  950.78 4890  936.5 4890  C 922.22 4890  911 4878.78  911 4864.5  C 911 4850.22  922.22 4839  936.5 4839  Z " fill-rule="nonzero" fill="#7f7f7f" stroke="none" />
    <path d="M 936.5 4839.5  C 950.5 4839.5  961.5 4850.5  961.5 4864.5  C 961.5 4878.5  950.5 4889.5  936.5 4889.5  C 922.5 4889.5  911.5 4878.5  911.5 4864.5  C 911.5 4850.5  922.5 4839.5  936.5 4839.5  Z " stroke-width="1" stroke="#d7d7d7" fill="none" />
  </g>
</svg>