<?xml version="1.0" encoding="utf-8"?>
<svg version="1.1" xmlns:xlink="http://www.w3.org/1999/xlink" width="46px" height="46px" xmlns="http://www.w3.org/2000/svg">
  <defs>
    <pattern id="BGPattern" patternUnits="userSpaceOnUse" alignment="0 0" imageRepeat="None" />
    <mask fill="white" id="Clip402">
      <path d="M 0 23  C 0 10.12  10.12 0  23 0  C 35.88 0  46 10.12  46 23  C 46 35.88  35.88 46  23 46  C 10.12 46  0 35.88  0 23  Z " fill-rule="evenodd" />
    </mask>
  </defs>
  <g transform="matrix(1 0 0 1 -636 -9355 )">
    <path d="M 0 23  C 0 10.12  10.12 0  23 0  C 35.88 0  46 10.12  46 23  C 46 35.88  35.88 46  23 46  C 10.12 46  0 35.88  0 23  Z " fill-rule="nonzero" fill="rgba(170, 170, 170, 1)" stroke="none" transform="matrix(1 0 0 1 636 9355 )" class="fill" />
    <path d="M 0 23  C 0 10.12  10.12 0  23 0  C 35.88 0  46 10.12  46 23  C 46 35.88  35.88 46  23 46  C 10.12 46  0 35.88  0 23  Z " stroke-width="0" stroke-dasharray="0" stroke="rgba(121, 121, 121, 1)" fill="none" transform="matrix(1 0 0 1 636 9355 )" class="stroke" mask="url(#Clip402)" />
  </g>
</svg>