<?xml version="1.0" encoding="utf-8"?>
<svg version="1.1" xmlns:xlink="http://www.w3.org/1999/xlink" width="271px" height="157px" xmlns="http://www.w3.org/2000/svg">
  <defs>
    <pattern id="BGPattern" patternUnits="userSpaceOnUse" alignment="0 0" imageRepeat="None" />
    <mask fill="white" id="Clip404">
      <path d="M 0 157  L 0 0  C 0 0  61.222601626016285 30.002152080345695  142.02341463414632 29.439024390245322  C 222.82422764227636 28.87589670014313  270.28571428571445 29.439024390245322  270.28571428571445 29.439024390245322  L 257.97044334975385 134.31707317073233  C 257.97044334975385 134.31707317073233  223.5477044072782 133.98636380917378  142.02341463414632 134.31707317073233  C 63.3905127717444 134.6360534015912  0 157  0 157  Z " fill-rule="evenodd" />
    </mask>
  </defs>
  <g transform="matrix(1 0 0 1 -1044 -9373 )">
    <path d="M 0 157  L 0 0  C 0 0  61.222601626016285 30.002152080345695  142.02341463414632 29.439024390245322  C 222.82422764227636 28.87589670014313  270.28571428571445 29.439024390245322  270.28571428571445 29.439024390245322  L 257.97044334975385 134.31707317073233  C 257.97044334975385 134.31707317073233  223.5477044072782 133.98636380917378  142.02341463414632 134.31707317073233  C 63.3905127717444 134.6360534015912  0 157  0 157  Z " fill-rule="nonzero" fill="rgba(255, 255, 255, 1)" stroke="none" transform="matrix(1 0 0 1 1044 9373 )" class="fill" />
    <path d="M 0 157  L 0 0  C 0 0  61.222601626016285 30.002152080345695  142.02341463414632 29.439024390245322  C 222.82422764227636 28.87589670014313  270.28571428571445 29.439024390245322  270.28571428571445 29.439024390245322  L 257.97044334975385 134.31707317073233  C 257.97044334975385 134.31707317073233  223.5477044072782 133.98636380917378  142.02341463414632 134.31707317073233  C 63.3905127717444 134.6360534015912  0 157  0 157  Z " stroke-width="2" stroke-dasharray="0" stroke="rgba(121, 121, 121, 1)" fill="none" transform="matrix(1 0 0 1 1044 9373 )" class="stroke" mask="url(#Clip404)" />
  </g>
</svg>