<?xml version="1.0" encoding="utf-8"?>
<svg version="1.1" xmlns:xlink="http://www.w3.org/1999/xlink" width="271px" height="157px" xmlns="http://www.w3.org/2000/svg">
  <defs>
    <mask fill="white" id="clip388">
      <path d="M 0 157  L 0 0  C 0 0  61.2226016260163 30.0021520803457  142.023414634146 29.4390243902453  C 222.824227642276 28.8758967001431  270.285714285714 29.4390243902453  270.285714285714 29.4390243902453  L 257.970443349754 134.317073170732  C 257.970443349754 134.317073170732  223.547704407278 133.986363809174  142.023414634146 134.317073170732  C 63.3905127717444 134.636053401591  0 157  0 157  Z " fill-rule="evenodd" />
    </mask>
  </defs>
  <g transform="matrix(1 0 0 1 -1044 -9373 )">
    <path d="M 0 157  L 0 0  C 0 0  61.2226016260163 30.0021520803457  142.023414634146 29.4390243902453  C 222.824227642276 28.8758967001431  270.285714285714 29.4390243902453  270.285714285714 29.4390243902453  L 257.970443349754 134.317073170732  C 257.970443349754 134.317073170732  223.547704407278 133.986363809174  142.023414634146 134.317073170732  C 63.3905127717444 134.636053401591  0 157  0 157  Z " fill-rule="nonzero" fill="#ffffff" stroke="none" transform="matrix(1 0 0 1 1044 9373 )" />
    <path d="M 0 157  L 0 0  C 0 0  61.2226016260163 30.0021520803457  142.023414634146 29.4390243902453  C 222.824227642276 28.8758967001431  270.285714285714 29.4390243902453  270.285714285714 29.4390243902453  L 257.970443349754 134.317073170732  C 257.970443349754 134.317073170732  223.547704407278 133.986363809174  142.023414634146 134.317073170732  C 63.3905127717444 134.636053401591  0 157  0 157  Z " stroke-width="2" stroke="#797979" fill="none" transform="matrix(1 0 0 1 1044 9373 )" mask="url(#clip388)" />
  </g>
</svg>