<?xml version="1.0" encoding="utf-8"?>
<svg version="1.1" xmlns:xlink="http://www.w3.org/1999/xlink" width="40px" height="37px" xmlns="http://www.w3.org/2000/svg">
  <defs>
    <pattern id="BGPattern" patternUnits="userSpaceOnUse" alignment="0 0" imageRepeat="None" />
    <mask fill="white" id="Clip407">
      <path d="M 24.713541666666664 22.860026041666668  C 26.015625 21.655598958333332  26.666666666666664 20.202256944444443  26.666666666666664 18.5  C 26.666666666666664 16.797743055555554  26.015625 15.344401041666666  24.713541666666664 14.139973958333334  C 23.411458333333336 12.935546875  21.840277777777782 12.333333333333334  20 12.333333333333334  C 18.15972222222222 12.333333333333334  16.588541666666668 12.935546875  15.286458333333332 14.139973958333334  C 13.984375 15.344401041666666  13.333333333333332 16.797743055555554  13.333333333333332 18.5  C 13.333333333333332 20.202256944444443  13.984375 21.655598958333332  15.286458333333332 22.860026041666668  C 16.588541666666668 24.064453125  18.15972222222222 24.666666666666668  20 24.666666666666668  C 21.840277777777782 24.666666666666668  23.411458333333336 24.064453125  24.713541666666664 22.860026041666668  Z M 39.791666666666664 15.308268229166666  C 39.93055555555556 15.476888020833334  40 15.665581597222221  40 15.874348958333334  L 40 21.222005208333332  C 40 21.414713541666668  39.93055555555556 21.599392361111114  39.791666666666664 21.776041666666668  C 39.65277777777778 21.952690972222218  39.479166666666664 22.057074652777775  39.270833333333336 22.089192708333332  L 34.453125 22.763671875  C 34.12326388888889 23.630859375  33.78472222222223 24.361545138888886  33.4375 24.955729166666668  C 34.04513888888889 25.758680555555557  34.973958333333336 26.866753472222218  36.223958333333336 28.279947916666664  C 36.39756944444444 28.47265625  36.484375 28.67339409722222  36.484375 28.882161458333336  C 36.484375 29.090928819444446  36.40625 29.275607638888886  36.25 29.436197916666664  C 35.78125 30.030381944444446  34.921875 30.897569444444446  33.671875 32.037760416666664  C 32.421875 33.177951388888886  31.605902777777782 33.748046875  31.223958333333336 33.748046875  C 31.015625 33.748046875  30.789930555555557 33.67578125  30.546875 33.53125  L 26.953125 30.9296875  C 26.18923611111111 31.299045138888886  25.399305555555557 31.604166666666664  24.583333333333336 31.845052083333336  C 24.305555555555557 34.029079861111114  24.053819444444446 35.52256944444445  23.828125 36.325520833333336  C 23.70659722222222 36.775173611111114  23.39409722222222 37  22.890625 37  L 17.109375 37  C 16.866319444444446 37  16.653645833333332 36.93174913194445  16.471354166666668 36.795247395833336  C 16.2890625 36.65874565972222  16.189236111111114 36.486111111111114  16.171875 36.27734375  L 15.442708333333332 31.845052083333336  C 14.592013888888891 31.588107638888886  13.810763888888891 31.291015625  13.098958333333332 30.953776041666664  L 9.427083333333334 33.53125  C 9.253472222222223 33.67578125  9.036458333333334 33.748046875  8.776041666666666 33.748046875  C 8.53298611111111 33.748046875  8.315972222222223 33.65972222222222  8.125 33.483072916666664  C 5.9375 31.65234375  4.505208333333333 30.303385416666664  3.828125 29.436197916666664  C 3.7065972222222228 29.275607638888886  3.645833333333333 29.090928819444446  3.645833333333333 28.882161458333336  C 3.645833333333333 28.689453125  3.7152777777777786 28.504774305555554  3.854166666666667 28.328125  C 4.114583333333333 27.990885416666664  4.557291666666667 27.456922743055557  5.182291666666666 26.726236979166668  C 5.807291666666666 25.995551215277775  6.276041666666666 25.429470486111104  6.588541666666666 25.027994791666668  C 6.119791666666666 24.225043402777775  5.763888888888889 23.430121527777775  5.520833333333334 22.643229166666668  L 0.7552083333333333 21.992838541666668  C 0.529513888888889 21.960720486111114  0.3472222222222222 21.8603515625  0.20833333333333331 21.691731770833332  C 0.06944444444444445 21.523111979166668  0 21.334418402777775  0 21.125651041666668  L 0 15.777994791666666  C 0 15.585286458333334  0.06944444444444445 15.400607638888888  0.20833333333333331 15.223958333333334  C 0.3472222222222222 15.047309027777779  0.5121527777777778 14.942925347222221  0.703125 14.910807291666666  L 5.546875 14.236328125  C 5.789930555555555 13.497612847222221  6.128472222222222 12.758897569444443  6.5625 12.020182291666666  C 5.868055555555555 11.104817708333334  4.939236111111112 9.996744791666666  3.776041666666667 8.695963541666666  C 3.602430555555556 8.503255208333334  3.515625 8.310546875  3.515625 8.117838541666666  C 3.515625 7.9572482638888875  3.59375 7.772569444444439  3.75 7.563802083333335  C 4.201388888888889 6.985677083333335  5.056423611111112 6.122504340277774  6.315104166666666 4.974283854166665  C 7.573784722222223 3.8260633680555522  8.394097222222223 3.251953125  8.776041666666666 3.251953125  C 9.00173611111111 3.251953125  9.227430555555557 3.332248263888887  9.453125 3.492838541666665  L 13.046875 6.0703125  C 13.810763888888891 5.700954861111109  14.600694444444446 5.395833333333335  15.416666666666668 5.154947916666665  C 15.694444444444446 2.970920138888887  15.946180555555555 1.4774305555555522  16.171875 0.6744791666666653  C 16.29340277777778 0.22482638888888706  16.60590277777778 0  17.109375 0  L 22.890625 0  C 23.133680555555557 0  23.346354166666664 0.06825086805555236  23.528645833333336 0.2047526041666653  C 23.7109375 0.3412543402777741  23.81076388888889 0.5138888888888871  23.828125 0.72265625  L 24.557291666666664 5.154947916666665  C 25.40798611111111 5.411892361111109  26.18923611111111 5.708984375  26.901041666666664 6.046223958333335  L 30.598958333333336 3.46875  C 30.755208333333336 3.32421875  30.963541666666664 3.251953125  31.223958333333336 3.251953125  C 31.449652777777782 3.251953125  31.666666666666664 3.332248263888887  31.875 3.492838541666665  C 34.114583333333336 5.403862847222221  35.546875 6.768880208333335  36.171875 7.587890625  C 36.29340277777778 7.716362847222221  36.354166666666664 7.893012152777774  36.354166666666664 8.117838541666666  C 36.354166666666664 8.310546875  36.28472222222223 8.49522569444444  36.145833333333336 8.671875  C 35.885416666666664 9.009114583333334  35.442708333333336 9.54307725694444  34.817708333333336 10.273763020833334  C 34.192708333333336 11.004448784722221  33.723958333333336 11.570529513888888  33.411458333333336 11.972005208333334  C 33.86284722222223 12.774956597222221  34.21875 13.56184895833333  34.479166666666664 14.332682291666666  L 39.244791666666664 15.007161458333334  C 39.470486111111114 15.039279513888888  39.65277777777778 15.139648437499996  39.791666666666664 15.308268229166666  Z " fill-rule="evenodd" />
    </mask>
  </defs>
  <g transform="matrix(1 0 0 1 -1296 -9846 )">
    <path d="M 24.713541666666664 22.860026041666668  C 26.015625 21.655598958333332  26.666666666666664 20.202256944444443  26.666666666666664 18.5  C 26.666666666666664 16.797743055555554  26.015625 15.344401041666666  24.713541666666664 14.139973958333334  C 23.411458333333336 12.935546875  21.840277777777782 12.333333333333334  20 12.333333333333334  C 18.15972222222222 12.333333333333334  16.588541666666668 12.935546875  15.286458333333332 14.139973958333334  C 13.984375 15.344401041666666  13.333333333333332 16.797743055555554  13.333333333333332 18.5  C 13.333333333333332 20.202256944444443  13.984375 21.655598958333332  15.286458333333332 22.860026041666668  C 16.588541666666668 24.064453125  18.15972222222222 24.666666666666668  20 24.666666666666668  C 21.840277777777782 24.666666666666668  23.411458333333336 24.064453125  24.713541666666664 22.860026041666668  Z M 39.791666666666664 15.308268229166666  C 39.93055555555556 15.476888020833334  40 15.665581597222221  40 15.874348958333334  L 40 21.222005208333332  C 40 21.414713541666668  39.93055555555556 21.599392361111114  39.791666666666664 21.776041666666668  C 39.65277777777778 21.952690972222218  39.479166666666664 22.057074652777775  39.270833333333336 22.089192708333332  L 34.453125 22.763671875  C 34.12326388888889 23.630859375  33.78472222222223 24.361545138888886  33.4375 24.955729166666668  C 34.04513888888889 25.758680555555557  34.973958333333336 26.866753472222218  36.223958333333336 28.279947916666664  C 36.39756944444444 28.47265625  36.484375 28.67339409722222  36.484375 28.882161458333336  C 36.484375 29.090928819444446  36.40625 29.275607638888886  36.25 29.436197916666664  C 35.78125 30.030381944444446  34.921875 30.897569444444446  33.671875 32.037760416666664  C 32.421875 33.177951388888886  31.605902777777782 33.748046875  31.223958333333336 33.748046875  C 31.015625 33.748046875  30.789930555555557 33.67578125  30.546875 33.53125  L 26.953125 30.9296875  C 26.18923611111111 31.299045138888886  25.399305555555557 31.604166666666664  24.583333333333336 31.845052083333336  C 24.305555555555557 34.029079861111114  24.053819444444446 35.52256944444445  23.828125 36.325520833333336  C 23.70659722222222 36.775173611111114  23.39409722222222 37  22.890625 37  L 17.109375 37  C 16.866319444444446 37  16.653645833333332 36.93174913194445  16.471354166666668 36.795247395833336  C 16.2890625 36.65874565972222  16.189236111111114 36.486111111111114  16.171875 36.27734375  L 15.442708333333332 31.845052083333336  C 14.592013888888891 31.588107638888886  13.810763888888891 31.291015625  13.098958333333332 30.953776041666664  L 9.427083333333334 33.53125  C 9.253472222222223 33.67578125  9.036458333333334 33.748046875  8.776041666666666 33.748046875  C 8.53298611111111 33.748046875  8.315972222222223 33.65972222222222  8.125 33.483072916666664  C 5.9375 31.65234375  4.505208333333333 30.303385416666664  3.828125 29.436197916666664  C 3.7065972222222228 29.275607638888886  3.645833333333333 29.090928819444446  3.645833333333333 28.882161458333336  C 3.645833333333333 28.689453125  3.7152777777777786 28.504774305555554  3.854166666666667 28.328125  C 4.114583333333333 27.990885416666664  4.557291666666667 27.456922743055557  5.182291666666666 26.726236979166668  C 5.807291666666666 25.995551215277775  6.276041666666666 25.429470486111104  6.588541666666666 25.027994791666668  C 6.119791666666666 24.225043402777775  5.763888888888889 23.430121527777775  5.520833333333334 22.643229166666668  L 0.7552083333333333 21.992838541666668  C 0.529513888888889 21.960720486111114  0.3472222222222222 21.8603515625  0.20833333333333331 21.691731770833332  C 0.06944444444444445 21.523111979166668  0 21.334418402777775  0 21.125651041666668  L 0 15.777994791666666  C 0 15.585286458333334  0.06944444444444445 15.400607638888888  0.20833333333333331 15.223958333333334  C 0.3472222222222222 15.047309027777779  0.5121527777777778 14.942925347222221  0.703125 14.910807291666666  L 5.546875 14.236328125  C 5.789930555555555 13.497612847222221  6.128472222222222 12.758897569444443  6.5625 12.020182291666666  C 5.868055555555555 11.104817708333334  4.939236111111112 9.996744791666666  3.776041666666667 8.695963541666666  C 3.602430555555556 8.503255208333334  3.515625 8.310546875  3.515625 8.117838541666666  C 3.515625 7.9572482638888875  3.59375 7.772569444444439  3.75 7.563802083333335  C 4.201388888888889 6.985677083333335  5.056423611111112 6.122504340277774  6.315104166666666 4.974283854166665  C 7.573784722222223 3.8260633680555522  8.394097222222223 3.251953125  8.776041666666666 3.251953125  C 9.00173611111111 3.251953125  9.227430555555557 3.332248263888887  9.453125 3.492838541666665  L 13.046875 6.0703125  C 13.810763888888891 5.700954861111109  14.600694444444446 5.395833333333335  15.416666666666668 5.154947916666665  C 15.694444444444446 2.970920138888887  15.946180555555555 1.4774305555555522  16.171875 0.6744791666666653  C 16.29340277777778 0.22482638888888706  16.60590277777778 0  17.109375 0  L 22.890625 0  C 23.133680555555557 0  23.346354166666664 0.06825086805555236  23.528645833333336 0.2047526041666653  C 23.7109375 0.3412543402777741  23.81076388888889 0.5138888888888871  23.828125 0.72265625  L 24.557291666666664 5.154947916666665  C 25.40798611111111 5.411892361111109  26.18923611111111 5.708984375  26.901041666666664 6.046223958333335  L 30.598958333333336 3.46875  C 30.755208333333336 3.32421875  30.963541666666664 3.251953125  31.223958333333336 3.251953125  C 31.449652777777782 3.251953125  31.666666666666664 3.332248263888887  31.875 3.492838541666665  C 34.114583333333336 5.403862847222221  35.546875 6.768880208333335  36.171875 7.587890625  C 36.29340277777778 7.716362847222221  36.354166666666664 7.893012152777774  36.354166666666664 8.117838541666666  C 36.354166666666664 8.310546875  36.28472222222223 8.49522569444444  36.145833333333336 8.671875  C 35.885416666666664 9.009114583333334  35.442708333333336 9.54307725694444  34.817708333333336 10.273763020833334  C 34.192708333333336 11.004448784722221  33.723958333333336 11.570529513888888  33.411458333333336 11.972005208333334  C 33.86284722222223 12.774956597222221  34.21875 13.56184895833333  34.479166666666664 14.332682291666666  L 39.244791666666664 15.007161458333334  C 39.470486111111114 15.039279513888888  39.65277777777778 15.139648437499996  39.791666666666664 15.308268229166666  Z " fill-rule="nonzero" fill="rgba(0, 0, 0, 1)" stroke="none" transform="matrix(1 0 0 1 1296 9846 )" class="fill" />
    <path d="M 24.713541666666664 22.860026041666668  C 26.015625 21.655598958333332  26.666666666666664 20.202256944444443  26.666666666666664 18.5  C 26.666666666666664 16.797743055555554  26.015625 15.344401041666666  24.713541666666664 14.139973958333334  C 23.411458333333336 12.935546875  21.840277777777782 12.333333333333334  20 12.333333333333334  C 18.15972222222222 12.333333333333334  16.588541666666668 12.935546875  15.286458333333332 14.139973958333334  C 13.984375 15.344401041666666  13.333333333333332 16.797743055555554  13.333333333333332 18.5  C 13.333333333333332 20.202256944444443  13.984375 21.655598958333332  15.286458333333332 22.860026041666668  C 16.588541666666668 24.064453125  18.15972222222222 24.666666666666668  20 24.666666666666668  C 21.840277777777782 24.666666666666668  23.411458333333336 24.064453125  24.713541666666664 22.860026041666668  Z " stroke-width="0" stroke-dasharray="0" stroke="rgba(255, 255, 255, 0)" fill="none" transform="matrix(1 0 0 1 1296 9846 )" class="stroke" mask="url(#Clip407)" />
    <path d="M 39.791666666666664 15.308268229166666  C 39.93055555555556 15.476888020833334  40 15.665581597222221  40 15.874348958333334  L 40 21.222005208333332  C 40 21.414713541666668  39.93055555555556 21.599392361111114  39.791666666666664 21.776041666666668  C 39.65277777777778 21.952690972222218  39.479166666666664 22.057074652777775  39.270833333333336 22.089192708333332  L 34.453125 22.763671875  C 34.12326388888889 23.630859375  33.78472222222223 24.361545138888886  33.4375 24.955729166666668  C 34.04513888888889 25.758680555555557  34.973958333333336 26.866753472222218  36.223958333333336 28.279947916666664  C 36.39756944444444 28.47265625  36.484375 28.67339409722222  36.484375 28.882161458333336  C 36.484375 29.090928819444446  36.40625 29.275607638888886  36.25 29.436197916666664  C 35.78125 30.030381944444446  34.921875 30.897569444444446  33.671875 32.037760416666664  C 32.421875 33.177951388888886  31.605902777777782 33.748046875  31.223958333333336 33.748046875  C 31.015625 33.748046875  30.789930555555557 33.67578125  30.546875 33.53125  L 26.953125 30.9296875  C 26.18923611111111 31.299045138888886  25.399305555555557 31.604166666666664  24.583333333333336 31.845052083333336  C 24.305555555555557 34.029079861111114  24.053819444444446 35.52256944444445  23.828125 36.325520833333336  C 23.70659722222222 36.775173611111114  23.39409722222222 37  22.890625 37  L 17.109375 37  C 16.866319444444446 37  16.653645833333332 36.93174913194445  16.471354166666668 36.795247395833336  C 16.2890625 36.65874565972222  16.189236111111114 36.486111111111114  16.171875 36.27734375  L 15.442708333333332 31.845052083333336  C 14.592013888888891 31.588107638888886  13.810763888888891 31.291015625  13.098958333333332 30.953776041666664  L 9.427083333333334 33.53125  C 9.253472222222223 33.67578125  9.036458333333334 33.748046875  8.776041666666666 33.748046875  C 8.53298611111111 33.748046875  8.315972222222223 33.65972222222222  8.125 33.483072916666664  C 5.9375 31.65234375  4.505208333333333 30.303385416666664  3.828125 29.436197916666664  C 3.7065972222222228 29.275607638888886  3.645833333333333 29.090928819444446  3.645833333333333 28.882161458333336  C 3.645833333333333 28.689453125  3.7152777777777786 28.504774305555554  3.854166666666667 28.328125  C 4.114583333333333 27.990885416666664  4.557291666666667 27.456922743055557  5.182291666666666 26.726236979166668  C 5.807291666666666 25.995551215277775  6.276041666666666 25.429470486111104  6.588541666666666 25.027994791666668  C 6.119791666666666 24.225043402777775  5.763888888888889 23.430121527777775  5.520833333333334 22.643229166666668  L 0.7552083333333333 21.992838541666668  C 0.529513888888889 21.960720486111114  0.3472222222222222 21.8603515625  0.20833333333333331 21.691731770833332  C 0.06944444444444445 21.523111979166668  0 21.334418402777775  0 21.125651041666668  L 0 15.777994791666666  C 0 15.585286458333334  0.06944444444444445 15.400607638888888  0.20833333333333331 15.223958333333334  C 0.3472222222222222 15.047309027777779  0.5121527777777778 14.942925347222221  0.703125 14.910807291666666  L 5.546875 14.236328125  C 5.789930555555555 13.497612847222221  6.128472222222222 12.758897569444443  6.5625 12.020182291666666  C 5.868055555555555 11.104817708333334  4.939236111111112 9.996744791666666  3.776041666666667 8.695963541666666  C 3.602430555555556 8.503255208333334  3.515625 8.310546875  3.515625 8.117838541666666  C 3.515625 7.9572482638888875  3.59375 7.772569444444439  3.75 7.563802083333335  C 4.201388888888889 6.985677083333335  5.056423611111112 6.122504340277774  6.315104166666666 4.974283854166665  C 7.573784722222223 3.8260633680555522  8.394097222222223 3.251953125  8.776041666666666 3.251953125  C 9.00173611111111 3.251953125  9.227430555555557 3.332248263888887  9.453125 3.492838541666665  L 13.046875 6.0703125  C 13.810763888888891 5.700954861111109  14.600694444444446 5.395833333333335  15.416666666666668 5.154947916666665  C 15.694444444444446 2.970920138888887  15.946180555555555 1.4774305555555522  16.171875 0.6744791666666653  C 16.29340277777778 0.22482638888888706  16.60590277777778 0  17.109375 0  L 22.890625 0  C 23.133680555555557 0  23.346354166666664 0.06825086805555236  23.528645833333336 0.2047526041666653  C 23.7109375 0.3412543402777741  23.81076388888889 0.5138888888888871  23.828125 0.72265625  L 24.557291666666664 5.154947916666665  C 25.40798611111111 5.411892361111109  26.18923611111111 5.708984375  26.901041666666664 6.046223958333335  L 30.598958333333336 3.46875  C 30.755208333333336 3.32421875  30.963541666666664 3.251953125  31.223958333333336 3.251953125  C 31.449652777777782 3.251953125  31.666666666666664 3.332248263888887  31.875 3.492838541666665  C 34.114583333333336 5.403862847222221  35.546875 6.768880208333335  36.171875 7.587890625  C 36.29340277777778 7.716362847222221  36.354166666666664 7.893012152777774  36.354166666666664 8.117838541666666  C 36.354166666666664 8.310546875  36.28472222222223 8.49522569444444  36.145833333333336 8.671875  C 35.885416666666664 9.009114583333334  35.442708333333336 9.54307725694444  34.817708333333336 10.273763020833334  C 34.192708333333336 11.004448784722221  33.723958333333336 11.570529513888888  33.411458333333336 11.972005208333334  C 33.86284722222223 12.774956597222221  34.21875 13.56184895833333  34.479166666666664 14.332682291666666  L 39.244791666666664 15.007161458333334  C 39.470486111111114 15.039279513888888  39.65277777777778 15.139648437499996  39.791666666666664 15.308268229166666  Z " stroke-width="0" stroke-dasharray="0" stroke="rgba(255, 255, 255, 0)" fill="none" transform="matrix(1 0 0 1 1296 9846 )" class="stroke" mask="url(#Clip407)" />
  </g>
</svg>