<?xml version="1.0" encoding="utf-8"?>
<svg version="1.1" xmlns:xlink="http://www.w3.org/1999/xlink" width="145px" height="145px" xmlns="http://www.w3.org/2000/svg">
  <g transform="matrix(1 0 0 1 -1220 -9378 )">
    <path d="M 1292.5 9378  C 1333.1 9378  1365 9409.9  1365 9450.5  C 1365 9491.1  1333.1 9523  1292.5 9523  C 1251.9 9523  1220 9491.1  1220 9450.5  C 1220 9409.9  1251.9 9378  1292.5 9378  Z " fill-rule="nonzero" fill="#ffffff" stroke="none" />
    <path d="M 1292.5 9378.5  C 1332.82 9378.5  1364.5 9410.18  1364.5 9450.5  C 1364.5 9490.82  1332.82 9522.5  1292.5 9522.5  C 1252.18 9522.5  1220.5 9490.82  1220.5 9450.5  C 1220.5 9410.18  1252.18 9378.5  1292.5 9378.5  Z " stroke-width="1" stroke="#797979" fill="none" />
  </g>
</svg>