<?xml version="1.0" encoding="utf-8"?>
<svg version="1.1" xmlns:xlink="http://www.w3.org/1999/xlink" width="40px" height="37px" xmlns="http://www.w3.org/2000/svg">
  <g transform="matrix(1 0 0 1 -1296 -9846 )">
    <path d="M 24.7135416666667 22.8600260416667  C 26.015625 21.6555989583333  26.6666666666667 20.2022569444444  26.6666666666667 18.5  C 26.6666666666667 16.7977430555556  26.015625 15.3444010416667  24.7135416666667 14.1399739583333  C 23.4114583333333 12.935546875  21.8402777777778 12.3333333333333  20 12.3333333333333  C 18.1597222222222 12.3333333333333  16.5885416666667 12.935546875  15.2864583333333 14.1399739583333  C 13.984375 15.3444010416667  13.3333333333333 16.7977430555556  13.3333333333333 18.5  C 13.3333333333333 20.2022569444444  13.984375 21.6555989583333  15.2864583333333 22.8600260416667  C 16.5885416666667 24.064453125  18.1597222222222 24.6666666666667  20 24.6666666666667  C 21.8402777777778 24.6666666666667  23.4114583333333 24.064453125  24.7135416666667 22.8600260416667  Z M 39.7916666666667 15.3082682291667  C 39.9305555555556 15.4768880208333  40 15.6655815972222  40 15.8743489583333  L 40 21.2220052083333  C 40 21.4147135416667  39.9305555555556 21.5993923611111  39.7916666666667 21.7760416666667  C 39.6527777777778 21.9526909722222  39.4791666666667 22.0570746527778  39.2708333333333 22.0891927083333  L 34.453125 22.763671875  C 34.1232638888889 23.630859375  33.7847222222222 24.3615451388889  33.4375 24.9557291666667  C 34.0451388888889 25.7586805555556  34.9739583333333 26.8667534722222  36.2239583333333 28.2799479166667  C 36.3975694444444 28.47265625  36.484375 28.6733940972222  36.484375 28.8821614583333  C 36.484375 29.0909288194444  36.40625 29.2756076388889  36.25 29.4361979166667  C 35.78125 30.0303819444444  34.921875 30.8975694444444  33.671875 32.0377604166667  C 32.421875 33.1779513888889  31.6059027777778 33.748046875  31.2239583333333 33.748046875  C 31.015625 33.748046875  30.7899305555556 33.67578125  30.546875 33.53125  L 26.953125 30.9296875  C 26.1892361111111 31.2990451388889  25.3993055555556 31.6041666666667  24.5833333333333 31.8450520833333  C 24.3055555555556 34.0290798611111  24.0538194444444 35.5225694444445  23.828125 36.3255208333333  C 23.7065972222222 36.7751736111111  23.3940972222222 37  22.890625 37  L 17.109375 37  C 16.8663194444444 37  16.6536458333333 36.9317491319445  16.4713541666667 36.7952473958333  C 16.2890625 36.6587456597222  16.1892361111111 36.4861111111111  16.171875 36.27734375  L 15.4427083333333 31.8450520833333  C 14.5920138888889 31.5881076388889  13.8107638888889 31.291015625  13.0989583333333 30.9537760416667  L 9.42708333333333 33.53125  C 9.25347222222222 33.67578125  9.03645833333333 33.748046875  8.77604166666667 33.748046875  C 8.53298611111111 33.748046875  8.31597222222222 33.6597222222222  8.125 33.4830729166667  C 5.9375 31.65234375  4.50520833333333 30.3033854166667  3.828125 29.4361979166667  C 3.70659722222222 29.2756076388889  3.64583333333333 29.0909288194444  3.64583333333333 28.8821614583333  C 3.64583333333333 28.689453125  3.71527777777778 28.5047743055556  3.85416666666667 28.328125  C 4.11458333333333 27.9908854166667  4.55729166666667 27.4569227430556  5.18229166666667 26.7262369791667  C 5.80729166666667 25.9955512152778  6.27604166666667 25.4294704861111  6.58854166666667 25.0279947916667  C 6.11979166666667 24.2250434027778  5.76388888888889 23.4301215277778  5.52083333333333 22.6432291666667  L 0.755208333333333 21.9928385416667  C 0.529513888888889 21.9607204861111  0.347222222222222 21.8603515625  0.208333333333333 21.6917317708333  C 0.0694444444444444 21.5231119791667  0 21.3344184027778  0 21.1256510416667  L 0 15.7779947916667  C 0 15.5852864583333  0.0694444444444444 15.4006076388889  0.208333333333333 15.2239583333333  C 0.347222222222222 15.0473090277778  0.512152777777778 14.9429253472222  0.703125 14.9108072916667  L 5.546875 14.236328125  C 5.78993055555556 13.4976128472222  6.12847222222222 12.7588975694444  6.5625 12.0201822916667  C 5.86805555555556 11.1048177083333  4.93923611111111 9.99674479166667  3.77604166666667 8.69596354166667  C 3.60243055555556 8.50325520833333  3.515625 8.310546875  3.515625 8.11783854166667  C 3.515625 7.95724826388889  3.59375 7.77256944444444  3.75 7.56380208333333  C 4.20138888888889 6.98567708333333  5.05642361111111 6.12250434027777  6.31510416666667 4.97428385416667  C 7.57378472222222 3.82606336805555  8.39409722222222 3.251953125  8.77604166666667 3.251953125  C 9.00173611111111 3.251953125  9.22743055555556 3.33224826388889  9.453125 3.49283854166667  L 13.046875 6.0703125  C 13.8107638888889 5.70095486111111  14.6006944444444 5.39583333333333  15.4166666666667 5.15494791666667  C 15.6944444444444 2.97092013888889  15.9461805555556 1.47743055555555  16.171875 0.674479166666665  C 16.2934027777778 0.224826388888887  16.6059027777778 0  17.109375 0  L 22.890625 0  C 23.1336805555556 0  23.3463541666667 0.0682508680555524  23.5286458333333 0.204752604166665  C 23.7109375 0.341254340277774  23.8107638888889 0.513888888888887  23.828125 0.72265625  L 24.5572916666667 5.15494791666667  C 25.4079861111111 5.41189236111111  26.1892361111111 5.708984375  26.9010416666667 6.04622395833333  L 30.5989583333333 3.46875  C 30.7552083333333 3.32421875  30.9635416666667 3.251953125  31.2239583333333 3.251953125  C 31.4496527777778 3.251953125  31.6666666666667 3.33224826388889  31.875 3.49283854166667  C 34.1145833333333 5.40386284722222  35.546875 6.76888020833333  36.171875 7.587890625  C 36.2934027777778 7.71636284722222  36.3541666666667 7.89301215277777  36.3541666666667 8.11783854166667  C 36.3541666666667 8.310546875  36.2847222222222 8.49522569444444  36.1458333333333 8.671875  C 35.8854166666667 9.00911458333333  35.4427083333333 9.54307725694444  34.8177083333333 10.2737630208333  C 34.1927083333333 11.0044487847222  33.7239583333333 11.5705295138889  33.4114583333333 11.9720052083333  C 33.8628472222222 12.7749565972222  34.21875 13.5618489583333  34.4791666666667 14.3326822916667  L 39.2447916666667 15.0071614583333  C 39.4704861111111 15.0392795138889  39.6527777777778 15.1396484375  39.7916666666667 15.3082682291667  Z " fill-rule="nonzero" fill="#000000" stroke="none" transform="matrix(1 0 0 1 1296 9846 )" />
  </g>
</svg>