<?xml version="1.0" encoding="utf-8"?>
<svg version="1.1" xmlns:xlink="http://www.w3.org/1999/xlink" width="36px" height="36px" xmlns="http://www.w3.org/2000/svg">
  <defs>
    <pattern id="BGPattern" patternUnits="userSpaceOnUse" alignment="0 0" imageRepeat="None" />
    <mask fill="white" id="Clip149">
      <path d="M 0 18  C 0 7.919999999999999  7.919999999999999 0  18 0  C 28.080000000000002 0  36 7.919999999999999  36 18  C 36 28.080000000000002  28.080000000000002 36  18 36  C 7.919999999999999 36  0 28.080000000000002  0 18  Z " fill-rule="evenodd" />
    </mask>
  </defs>
  <g transform="matrix(1 0 0 1 -1011 -637 )">
    <path d="M 0 18  C 0 7.919999999999999  7.919999999999999 0  18 0  C 28.080000000000002 0  36 7.919999999999999  36 18  C 36 28.080000000000002  28.080000000000002 36  18 36  C 7.919999999999999 36  0 28.080000000000002  0 18  Z " fill-rule="nonzero" fill="rgba(255, 255, 255, 1)" stroke="none" transform="matrix(1 0 0 1 1011 637 )" class="fill" />
    <path d="M 0 18  C 0 7.919999999999999  7.919999999999999 0  18 0  C 28.080000000000002 0  36 7.919999999999999  36 18  C 36 28.080000000000002  28.080000000000002 36  18 36  C 7.919999999999999 36  0 28.080000000000002  0 18  Z " stroke-width="2" stroke-dasharray="0" stroke="rgba(121, 121, 121, 1)" fill="none" transform="matrix(1 0 0 1 1011 637 )" class="stroke" mask="url(#Clip149)" />
  </g>
</svg>