<?xml version="1.0" encoding="utf-8"?>
<svg version="1.1" xmlns:xlink="http://www.w3.org/1999/xlink" width="553px" height="1138px" xmlns="http://www.w3.org/2000/svg">
  <defs>
    <pattern id="BGPattern" patternUnits="userSpaceOnUse" alignment="0 0" imageRepeat="None" />
    <mask fill="white" id="Clip2383">
      <path d="M 0 1138  L 0 176.012987012987  L 54.811688311688386 119.51948051948051  L 0 63.188311688311686  L 0 0  L 553 0  L 553 1138  L 0 1138  Z " fill-rule="evenodd" />
    </mask>
  </defs>
  <g transform="matrix(1 0 0 1 -1421 -61 )">
    <path d="M 0 1138  L 0 176.012987012987  L 54.811688311688386 119.51948051948051  L 0 63.188311688311686  L 0 0  L 553 0  L 553 1138  L 0 1138  Z " fill-rule="nonzero" fill="rgba(0, 0, 0, 0.7490196078431373)" stroke="none" transform="matrix(1 0 0 1 1421 61 )" class="fill" />
    <path d="M 0 1138  L 0 176.012987012987  L 54.811688311688386 119.51948051948051  L 0 63.188311688311686  L 0 0  L 553 0  L 553 1138  L 0 1138  Z " stroke-width="0" stroke-dasharray="0" stroke="rgba(121, 121, 121, 1)" fill="none" transform="matrix(1 0 0 1 1421 61 )" class="stroke" mask="url(#Clip2383)" />
  </g>
</svg>