<?xml version="1.0" encoding="utf-8"?>
<svg version="1.1" xmlns:xlink="http://www.w3.org/1999/xlink" width="67px" height="67px" xmlns="http://www.w3.org/2000/svg">
  <defs>
    <pattern id="BGPattern" patternUnits="userSpaceOnUse" alignment="0 0" imageRepeat="None" />
    <mask fill="white" id="Clip2195">
      <path d="M 0 28.5  C 0 12.54  12.54 0  28.5 0  C 44.46 0  57 12.54  57 28.5  C 57 44.46  44.46 57  28.5 57  C 12.54 57  0 44.46  0 28.5  Z " fill-rule="evenodd" />
    </mask>
  </defs>
  <g transform="matrix(1 0 0 1 -192 -1427 )">
    <path d="M 0 28.5  C 0 12.54  12.54 0  28.5 0  C 44.46 0  57 12.54  57 28.5  C 57 44.46  44.46 57  28.5 57  C 12.54 57  0 44.46  0 28.5  Z " fill-rule="nonzero" fill="rgba(112, 182, 3, 1)" stroke="none" transform="matrix(1 0 0 1 196 1431 )" class="fill" />
    <path d="M 0 28.5  C 0 12.54  12.54 0  28.5 0  C 44.46 0  57 12.54  57 28.5  C 57 44.46  44.46 57  28.5 57  C 12.54 57  0 44.46  0 28.5  Z " stroke-width="0" stroke-dasharray="0" stroke="rgba(121, 121, 121, 1)" fill="none" transform="matrix(1 0 0 1 196 1431 )" class="stroke" mask="url(#Clip2195)" />
  </g>
  <style>svg { filter: drop-shadow(1px 1px 2.5px rgba(9, 10, 7, 1)); }</style>
</svg>