<?xml version="1.0" encoding="utf-8"?>
<svg version="1.1" xmlns:xlink="http://www.w3.org/1999/xlink" width="81px" height="81px" xmlns="http://www.w3.org/2000/svg">
  <defs>
    <pattern id="BGPattern" patternUnits="userSpaceOnUse" alignment="0 0" imageRepeat="None" />
    <mask fill="white" id="Clip327">
      <path d="M 0 40.5  C 0 17.819999999999997  17.819999999999997 0  40.5 0  C 63.18 0  81 17.819999999999997  81 40.5  C 81 63.18  63.18 81  40.5 81  C 17.819999999999997 81  0 63.18  0 40.5  Z " fill-rule="evenodd" />
    </mask>
  </defs>
  <g transform="matrix(1 0 0 1 -38 -236 )">
    <path d="M 0 40.5  C 0 17.819999999999997  17.819999999999997 0  40.5 0  C 63.18 0  81 17.819999999999997  81 40.5  C 81 63.18  63.18 81  40.5 81  C 17.819999999999997 81  0 63.18  0 40.5  Z " fill-rule="nonzero" fill="rgba(127, 127, 127, 1)" stroke="none" transform="matrix(1 0 0 1 38 236 )" class="fill" />
    <path d="M 0 40.5  C 0 17.819999999999997  17.819999999999997 0  40.5 0  C 63.18 0  81 17.819999999999997  81 40.5  C 81 63.18  63.18 81  40.5 81  C 17.819999999999997 81  0 63.18  0 40.5  Z " stroke-width="2" stroke-dasharray="0" stroke="rgba(121, 121, 121, 1)" fill="none" transform="matrix(1 0 0 1 38 236 )" class="stroke" mask="url(#Clip327)" />
  </g>
</svg>