<?xml version="1.0" encoding="utf-8"?>
<svg version="1.1" xmlns:xlink="http://www.w3.org/1999/xlink" width="86px" height="86px" xmlns="http://www.w3.org/2000/svg">
  <defs>
    <pattern id="BGPattern" patternUnits="userSpaceOnUse" alignment="0 0" imageRepeat="None" />
    <mask fill="white" id="Clip330">
      <path d="M 0 43  C 0 18.919999999999998  18.919999999999998 0  43 0  C 67.08 0  86 18.919999999999998  86 43  C 86 67.08  67.08 86  43 86  C 18.919999999999998 86  0 67.08  0 43  Z " fill-rule="evenodd" />
    </mask>
  </defs>
  <g transform="matrix(1 0 0 1 -126 -102 )">
    <path d="M 0 43  C 0 18.919999999999998  18.919999999999998 0  43 0  C 67.08 0  86 18.919999999999998  86 43  C 86 67.08  67.08 86  43 86  C 18.919999999999998 86  0 67.08  0 43  Z " fill-rule="nonzero" fill="rgba(255, 255, 255, 1)" stroke="none" transform="matrix(1 0 0 1 126 102 )" class="fill" />
    <path d="M 0 43  C 0 18.919999999999998  18.919999999999998 0  43 0  C 67.08 0  86 18.919999999999998  86 43  C 86 67.08  67.08 86  43 86  C 18.919999999999998 86  0 67.08  0 43  Z " stroke-width="2" stroke-dasharray="0" stroke="rgba(121, 121, 121, 1)" fill="none" transform="matrix(1 0 0 1 126 102 )" class="stroke" mask="url(#Clip330)" />
  </g>
</svg>