<?xml version="1.0" encoding="utf-8"?>
<svg version="1.1" xmlns:xlink="http://www.w3.org/1999/xlink" width="822px" height="121px" xmlns="http://www.w3.org/2000/svg">
  <defs>
    <linearGradient gradientUnits="userSpaceOnUse" x1="150.25225225225222" y1="60.50000000000003" x2="812.4144144144143" y2="60.50000000000003" id="LinearGradient2206">
      <stop id="Stop2207" stop-color="#81d3f8" stop-opacity="0.4392156862745098" offset="0" />
      <stop id="Stop2208" stop-color="#7f7f7f" offset="1" />
    </linearGradient>
    <pattern id="BGPattern" patternUnits="userSpaceOnUse" alignment="0 0" imageRepeat="None" />
    <mask fill="white" id="Clip2209">
      <path d="M 0 106  L 0 15  C 0 6.6  6.599999999999999 0  14.999999999999998 0  L 807 0  C 815.4000000000001 0  822 6.6  822 15  L 822 106  C 822 114.39999999999999  815.4000000000001 121  807 121  L 14.999999999999998 121  C 6.599999999999999 121  0 114.39999999999999  0 106  Z " fill-rule="evenodd" />
    </mask>
  </defs>
  <g transform="matrix(1 0 0 1 -22 -146 )">
    <path d="M 0 106  L 0 15  C 0 6.6  6.599999999999999 0  14.999999999999998 0  L 807 0  C 815.4000000000001 0  822 6.6  822 15  L 822 106  C 822 114.39999999999999  815.4000000000001 121  807 121  L 14.999999999999998 121  C 6.599999999999999 121  0 114.39999999999999  0 106  Z " fill-rule="nonzero" fill="url(#LinearGradient2206)" stroke="none" transform="matrix(1 0 0 1 22 146 )" class="fill" />
    <path d="M 0 106  L 0 15  C 0 6.6  6.599999999999999 0  14.999999999999998 0  L 807 0  C 815.4000000000001 0  822 6.6  822 15  L 822 106  C 822 114.39999999999999  815.4000000000001 121  807 121  L 14.999999999999998 121  C 6.599999999999999 121  0 114.39999999999999  0 106  Z " stroke-width="2" stroke-dasharray="0" stroke="rgba(121, 121, 121, 1)" fill="none" transform="matrix(1 0 0 1 22 146 )" class="stroke" mask="url(#Clip2209)" />
  </g>
</svg>