<?xml version="1.0" encoding="utf-8"?>
<svg version="1.1" xmlns:xlink="http://www.w3.org/1999/xlink" width="411px" height="197px" xmlns="http://www.w3.org/2000/svg">
  <defs>
    <linearGradient gradientUnits="userSpaceOnUse" x1="205.34530261969007" y1="20.972445875825912" x2="205.34530261969007" y2="197.2114868491664" id="LinearGradient2223">
      <stop id="Stop2224" stop-color="#7f7f7f" stop-opacity="0.4392156862745098" offset="0" />
      <stop id="Stop2225" stop-color="#7f7f7f" offset="1" />
    </linearGradient>
    <pattern id="BGPattern" patternUnits="userSpaceOnUse" alignment="0 0" imageRepeat="None" />
    <mask fill="white" id="Clip2226">
      <path d="M 0 182  L 0 15.000000000000002  C 0 6.6000000000000005  6.599999999999999 0  14.999999999999998 0  L 396 0  C 404.4 0  411 6.6000000000000005  411 15.000000000000002  L 411 182  C 411 190.4  404.4 197  396 197  L 14.999999999999998 197  C 6.599999999999999 197  0 190.4  0 182  Z " fill-rule="evenodd" />
    </mask>
  </defs>
  <g transform="matrix(1 0 0 1 -284 -209 )">
    <path d="M 0 182  L 0 15.000000000000002  C 0 6.6000000000000005  6.599999999999999 0  14.999999999999998 0  L 396 0  C 404.4 0  411 6.6000000000000005  411 15.000000000000002  L 411 182  C 411 190.4  404.4 197  396 197  L 14.999999999999998 197  C 6.599999999999999 197  0 190.4  0 182  Z " fill-rule="nonzero" fill="url(#LinearGradient2223)" stroke="none" transform="matrix(1 0 0 1 284 209 )" class="fill" />
    <path d="M 0 182  L 0 15.000000000000002  C 0 6.6000000000000005  6.599999999999999 0  14.999999999999998 0  L 396 0  C 404.4 0  411 6.6000000000000005  411 15.000000000000002  L 411 182  C 411 190.4  404.4 197  396 197  L 14.999999999999998 197  C 6.599999999999999 197  0 190.4  0 182  Z " stroke-width="2" stroke-dasharray="0" stroke="rgba(121, 121, 121, 1)" fill="none" transform="matrix(1 0 0 1 284 209 )" class="stroke" mask="url(#Clip2226)" />
  </g>
</svg>