<?xml version="1.0" encoding="utf-8"?>
<svg version="1.1" xmlns:xlink="http://www.w3.org/1999/xlink" width="25px" height="25px" xmlns="http://www.w3.org/2000/svg">
  <g transform="matrix(1 0 0 1 -778 -283 )">
    <path d="M 778 283  L 803 283  L 803 308  L 778 308  L 778 283  " fill-rule="nonzero" fill="#cccccc" stroke="none" />
    <path d="M 780 285  L 801 285  L 801 306  L 780 306  L 780 285  " fill-rule="nonzero" fill="#ffffff" stroke="none" />
    <path d="M 792.875 290.5  C 791.825 290.5  791 289.675  791 288.625  C 791 287.575  791.825 286.75  792.875 286.75  C 793.925 286.75  794.75 287.575  794.75 288.625  C 794.75 289.675  793.925 290.5  792.875 290.5  " fill-rule="nonzero" fill="#cccccc" stroke="none" />
    <path d="M 781 306  L 781 295  L 786 290  L 793 294  L 797 293  L 801 294  L 801 306  L 781 306  " fill-rule="nonzero" fill="#169bd5" stroke="none" />
  </g>
</svg>