<?xml version="1.0" encoding="utf-8"?>
<svg version="1.1" xmlns:xlink="http://www.w3.org/1999/xlink" width="17px" height="17px" xmlns="http://www.w3.org/2000/svg">
  <g transform="matrix(1 0 0 1 -1408 -2143 )">
    <path d="M 1416.5 2143  C 1421.26 2143  1425 2146.74  1425 2151.5  C 1425 2156.26  1421.26 2160  1416.5 2160  C 1411.74 2160  1408 2156.26  1408 2151.5  C 1408 2146.74  1411.74 2143  1416.5 2143  Z " fill-rule="nonzero" fill="#ffffff" stroke="none" />
    <path d="M 1416.5 2143.5  C 1420.98 2143.5  1424.5 2147.02  1424.5 2151.5  C 1424.5 2155.98  1420.98 2159.5  1416.5 2159.5  C 1412.02 2159.5  1408.5 2155.98  1408.5 2151.5  C 1408.5 2147.02  1412.02 2143.5  1416.5 2143.5  Z " stroke-width="1" stroke="#797979" fill="none" />
  </g>
</svg>