<?xml version="1.0" encoding="utf-8"?>
<svg version="1.1" xmlns:xlink="http://www.w3.org/1999/xlink" width="22px" height="22px" xmlns="http://www.w3.org/2000/svg">
  <defs>
    <pattern id="BGPattern" patternUnits="userSpaceOnUse" alignment="0 0" imageRepeat="None" />
    <mask fill="white" id="Clip2243">
      <path d="M 0 11  C 0 4.84  4.84 0  11 0  C 17.16 0  22 4.84  22 11  C 22 17.16  17.16 22  11 22  C 4.84 22  0 17.16  0 11  Z " fill-rule="evenodd" />
    </mask>
  </defs>
  <g transform="matrix(1 0 0 1 -1420 -1511 )">
    <path d="M 0 11  C 0 4.84  4.84 0  11 0  C 17.16 0  22 4.84  22 11  C 22 17.16  17.16 22  11 22  C 4.84 22  0 17.16  0 11  Z " fill-rule="nonzero" fill="rgba(0, 0, 0, 0.3843137254901961)" stroke="none" transform="matrix(1 0 0 1 1420 1511 )" class="fill" />
    <path d="M 0 11  C 0 4.84  4.84 0  11 0  C 17.16 0  22 4.84  22 11  C 22 17.16  17.16 22  11 22  C 4.84 22  0 17.16  0 11  Z " stroke-width="2" stroke-dasharray="0" stroke="rgba(121, 121, 121, 1)" fill="none" transform="matrix(1 0 0 1 1420 1511 )" class="stroke" mask="url(#Clip2243)" />
  </g>
</svg>