<?xml version="1.0" encoding="utf-8"?>
<svg version="1.1" xmlns:xlink="http://www.w3.org/1999/xlink" width="45px" height="45px" xmlns="http://www.w3.org/2000/svg">
  <defs>
    <pattern id="BGPattern" patternUnits="userSpaceOnUse" alignment="0 0" imageRepeat="None" />
    <mask fill="white" id="Clip535">
      <path d="M 0 22.5  C 0 9.899999999999999  9.899999999999999 0  22.5 0  C 35.1 0  45 9.899999999999999  45 22.5  C 45 35.1  35.1 45  22.5 45  C 9.899999999999999 45  0 35.1  0 22.5  Z " fill-rule="evenodd" />
    </mask>
  </defs>
  <g transform="matrix(1 0 0 1 -4072 -764 )">
    <path d="M 0 22.5  C 0 9.899999999999999  9.899999999999999 0  22.5 0  C 35.1 0  45 9.899999999999999  45 22.5  C 45 35.1  35.1 45  22.5 45  C 9.899999999999999 45  0 35.1  0 22.5  Z " fill-rule="nonzero" fill="rgba(220, 216, 203, 1)" stroke="none" transform="matrix(1 0 0 1 4072 764 )" class="fill" />
    <path d="M 0 22.5  C 0 9.899999999999999  9.899999999999999 0  22.5 0  C 35.1 0  45 9.899999999999999  45 22.5  C 45 35.1  35.1 45  22.5 45  C 9.899999999999999 45  0 35.1  0 22.5  Z " stroke-width="6" stroke-dasharray="0" stroke="rgba(211, 205, 190, 1)" fill="none" transform="matrix(1 0 0 1 4072 764 )" class="stroke" mask="url(#Clip535)" />
  </g>
</svg>