<?xml version="1.0" encoding="utf-8"?>
<svg version="1.1" xmlns:xlink="http://www.w3.org/1999/xlink" width="79px" height="79px" xmlns="http://www.w3.org/2000/svg">
  <defs>
    <pattern id="BGPattern" patternUnits="userSpaceOnUse" alignment="0 0" imageRepeat="None" />
    <mask fill="white" id="Clip2258">
      <path d="M 0 39.5  C 0 17.38  17.38 0  39.5 0  C 61.620000000000005 0  79 17.38  79 39.5  C 79 61.620000000000005  61.620000000000005 79  39.5 79  C 17.38 79  0 61.620000000000005  0 39.5  Z " fill-rule="evenodd" />
    </mask>
  </defs>
  <g transform="matrix(1 0 0 1 -42 -141 )">
    <path d="M 0 39.5  C 0 17.38  17.38 0  39.5 0  C 61.620000000000005 0  79 17.38  79 39.5  C 79 61.620000000000005  61.620000000000005 79  39.5 79  C 17.38 79  0 61.620000000000005  0 39.5  Z " fill-rule="nonzero" fill="rgba(255, 255, 255, 1)" stroke="none" transform="matrix(1 0 0 1 42 141 )" class="fill" />
    <path d="M 0 39.5  C 0 17.38  17.38 0  39.5 0  C 61.620000000000005 0  79 17.38  79 39.5  C 79 61.620000000000005  61.620000000000005 79  39.5 79  C 17.38 79  0 61.620000000000005  0 39.5  Z " stroke-width="2" stroke-dasharray="0" stroke="rgba(121, 121, 121, 1)" fill="none" transform="matrix(1 0 0 1 42 141 )" class="stroke" mask="url(#Clip2258)" />
  </g>
</svg>