<?xml version="1.0" encoding="utf-8"?>
<svg version="1.1" xmlns:xlink="http://www.w3.org/1999/xlink" width="9px" height="5px" xmlns="http://www.w3.org/2000/svg">
  <defs>
    <pattern id="BGPattern" patternUnits="userSpaceOnUse" alignment="0 0" imageRepeat="None" />
    <mask fill="white" id="Clip2259">
      <path d="M 8.592 0.09384615384615308  C 8.495999999999999 0.09384615384615308  8.411999999999999 0.13076923076923003  8.34 0.20461538461538462  L 4.499999999999999 4.044615384615383  L 0.6599999999999993 0.20461538461538395  C 0.5879999999999992 0.13076923076923003  0.5039999999999991 0.09384615384615308  0.40799999999999936 0.09384615384615308  C 0.3119999999999996 0.09384615384615308  0.22799999999999954 0.13076923076923003  0.15599999999999947 0.20461538461538395  C 0.08399999999999941 0.27846153846153787  0.047999999999999376 0.36461538461538406  0.047999999999999376 0.46307692307692266  C 0.047999999999999376 0.5615384615384612  0.08000399999999941 0.6435938461538455  0.14399999999999946 0.7092307692307689  L 4.236 4.795384615384616  C 4.308 4.869230769230769  4.395995999999999 4.906153846153846  4.5 4.906153846153846  C 4.604004 4.906153846153846  4.692 4.869230769230769  4.764 4.795384615384616  L 8.856 0.7215384615384614  C 8.919996000000001 0.6476923076923075  8.952 0.559483076923077  8.952 0.4569230769230765  C 8.952 0.35436307692307606  8.916 0.26820923076923053  8.844 0.19846153846153777  C 8.772 0.12871384615384507  8.687999999999999 0.09384615384615308  8.592 0.09384615384615308  Z " fill-rule="evenodd" />
    </mask>
  </defs>
  <g transform="matrix(1 0 0 1 -3436 -209 )">
    <path d="M 8.592 0.09384615384615308  C 8.495999999999999 0.09384615384615308  8.411999999999999 0.13076923076923003  8.34 0.20461538461538462  L 4.499999999999999 4.044615384615383  L 0.6599999999999993 0.20461538461538395  C 0.5879999999999992 0.13076923076923003  0.5039999999999991 0.09384615384615308  0.40799999999999936 0.09384615384615308  C 0.3119999999999996 0.09384615384615308  0.22799999999999954 0.13076923076923003  0.15599999999999947 0.20461538461538395  C 0.08399999999999941 0.27846153846153787  0.047999999999999376 0.36461538461538406  0.047999999999999376 0.46307692307692266  C 0.047999999999999376 0.5615384615384612  0.08000399999999941 0.6435938461538455  0.14399999999999946 0.7092307692307689  L 4.236 4.795384615384616  C 4.308 4.869230769230769  4.395995999999999 4.906153846153846  4.5 4.906153846153846  C 4.604004 4.906153846153846  4.692 4.869230769230769  4.764 4.795384615384616  L 8.856 0.7215384615384614  C 8.919996000000001 0.6476923076923075  8.952 0.559483076923077  8.952 0.4569230769230765  C 8.952 0.35436307692307606  8.916 0.26820923076923053  8.844 0.19846153846153777  C 8.772 0.12871384615384507  8.687999999999999 0.09384615384615308  8.592 0.09384615384615308  Z " fill-rule="nonzero" fill="rgba(255, 255, 255, 1)" stroke="none" transform="matrix(1 0 0 1 3436 209 )" class="fill" />
    <path d="M 8.592 0.09384615384615308  C 8.495999999999999 0.09384615384615308  8.411999999999999 0.13076923076923003  8.34 0.20461538461538462  L 4.499999999999999 4.044615384615383  L 0.6599999999999993 0.20461538461538395  C 0.5879999999999992 0.13076923076923003  0.5039999999999991 0.09384615384615308  0.40799999999999936 0.09384615384615308  C 0.3119999999999996 0.09384615384615308  0.22799999999999954 0.13076923076923003  0.15599999999999947 0.20461538461538395  C 0.08399999999999941 0.27846153846153787  0.047999999999999376 0.36461538461538406  0.047999999999999376 0.46307692307692266  C 0.047999999999999376 0.5615384615384612  0.08000399999999941 0.6435938461538455  0.14399999999999946 0.7092307692307689  L 4.236 4.795384615384616  C 4.308 4.869230769230769  4.395995999999999 4.906153846153846  4.5 4.906153846153846  C 4.604004 4.906153846153846  4.692 4.869230769230769  4.764 4.795384615384616  L 8.856 0.7215384615384614  C 8.919996000000001 0.6476923076923075  8.952 0.559483076923077  8.952 0.4569230769230765  C 8.952 0.35436307692307606  8.916 0.26820923076923053  8.844 0.19846153846153777  C 8.772 0.12871384615384507  8.687999999999999 0.09384615384615308  8.592 0.09384615384615308  Z " stroke-width="0" stroke-dasharray="0" stroke="rgba(255, 255, 255, 0)" fill="none" transform="matrix(1 0 0 1 3436 209 )" class="stroke" mask="url(#Clip2259)" />
  </g>
</svg>