<?xml version="1.0" encoding="utf-8"?>
<svg version="1.1" xmlns:xlink="http://www.w3.org/1999/xlink" width="49px" height="83px" xmlns="http://www.w3.org/2000/svg">
  <defs>
    <pattern id="BGPattern" patternUnits="userSpaceOnUse" alignment="0 0" imageRepeat="None" />
    <mask fill="white" id="Clip189">
      <path d="M 6 83  L 6 48.46412884333813  L 0.3938506588579003 39.97218155197652  L 6 32.797950219619224  L 6 0  L 34 0  C 42.40000000000009 0  49 6.599999999999909  49 15  L 49 68  C 49 76.40000000000009  42.40000000000009 83  34 83  L 6 83  Z " fill-rule="evenodd" />
    </mask>
  </defs>
  <g transform="matrix(1 0 0 1 -2858 -1242 )">
    <path d="M 6 83  L 6 48.46412884333813  L 0.3938506588579003 39.97218155197652  L 6 32.797950219619224  L 6 0  L 34 0  C 42.40000000000009 0  49 6.599999999999909  49 15  L 49 68  C 49 76.40000000000009  42.40000000000009 83  34 83  L 6 83  Z " fill-rule="nonzero" fill="rgba(242, 242, 242, 1)" stroke="none" transform="matrix(1 0 0 1 2858 1242 )" class="fill" />
    <path d="M 6 83  L 6 48.46412884333813  L 0.3938506588579003 39.97218155197652  L 6 32.797950219619224  L 6 0  L 34 0  C 42.40000000000009 0  49 6.599999999999909  49 15  L 49 68  C 49 76.40000000000009  42.40000000000009 83  34 83  L 6 83  Z " stroke-width="2" stroke-dasharray="0" stroke="rgba(121, 121, 121, 1)" fill="none" transform="matrix(1 0 0 1 2858 1242 )" class="stroke" mask="url(#Clip189)" />
  </g>
</svg>