<?xml version="1.0" encoding="utf-8"?>
<svg version="1.1" xmlns:xlink="http://www.w3.org/1999/xlink" width="43px" height="83px" xmlns="http://www.w3.org/2000/svg">
  <defs>
    <pattern id="BGPattern" patternUnits="userSpaceOnUse" alignment="0 0" imageRepeat="None" />
    <mask fill="white" id="Clip2092">
      <path d="M 0 83  L 0 0  L 28.000000000000004 0  C 36.40000000000009 0  43 6.599999999999909  43 15  L 43 68  C 43 76.40000000000009  36.40000000000009 83  28.000000000000004 83  L 0 83  Z " fill-rule="evenodd" />
    </mask>
  </defs>
  <g transform="matrix(1 0 0 1 -2864 -1336 )">
    <path d="M 0 83  L 0 0  L 28.000000000000004 0  C 36.40000000000009 0  43 6.599999999999909  43 15  L 43 68  C 43 76.40000000000009  36.40000000000009 83  28.000000000000004 83  L 0 83  Z " fill-rule="nonzero" fill="rgba(170, 170, 170, 1)" stroke="none" transform="matrix(1 0 0 1 2864 1336 )" class="fill" />
    <path d="M 0 83  L 0 0  L 28.000000000000004 0  C 36.40000000000009 0  43 6.599999999999909  43 15  L 43 68  C 43 76.40000000000009  36.40000000000009 83  28.000000000000004 83  L 0 83  Z " stroke-width="2" stroke-dasharray="0" stroke="rgba(121, 121, 121, 1)" fill="none" transform="matrix(1 0 0 1 2864 1336 )" class="stroke" mask="url(#Clip2092)" />
  </g>
</svg>