<?xml version="1.0" encoding="utf-8"?>
<svg version="1.1" xmlns:xlink="http://www.w3.org/1999/xlink" width="21px" height="21px" xmlns="http://www.w3.org/2000/svg">
  <defs>
    <pattern id="BGPattern" patternUnits="userSpaceOnUse" alignment="0 0" imageRepeat="None" />
  </defs>
  <g transform="matrix(1 0 0 1 -1177 -1401 )">
    <path d="M 0 10.500000000000002  A 10.5 10.5 0 0 1 10.499999999999998 0 A 10.5 10.5 0 0 1 21 10.5 A 10.5 10.5 0 0 1 10.5 21 A 10.5 10.5 0 0 1 0 10.500000000000002 Z " fill-rule="nonzero" fill="rgba(255, 255, 255, 1)" stroke="none" transform="matrix(1 0 0 1 1177 1401 )" class="fill" />
    <path d="M 0.5 10.500000000000002  A 10 10 0 0 1 10.499999999999998 0.5 A 10 10 0 0 1 20.5 10.5 A 10 10 0 0 1 10.5 20.5 A 10 10 0 0 1 0.5 10.500000000000002 Z " stroke-width="1" stroke-dasharray="0" stroke="rgba(121, 121, 121, 1)" fill="none" transform="matrix(1 0 0 1 1177 1401 )" class="stroke" stroke-dashoffset="0.5" />
    <path d="M 4.5 10.5  L 9 15  L 16.5 4.5  " stroke-width="4.5" stroke-dasharray="0" stroke="rgba(121, 121, 121, 1)" fill="none" transform="matrix(1 0 0 1 1177 1401 )" class="stroke btn_check" />
  </g>
</svg>