<?xml version="1.0" encoding="utf-8"?>
<svg version="1.1" xmlns:xlink="http://www.w3.org/1999/xlink" width="134px" height="52px" xmlns="http://www.w3.org/2000/svg">
  <defs>
    <pattern id="BGPattern" patternUnits="userSpaceOnUse" alignment="0 0" imageRepeat="None" />
    <mask fill="white" id="Clip344">
      <path d="M 134 52  L 0 52  C 0 22.879999999999995  29.479999999999997 0  67 0  C 104.52000000000001 0  134 22.879999999999995  134 52  Z " fill-rule="evenodd" />
    </mask>
  </defs>
  <g transform="matrix(1 0 0 1 -28 -15 )">
    <path d="M 134 52  L 0 52  C 0 22.879999999999995  29.479999999999997 0  67 0  C 104.52000000000001 0  134 22.879999999999995  134 52  Z " fill-rule="nonzero" fill="rgba(51, 51, 51, 1)" stroke="none" transform="matrix(1 0 0 1 28 15 )" class="fill" />
    <path d="M 134 52  L 0 52  C 0 22.879999999999995  29.479999999999997 0  67 0  C 104.52000000000001 0  134 22.879999999999995  134 52  Z " stroke-width="2" stroke-dasharray="0" stroke="rgba(121, 121, 121, 1)" fill="none" transform="matrix(1 0 0 1 28 15 )" class="stroke" mask="url(#Clip344)" />
  </g>
</svg>