<?xml version="1.0" encoding="utf-8"?>
<svg version="1.1" xmlns:xlink="http://www.w3.org/1999/xlink" width="43px" height="17px" xmlns="http://www.w3.org/2000/svg">
  <defs>
    <pattern id="BGPattern" patternUnits="userSpaceOnUse" alignment="0 0" imageRepeat="None" />
    <mask fill="white" id="Clip347">
      <path d="M 0 0  L 36.2 0  L 37.900000000000006 0.336046511627907  L 43 8.5  L 37.900000000000006 16.663953488372094  L 36.2 17  L 0 17  L 0 0  Z " fill-rule="evenodd" />
    </mask>
  </defs>
  <g transform="matrix(1 0 0 1 -198 -562 )">
    <path d="M 0 0  L 36.2 0  L 37.900000000000006 0.336046511627907  L 43 8.5  L 37.900000000000006 16.663953488372094  L 36.2 17  L 0 17  L 0 0  Z " fill-rule="nonzero" fill="rgba(170, 170, 170, 1)" stroke="none" transform="matrix(1 0 0 1 198 562 )" class="fill" />
    <path d="M 0 0  L 36.2 0  L 37.900000000000006 0.336046511627907  L 43 8.5  L 37.900000000000006 16.663953488372094  L 36.2 17  L 0 17  L 0 0  Z " stroke-width="0" stroke-dasharray="0" stroke="rgba(170, 170, 170, 1)" fill="none" transform="matrix(1 0 0 1 198 562 )" class="stroke" mask="url(#Clip347)" />
  </g>
</svg>