<?xml version="1.0" encoding="utf-8"?>
<svg version="1.1" xmlns:xlink="http://www.w3.org/1999/xlink" width="170px" height="170px" xmlns="http://www.w3.org/2000/svg">
  <g transform="matrix(1 0 0 1 -1205 -130 )">
    <path d="M 1290 130  C 1337.6 130  1375 167.4  1375 215  C 1375 262.6  1337.6 300  1290 300  C 1242.4 300  1205 262.6  1205 215  C 1205 167.4  1242.4 130  1290 130  Z " fill-rule="nonzero" fill="#ffffff" stroke="none" />
    <path d="M 1290 130.5  C 1337.32 130.5  1374.5 167.68  1374.5 215  C 1374.5 262.32  1337.32 299.5  1290 299.5  C 1242.68 299.5  1205.5 262.32  1205.5 215  C 1205.5 167.68  1242.68 130.5  1290 130.5  Z " stroke-width="1" stroke="#797979" fill="none" />
  </g>
</svg>