<?xml version="1.0" encoding="utf-8"?>
<svg version="1.1" xmlns:xlink="http://www.w3.org/1999/xlink" width="170px" height="170px" xmlns="http://www.w3.org/2000/svg">
  <defs>
    <pattern id="BGPattern" patternUnits="userSpaceOnUse" alignment="0 0" imageRepeat="None" />
    <mask fill="white" id="Clip198">
      <path d="M 0 85  C 0 37.4  37.4 0  85 0  C 132.6 0  170 37.4  170 85  C 170 132.6  132.6 170  85 170  C 37.4 170  0 132.6  0 85  Z " fill-rule="evenodd" />
    </mask>
  </defs>
  <g transform="matrix(1 0 0 1 -327 -332 )">
    <path d="M 0 85  C 0 37.4  37.4 0  85 0  C 132.6 0  170 37.4  170 85  C 170 132.6  132.6 170  85 170  C 37.4 170  0 132.6  0 85  Z " fill-rule="nonzero" fill="rgba(250, 205, 145, 1)" stroke="none" transform="matrix(1 0 0 1 327 332 )" class="fill" />
    <path d="M 0 85  C 0 37.4  37.4 0  85 0  C 132.6 0  170 37.4  170 85  C 170 132.6  132.6 170  85 170  C 37.4 170  0 132.6  0 85  Z " stroke-width="2" stroke-dasharray="0" stroke="rgba(121, 121, 121, 1)" fill="none" transform="matrix(1 0 0 1 327 332 )" class="stroke" mask="url(#Clip198)" />
  </g>
</svg>