<?xml version="1.0" encoding="utf-8"?>
<svg version="1.1" xmlns:xlink="http://www.w3.org/1999/xlink" width="24px" height="23px" xmlns="http://www.w3.org/2000/svg">
  <defs>
    <pattern id="BGPattern" patternUnits="userSpaceOnUse" alignment="0 0" imageRepeat="None" />
    <mask fill="white" id="Clip269">
      <path d="M 4.300000000001091 22  C -0.09999999999763531 20.239999999999327  1 10  1 10  C 1 4.400000000000091  5.399999999999636 0  11 0  L 16 0  C 21.600000000000364 0  23.820000000001528 3.599999999999909  23.820000000001528 3.599999999999909  C 23.820000000001528 3.599999999999909  8.699999999999818 23.760000000000673  4.300000000001091 22  Z " fill-rule="evenodd" />
    </mask>
  </defs>
  <g transform="matrix(1 0 0 1 -4360 -1382 )">
    <path d="M 4.300000000001091 22  C -0.09999999999763531 20.239999999999327  1 10  1 10  C 1 4.400000000000091  5.399999999999636 0  11 0  L 16 0  C 21.600000000000364 0  23.820000000001528 3.599999999999909  23.820000000001528 3.599999999999909  C 23.820000000001528 3.599999999999909  8.699999999999818 23.760000000000673  4.300000000001091 22  Z " fill-rule="nonzero" fill="rgba(57, 189, 73, 0.8)" stroke="none" transform="matrix(1 0 0 1 4360 1382 )" class="fill" />
    <path d="M 4.300000000001091 22  C -0.09999999999763531 20.239999999999327  1 10  1 10  C 1 4.400000000000091  5.399999999999636 0  11 0  L 16 0  C 21.600000000000364 0  23.820000000001528 3.599999999999909  23.820000000001528 3.599999999999909  C 23.820000000001528 3.599999999999909  8.699999999999818 23.760000000000673  4.300000000001091 22  Z " stroke-width="0" stroke-dasharray="0" stroke="rgba(128, 128, 255, 1)" fill="none" transform="matrix(1 0 0 1 4360 1382 )" class="stroke" mask="url(#Clip269)" />
  </g>
</svg>