<?xml version="1.0" encoding="utf-8"?>
<svg version="1.1" xmlns:xlink="http://www.w3.org/1999/xlink" width="110px" height="113px" xmlns="http://www.w3.org/2000/svg">
  <defs>
    <pattern id="BGPattern" patternUnits="userSpaceOnUse" alignment="0 0" imageRepeat="None" />
    <mask fill="white" id="Clip270">
      <path d="M 0 103  L 0 10  C 0 4.400000000000091  4.399999999999636 0  10 0  L 104 0  C 109.60000000000036 0  108.97999999999865 2  109.3799999999992 2.3199999999983447  L 59.46913580246746 57.48148148147947  C 59.46913580246746 63.08148148147939  10 113  10 113  C 4.399999999999636 113  0 108.59999999999991  0 103  Z " fill-rule="evenodd" />
    </mask>
  </defs>
  <g transform="matrix(1 0 0 1 -4651 -1296 )">
    <path d="M 0 103  L 0 10  C 0 4.400000000000091  4.399999999999636 0  10 0  L 104 0  C 109.60000000000036 0  108.97999999999865 2  109.3799999999992 2.3199999999983447  L 59.46913580246746 57.48148148147947  C 59.46913580246746 63.08148148147939  10 113  10 113  C 4.399999999999636 113  0 108.59999999999991  0 103  Z " fill-rule="nonzero" fill="rgba(57, 189, 73, 0.8)" stroke="none" transform="matrix(1 0 0 1 4651 1296 )" class="fill" />
    <path d="M 0 103  L 0 10  C 0 4.400000000000091  4.399999999999636 0  10 0  L 104 0  C 109.60000000000036 0  108.97999999999865 2  109.3799999999992 2.3199999999983447  L 59.46913580246746 57.48148148147947  C 59.46913580246746 63.08148148147939  10 113  10 113  C 4.399999999999636 113  0 108.59999999999991  0 103  Z " stroke-width="0" stroke-dasharray="0" stroke="rgba(128, 128, 255, 1)" fill="none" transform="matrix(1 0 0 1 4651 1296 )" class="stroke" mask="url(#Clip270)" />
  </g>
</svg>