<?xml version="1.0" encoding="utf-8"?>
<svg version="1.1" xmlns:xlink="http://www.w3.org/1999/xlink" width="394px" height="132px" xmlns="http://www.w3.org/2000/svg">
  <defs>
    <radialGradient cx="11.96407185628913" cy="65.18562874251771" r="505.589545229107" gradientTransform="matrix(0 -1 0.28537033938902223 0 -6.637973141249951 77.14970059880685 )" gradientUnits="userSpaceOnUse" id="RadialGradient275">
      <stop id="Stop276" stop-color="#ffffff" stop-opacity="0" offset="0" />
      <stop id="Stop277" stop-color="#000000" stop-opacity="0.4" offset="1" />
    </radialGradient>
    <pattern id="BGPattern" patternUnits="userSpaceOnUse" alignment="0 0" imageRepeat="None" />
    <mask fill="white" id="Clip278">
      <path d="M 314 131.4285714285711  L 1 132  L 1 0  L 379 0  C 387.39999999999964 0  394 6.599999999999909  394 15  L 394 65  L 314 65  L 314 131.4285714285711  Z " fill-rule="evenodd" />
    </mask>
  </defs>
  <g transform="matrix(1 0 0 1 -7746 -2102 )">
    <path d="M 314 131.4285714285711  L 1 132  L 1 0  L 379 0  C 387.39999999999964 0  394 6.599999999999909  394 15  L 394 65  L 314 65  L 314 131.4285714285711  Z " fill-rule="nonzero" fill="url(#RadialGradient275)" stroke="none" transform="matrix(1 0 0 1 7746 2102 )" class="fill" />
    <path d="M 314 131.4285714285711  L 1 132  L 1 0  L 379 0  C 387.39999999999964 0  394 6.599999999999909  394 15  L 394 65  L 314 65  L 314 131.4285714285711  Z " stroke-width="0" stroke-dasharray="0" stroke="rgba(149, 242, 4, 1)" fill="none" transform="matrix(1 0 0 1 7746 2102 )" class="stroke" mask="url(#Clip278)" />
  </g>
</svg>