<?xml version="1.0" encoding="utf-8"?>
<svg version="1.1" xmlns:xlink="http://www.w3.org/1999/xlink" width="81px" height="65px" xmlns="http://www.w3.org/2000/svg">
  <defs>
    <radialGradient cx="12.683651804670976" cy="32.65100225674219" r="248.964548787061" gradientTransform="matrix(1.1558666058474439E-15 1 -0.2460558549730524 2.84407745936593E-16 20.71762208068072 19.9673504520712 )" gradientUnits="userSpaceOnUse" id="RadialGradient279">
      <stop id="Stop280" stop-color="#ffffff" stop-opacity="0" offset="0" />
      <stop id="Stop281" stop-color="#f2f2f2" stop-opacity="0.4" offset="1" />
    </radialGradient>
    <pattern id="BGPattern" patternUnits="userSpaceOnUse" alignment="0 0" imageRepeat="None" />
    <mask fill="white" id="Clip282">
      <path d="M 0 65  L 0 0  L 81 0  L 81 49.99999999999999  C 81 58.4  74.4 65  66 65  L 0 65  Z " fill-rule="evenodd" />
    </mask>
  </defs>
  <g transform="matrix(1 0 0 1 -8059 -2167 )">
    <path d="M 0 65  L 0 0  L 81 0  L 81 49.99999999999999  C 81 58.4  74.4 65  66 65  L 0 65  Z " fill-rule="nonzero" fill="url(#RadialGradient279)" stroke="none" transform="matrix(1 0 0 1 8059 2167 )" class="fill" />
    <path d="M 0 65  L 0 0  L 81 0  L 81 49.99999999999999  C 81 58.4  74.4 65  66 65  L 0 65  Z " stroke-width="0" stroke-dasharray="0" stroke="rgba(121, 121, 121, 1)" fill="none" transform="matrix(1 0 0 1 8059 2167 )" class="stroke" mask="url(#Clip282)" />
  </g>
</svg>