<?xml version="1.0" encoding="utf-8"?>
<svg version="1.1" xmlns:xlink="http://www.w3.org/1999/xlink" width="23px" height="22px" xmlns="http://www.w3.org/2000/svg">
  <defs>
    <pattern id="BGPattern" patternUnits="userSpaceOnUse" alignment="0 0" imageRepeat="None" />
    <mask fill="white" id="Clip284">
      <path d="M 0 14.999999999999998  L 0 10  C 0 4.399999999999977  4.400000000000091 0  10 0  L 15 0  C 20.59999999999991 0  20.799999999999955 2.5  22.299999999999955 3.6999999999999886  L 2.199999999999818 21.600000000000023  C 2.900000000000091 21.600000000000023  0 20.600000000000023  0 14.999999999999998  Z " fill-rule="evenodd" />
    </mask>
  </defs>
  <g transform="matrix(1 0 0 1 -7997 -1617 )">
    <path d="M 0 14.999999999999998  L 0 10  C 0 4.399999999999977  4.400000000000091 0  10 0  L 15 0  C 20.59999999999991 0  20.799999999999955 2.5  22.299999999999955 3.6999999999999886  L 2.199999999999818 21.600000000000023  C 2.900000000000091 21.600000000000023  0 20.600000000000023  0 14.999999999999998  Z " fill-rule="nonzero" fill="rgba(128, 255, 255, 0.8)" stroke="none" transform="matrix(1 0 0 1 7997 1617 )" class="fill" />
    <path d="M 0 14.999999999999998  L 0 10  C 0 4.399999999999977  4.400000000000091 0  10 0  L 15 0  C 20.59999999999991 0  20.799999999999955 2.5  22.299999999999955 3.6999999999999886  L 2.199999999999818 21.600000000000023  C 2.900000000000091 21.600000000000023  0 20.600000000000023  0 14.999999999999998  Z " stroke-width="0" stroke-dasharray="0" stroke="rgba(128, 128, 255, 1)" fill="none" transform="matrix(1 0 0 1 7997 1617 )" class="stroke" mask="url(#Clip284)" />
  </g>
</svg>