<?xml version="1.0" encoding="utf-8"?>
<svg version="1.1" xmlns:xlink="http://www.w3.org/1999/xlink" width="146px" height="210px" xmlns="http://www.w3.org/2000/svg">
  <defs>
    <mask fill="white" id="clip1919">
      <path d="M 133.009284665909 209  L 109.511485509967 209.000063679153  C 119.40740309078 190.884813647034  125 169.955033674774  125 147.5  C 125 77.1607628911709  70.1241317984463 21.7876716554928  0 21.0081794492139  L 0.000231695184993441 0.00714457583993067  C 81.884478283323 0.787513776473617  146 65.400731199599  146 147.5  C 146 169.562254107633  141.369964009506 190.361771126949  133.009284665909 209  Z " fill-rule="evenodd" />
    </mask>
  </defs>
  <g transform="matrix(1 0 0 1 -2910 -83 )">
    <path d="M 133.009284665909 209  L 109.511485509967 209.000063679153  C 119.40740309078 190.884813647034  125 169.955033674774  125 147.5  C 125 77.1607628911709  70.1241317984463 21.7876716554928  0 21.0081794492139  L 0.000231695184993441 0.00714457583993067  C 81.884478283323 0.787513776473617  146 65.400731199599  146 147.5  C 146 169.562254107633  141.369964009506 190.361771126949  133.009284665909 209  Z " fill-rule="nonzero" fill="#f59a23" stroke="none" fill-opacity="0.298039215686275" transform="matrix(1 0 0 1 2910 83 )" />
    <path d="M 133.009284665909 209  L 109.511485509967 209.000063679153  C 119.40740309078 190.884813647034  125 169.955033674774  125 147.5  C 125 77.1607628911709  70.1241317984463 21.7876716554928  0 21.0081794492139  L 0.000231695184993441 0.00714457583993067  C 81.884478283323 0.787513776473617  146 65.400731199599  146 147.5  C 146 169.562254107633  141.369964009506 190.361771126949  133.009284665909 209  Z " stroke-width="10" stroke="#000000" fill="none" transform="matrix(1 0 0 1 2910 83 )" mask="url(#clip1919)" />
  </g>
</svg>