<?xml version="1.0" encoding="utf-8"?>
<svg version="1.1" xmlns:xlink="http://www.w3.org/1999/xlink" width="137px" height="92px" xmlns="http://www.w3.org/2000/svg">
  <defs>
    <mask fill="white" id="clip1923">
      <path d="M 136.14103817904 91  L 113.098326493375 91.0003055015605  C 92.7223401234617 49.3375558918103  50.2051198281408 21.1866187075415  0 21.0007739315375  L 0.00036007505877933 0.000794131931982633  C 62.2699138119726 0.198490252319758  114.408469480617 37.2898623417328  136.14103817904 91  Z " fill-rule="evenodd" />
    </mask>
  </defs>
  <g transform="matrix(1 0 0 1 -4559 -2039 )">
    <path d="M 136.14103817904 91  L 113.098326493375 91.0003055015605  C 92.7223401234617 49.3375558918103  50.2051198281408 21.1866187075415  0 21.0007739315375  L 0.00036007505877933 0.000794131931982633  C 62.2699138119726 0.198490252319758  114.408469480617 37.2898623417328  136.14103817904 91  Z " fill-rule="nonzero" fill="#f59a23" stroke="none" fill-opacity="0.298039215686275" transform="matrix(1 0 0 1 4559 2039 )" />
    <path d="M 136.14103817904 91  L 113.098326493375 91.0003055015605  C 92.7223401234617 49.3375558918103  50.2051198281408 21.1866187075415  0 21.0007739315375  L 0.00036007505877933 0.000794131931982633  C 62.2699138119726 0.198490252319758  114.408469480617 37.2898623417328  136.14103817904 91  Z " stroke-width="10" stroke="#000000" fill="none" transform="matrix(1 0 0 1 4559 2039 )" mask="url(#clip1923)" />
  </g>
</svg>