<?xml version="1.0" encoding="utf-8"?>
<svg version="1.1" xmlns:xlink="http://www.w3.org/1999/xlink" width="295px" height="295px" xmlns="http://www.w3.org/2000/svg">
  <defs>
    <mask fill="white" id="clip743">
      <path d="M 295 147.5  C 295 230.1  230.1 295  147.5 295  C 64.9000000000001 295  0 230.1  0 147.5  C 0 64.9  64.9000000000001 0  147.5 0  C 230.1 0  295 64.9  295 147.5  Z M 21 147.5  C 21 218.34  76.6600000000001 274  147.5 274  C 218.34 274  274 218.34  274 147.5  C 274 76.66  218.34 21  147.5 21  C 76.6600000000001 21  21 76.66  21 147.5  Z " fill-rule="evenodd" />
    </mask>
  </defs>
  <g transform="matrix(1 0 0 1 -6064 -2039 )">
    <path d="M 295 147.5  C 295 230.1  230.1 295  147.5 295  C 64.9000000000001 295  0 230.1  0 147.5  C 0 64.9  64.9000000000001 0  147.5 0  C 230.1 0  295 64.9  295 147.5  Z M 21 147.5  C 21 218.34  76.6600000000001 274  147.5 274  C 218.34 274  274 218.34  274 147.5  C 274 76.66  218.34 21  147.5 21  C 76.6600000000001 21  21 76.66  21 147.5  Z " fill-rule="nonzero" fill="#facd91" stroke="none" fill-opacity="0.996078431372549" transform="matrix(1 0 0 1 6064 2039 )" />
    <path d="M 295 147.5  C 295 230.1  230.1 295  147.5 295  C 64.9000000000001 295  0 230.1  0 147.5  C 0 64.9  64.9000000000001 0  147.5 0  C 230.1 0  295 64.9  295 147.5  Z " stroke-width="10" stroke="#000000" fill="none" transform="matrix(1 0 0 1 6064 2039 )" mask="url(#clip743)" />
    <path d="M 21 147.5  C 21 218.34  76.6600000000001 274  147.5 274  C 218.34 274  274 218.34  274 147.5  C 274 76.66  218.34 21  147.5 21  C 76.6600000000001 21  21 76.66  21 147.5  Z " stroke-width="10" stroke="#000000" fill="none" transform="matrix(1 0 0 1 6064 2039 )" mask="url(#clip743)" />
  </g>
</svg>