<?xml version="1.0" encoding="utf-8"?>
<svg version="1.1" xmlns:xlink="http://www.w3.org/1999/xlink" width="90px" height="90px" xmlns="http://www.w3.org/2000/svg">
  <g transform="matrix(1 0 0 1 -101 -968 )">
    <path d="M 146 968  C 171.2 968  191 987.8  191 1013  C 191 1038.2  171.2 1058  146 1058  C 120.8 1058  101 1038.2  101 1013  C 101 987.8  120.8 968  146 968  Z " fill-rule="nonzero" fill="#d7d7d7" stroke="none" />
    <path d="M 146 968.5  C 170.92 968.5  190.5 988.08  190.5 1013  C 190.5 1037.92  170.92 1057.5  146 1057.5  C 121.08 1057.5  101.5 1037.92  101.5 1013  C 101.5 988.08  121.08 968.5  146 968.5  Z " stroke-width="1" stroke="#797979" fill="none" />
  </g>
</svg>