<?xml version="1.0" encoding="utf-8"?>
<svg version="1.1" xmlns:xlink="http://www.w3.org/1999/xlink" width="184px" height="185px" xmlns="http://www.w3.org/2000/svg">
  <defs>
    <pattern id="BGPattern" patternUnits="userSpaceOnUse" alignment="0 0" imageRepeat="None" />
    <mask fill="white" id="Clip574">
      <path d="M 0 185  L 0 92  L 91 92  L 91 0  L 184 0  L 184 185  L 0 185  Z " fill-rule="evenodd" />
    </mask>
  </defs>
  <g transform="matrix(1 0 0 1 -3 -2 )">
    <path d="M 0 185  L 0 92  L 91 92  L 91 0  L 184 0  L 184 185  L 0 185  Z " fill-rule="nonzero" fill="rgba(85, 85, 85, 0.5098039215686274)" stroke="none" transform="matrix(1 0 0 1 3 2 )" class="fill" />
    <path d="M 0 185  L 0 92  L 91 92  L 91 0  L 184 0  L 184 185  L 0 185  Z " stroke-width="0" stroke-dasharray="0" stroke="rgba(121, 121, 121, 1)" fill="none" transform="matrix(1 0 0 1 3 2 )" class="stroke" mask="url(#Clip574)" />
  </g>
</svg>