<?xml version="1.0" encoding="utf-8"?>
<svg version="1.1" xmlns:xlink="http://www.w3.org/1999/xlink" width="64px" height="64px" xmlns="http://www.w3.org/2000/svg">
  <defs>
    <pattern id="BGPattern" patternUnits="userSpaceOnUse" alignment="0 0" imageRepeat="None" />
    <mask fill="white" id="Clip2360">
      <path d="M 0 32  C 0 14.079999999999998  14.079999999999998 0  32 0  C 49.92 0  64 14.079999999999998  64 32  C 64 49.92  49.92 64  32 64  C 14.079999999999998 64  0 49.92  0 32  Z " fill-rule="evenodd" />
    </mask>
  </defs>
  <g transform="matrix(1 0 0 1 -204 -464 )">
    <path d="M 0 32  C 0 14.079999999999998  14.079999999999998 0  32 0  C 49.92 0  64 14.079999999999998  64 32  C 64 49.92  49.92 64  32 64  C 14.079999999999998 64  0 49.92  0 32  Z " fill-rule="nonzero" fill="rgba(255, 255, 255, 1)" stroke="none" transform="matrix(1 0 0 1 204 464 )" class="fill" />
    <path d="M 0 32  C 0 14.079999999999998  14.079999999999998 0  32 0  C 49.92 0  64 14.079999999999998  64 32  C 64 49.92  49.92 64  32 64  C 14.079999999999998 64  0 49.92  0 32  Z " stroke-width="2" stroke-dasharray="0" stroke="rgba(121, 121, 121, 1)" fill="none" transform="matrix(1 0 0 1 204 464 )" class="stroke" mask="url(#Clip2360)" />
  </g>
</svg>