<?xml version="1.0" encoding="utf-8"?>
<svg version="1.1" xmlns:xlink="http://www.w3.org/1999/xlink" width="142px" height="190px" xmlns="http://www.w3.org/2000/svg">
  <defs>
    <pattern id="BGPattern" patternUnits="userSpaceOnUse" alignment="0 0" imageRepeat="None" />
    <mask fill="white" id="Clip449">
      <path d="M 0 145.6  L 0 24.400000000000006  C 0 10.736  26.839999999999996 0  61 0  C 95.16 0  122 10.736  122 24.400000000000006  L 122 145.6  C 122 159.26399999999998  95.16 170  61 170  C 26.839999999999996 170  0 159.26399999999998  0 145.6  Z " fill-rule="evenodd" />
    </mask>
  </defs>
  <g transform="matrix(1 0 0 1 -715 -510 )">
    <path d="M 0 145.6  L 0 24.400000000000006  C 0 10.736  26.839999999999996 0  61 0  C 95.16 0  122 10.736  122 24.400000000000006  L 122 145.6  C 122 159.26399999999998  95.16 170  61 170  C 26.839999999999996 170  0 159.26399999999998  0 145.6  Z M 0 24.400000000000006  L 122 24.400000000000006  C 122 38.06400000000001  95.16 48.80000000000001  61 48.80000000000001  C 26.839999999999996 48.80000000000001  0 38.06400000000001  0 24.400000000000006  Z " fill-rule="nonzero" fill="rgba(127, 127, 127, 1)" stroke="none" transform="matrix(1 0 0 1 715 510 )" class="fill" />
    <path d="M 0 145.6  L 0 24.400000000000006  C 0 10.736  26.839999999999996 0  61 0  C 95.16 0  122 10.736  122 24.400000000000006  L 122 145.6  C 122 159.26399999999998  95.16 170  61 170  C 26.839999999999996 170  0 159.26399999999998  0 145.6  Z " stroke-width="0" stroke-dasharray="0" stroke="rgba(121, 121, 121, 1)" fill="none" transform="matrix(1 0 0 1 715 510 )" class="stroke" mask="url(#Clip449)" />
    <path d="M 122 24.400000000000006  C 122 38.06400000000001  95.16 48.80000000000001  61 48.80000000000001  C 26.839999999999996 48.80000000000001  0 38.06400000000001  0 24.400000000000006  " stroke-width="0" stroke-dasharray="0" stroke="rgba(121, 121, 121, 1)" fill="none" transform="matrix(1 0 0 1 715 510 )" class="stroke" />
  </g>
  <style>svg { filter: drop-shadow(10px 10px 5px rgba(0, 0, 0, 0.34901960784313724)); }</style>
</svg>