<?xml version="1.0" encoding="utf-8"?>
<svg version="1.1" xmlns:xlink="http://www.w3.org/1999/xlink" width="146px" height="146px" xmlns="http://www.w3.org/2000/svg">
  <defs>
    <pattern id="BGPattern" patternUnits="userSpaceOnUse" alignment="0 0" imageRepeat="None" />
    <mask fill="white" id="Clip468">
      <path d="M 0 73  C 0 32.12  32.12 0  73 0  C 113.88000000000001 0  146 32.12  146 73  C 146 113.88000000000001  113.88000000000001 146  73 146  C 32.12 146  0 113.88000000000001  0 73  Z " fill-rule="evenodd" />
    </mask>
  </defs>
  <g transform="matrix(1 0 0 1 -806 -2804 )">
    <path d="M 0 73  C 0 32.12  32.12 0  73 0  C 113.88000000000001 0  146 32.12  146 73  C 146 113.88000000000001  113.88000000000001 146  73 146  C 32.12 146  0 113.88000000000001  0 73  Z " fill-rule="nonzero" fill="rgba(170, 170, 170, 1)" stroke="none" transform="matrix(1 0 0 1 806 2804 )" class="fill" />
    <path d="M 0 73  C 0 32.12  32.12 0  73 0  C 113.88000000000001 0  146 32.12  146 73  C 146 113.88000000000001  113.88000000000001 146  73 146  C 32.12 146  0 113.88000000000001  0 73  Z " stroke-width="0" stroke-dasharray="0" stroke="rgba(121, 121, 121, 1)" fill="none" transform="matrix(1 0 0 1 806 2804 )" class="stroke" mask="url(#Clip468)" />
  </g>
</svg>