<?xml version="1.0" encoding="utf-8"?>
<svg version="1.1" xmlns:xlink="http://www.w3.org/1999/xlink" width="1123px" height="918px" xmlns="http://www.w3.org/2000/svg">
  <defs>
    <linearGradient gradientUnits="userSpaceOnUse" x1="1123" y1="457.0000000000001" x2="24.5" y2="449.0000000000002" id="LinearGradient374">
      <stop id="Stop375" stop-color="#ffffff" stop-opacity="0.01568627450980392" offset="0" />
      <stop id="Stop376" stop-color="#000000" stop-opacity="0.09019607843137255" offset="1" />
    </linearGradient>
    <pattern id="BGPattern" patternUnits="userSpaceOnUse" alignment="0 0" imageRepeat="None" />
    <mask fill="white" id="Clip377">
      <path d="M 0 903  L 0 15  C 0 6.6  6.6 0  15 0  L 1108 0  C 1116.3999999999999 0  1123 6.6  1123 15  L 1123 903  C 1123 911.4  1116.3999999999999 918  1108 918  L 15 918  C 6.6 918  0 911.4  0 903  Z " fill-rule="evenodd" />
    </mask>
  </defs>
  <g transform="matrix(1 0 0 1 -1448 -349 )">
    <path d="M 0 903  L 0 15  C 0 6.6  6.6 0  15 0  L 1108 0  C 1116.3999999999999 0  1123 6.6  1123 15  L 1123 903  C 1123 911.4  1116.3999999999999 918  1108 918  L 15 918  C 6.6 918  0 911.4  0 903  Z " fill-rule="nonzero" fill="url(#LinearGradient374)" stroke="none" transform="matrix(1 0 0 1 1448 349 )" class="fill" />
    <path d="M 0 903  L 0 15  C 0 6.6  6.6 0  15 0  L 1108 0  C 1116.3999999999999 0  1123 6.6  1123 15  L 1123 903  C 1123 911.4  1116.3999999999999 918  1108 918  L 15 918  C 6.6 918  0 911.4  0 903  Z " stroke-width="0" stroke-dasharray="0" stroke="rgba(230, 230, 230, 1)" fill="none" transform="matrix(1 0 0 1 1448 349 )" class="stroke" mask="url(#Clip377)" />
  </g>
</svg>