<?xml version="1.0" encoding="utf-8"?>
<svg version="1.1" xmlns:xlink="http://www.w3.org/1999/xlink" width="183px" height="183px" xmlns="http://www.w3.org/2000/svg">
  <defs>
    <pattern id="BGPattern" patternUnits="userSpaceOnUse" alignment="0 0" imageRepeat="None" />
    <mask fill="white" id="Clip2344">
      <path d="M 0 91.5  C 0 40.26  40.26 0  91.5 0  C 142.74 0  183 40.26  183 91.5  C 183 142.74  142.74 183  91.5 183  C 40.26 183  0 142.74  0 91.5  Z " fill-rule="evenodd" />
    </mask>
  </defs>
  <g transform="matrix(1 0 0 1 -342 -1308 )">
    <path d="M 0 91.5  C 0 40.26  40.26 0  91.5 0  C 142.74 0  183 40.26  183 91.5  C 183 142.74  142.74 183  91.5 183  C 40.26 183  0 142.74  0 91.5  Z " fill-rule="nonzero" fill="rgba(255, 255, 255, 1)" stroke="none" transform="matrix(1 0 0 1 342 1308 )" class="fill" />
    <path d="M 0 91.5  C 0 40.26  40.26 0  91.5 0  C 142.74 0  183 40.26  183 91.5  C 183 142.74  142.74 183  91.5 183  C 40.26 183  0 142.74  0 91.5  Z " stroke-width="2" stroke-dasharray="0" stroke="rgba(121, 121, 121, 1)" fill="none" transform="matrix(1 0 0 1 342 1308 )" class="stroke" mask="url(#Clip2344)" />
  </g>
</svg>