<?xml version="1.0" encoding="utf-8"?>
<svg version="1.1" xmlns:xlink="http://www.w3.org/1999/xlink" width="52px" height="52px" xmlns="http://www.w3.org/2000/svg">
  <defs>
    <pattern id="BGPattern" patternUnits="userSpaceOnUse" alignment="0 0" imageRepeat="None" />
    <mask fill="white" id="Clip207">
      <path d="M 0 26  C 0 11.439999999999998  11.439999999999998 0  26 0  C 40.56 0  52 11.439999999999998  52 26  C 52 40.56  40.56 52  26 52  C 11.439999999999998 52  0 40.56  0 26  Z " fill-rule="evenodd" />
    </mask>
  </defs>
  <g transform="matrix(1 0 0 1 -1423 -354 )">
    <path d="M 0 26  C 0 11.439999999999998  11.439999999999998 0  26 0  C 40.56 0  52 11.439999999999998  52 26  C 52 40.56  40.56 52  26 52  C 11.439999999999998 52  0 40.56  0 26  Z " fill-rule="nonzero" fill="rgba(127, 127, 127, 1)" stroke="none" transform="matrix(1 0 0 1 1423 354 )" class="fill" />
    <path d="M 0 26  C 0 11.439999999999998  11.439999999999998 0  26 0  C 40.56 0  52 11.439999999999998  52 26  C 52 40.56  40.56 52  26 52  C 11.439999999999998 52  0 40.56  0 26  Z " stroke-width="2" stroke-dasharray="0" stroke="rgba(121, 121, 121, 1)" fill="none" transform="matrix(1 0 0 1 1423 354 )" class="stroke" mask="url(#Clip207)" />
  </g>
</svg>