<?xml version="1.0" encoding="utf-8"?>
<svg version="1.1" xmlns:xlink="http://www.w3.org/1999/xlink" width="21px" height="26px" xmlns="http://www.w3.org/2000/svg">
  <g transform="matrix(1 0 0 1 -1455 -1122 )">
    <path d="M 1455 1122  L 1476 1122  L 1476 1148  L 1455 1148  L 1455 1122  " fill-rule="nonzero" fill="rgba(204, 204, 204, 1)" stroke="none" class="fill" />
    <path d="M 1456 1123  L 1475 1123  L 1475 1147  L 1456 1147  L 1456 1123  " fill-rule="nonzero" fill="rgba(255, 255, 255, 1)" stroke="none" class="fill" />
    <path d="M 1467.4950000000001 1129.0500000000002  C 1466.613 1129.0500000000002  1465.92 1128.3570000000002  1465.92 1127.4750000000001  C 1465.92 1126.593  1466.613 1125.9  1467.4950000000001 1125.9  C 1468.3770000000002 1125.9  1469.0700000000002 1126.593  1469.0700000000002 1127.4750000000001  C 1469.0700000000002 1128.3570000000002  1468.3770000000002 1129.0500000000002  1467.4950000000001 1129.0500000000002  " fill-rule="nonzero" fill="rgba(204, 204, 204, 1)" stroke="none" class="fill" />
    <path d="M 1457 1147  L 1457 1134.35  L 1461.5 1128.6  L 1467.8 1133.2  L 1471.4 1132.05  L 1475 1133.2  L 1475 1147  L 1457 1147  " fill-rule="nonzero" fill="rgba(22, 155, 213, 1)" stroke="none" class="fill" />
  </g>
</svg>