<?xml version="1.0" encoding="utf-8"?>
<svg version="1.1" xmlns:xlink="http://www.w3.org/1999/xlink" width="21px" height="21px" viewBox="17 8  21 21" xmlns="http://www.w3.org/2000/svg">
  <path d="M 17.5 18.5  A 10 10 0 0 1 27.5 8.5 A 10 10 0 0 1 37.5 18.5 A 10 10 0 0 1 27.5 28.5 A 10 10 0 0 1 17.5 18.5 Z " fill-rule="nonzero" fill="#f0f0f0" stroke="none" />
  <path d="M 17.5 18.5  A 10 10 0 0 1 27.5 8.5 A 10 10 0 0 1 37.5 18.5 A 10 10 0 0 1 27.5 28.5 A 10 10 0 0 1 17.5 18.5 Z " stroke-width="1" stroke="#797979" fill="none" />
</svg>