<?xml version="1.0" encoding="utf-8"?>
<svg version="1.1" xmlns:xlink="http://www.w3.org/1999/xlink" width="21px" height="21px" viewBox="1177 2058  21 21" xmlns="http://www.w3.org/2000/svg">
  <path d="M 1177.5 2068.5  A 10 10 0 0 1 1187.5 2058.5 A 10 10 0 0 1 1197.5 2068.5 A 10 10 0 0 1 1187.5 2078.5 A 10 10 0 0 1 1177.5 2068.5 Z " fill-rule="nonzero" fill="#f0f0f0" stroke="none" />
  <path d="M 1177.5 2068.5  A 10 10 0 0 1 1187.5 2058.5 A 10 10 0 0 1 1197.5 2068.5 A 10 10 0 0 1 1187.5 2078.5 A 10 10 0 0 1 1177.5 2068.5 Z " stroke-width="1" stroke="#797979" fill="none" />
  <path d="M 1181.5 2068.5  L 1186 2073  L 1193.5 2062.5  " stroke-width="4.5" stroke="#797979" fill="none" />
</svg>