<?xml version="1.0" encoding="utf-8"?>
<svg version="1.1" xmlns:xlink="http://www.w3.org/1999/xlink" width="21px" height="21px" viewBox="992 779  21 21" xmlns="http://www.w3.org/2000/svg">
  <path d="M 992.5 789.5  A 10 10 0 0 1 1002.5 779.5 A 10 10 0 0 1 1012.5 789.5 A 10 10 0 0 1 1002.5 799.5 A 10 10 0 0 1 992.5 789.5 Z " fill-rule="nonzero" fill="#f0f0f0" stroke="none" />
  <path d="M 992.5 789.5  A 10 10 0 0 1 1002.5 779.5 A 10 10 0 0 1 1012.5 789.5 A 10 10 0 0 1 1002.5 799.5 A 10 10 0 0 1 992.5 789.5 Z " stroke-width="1" stroke="#797979" fill="none" />
  <path d="M 996.5 789.5  L 1001 794  L 1008.5 783.5  " stroke-width="4.5" stroke="#797979" fill="none" />
</svg>