<?xml version="1.0" encoding="utf-8"?>
<svg version="1.1" xmlns:xlink="http://www.w3.org/1999/xlink" width="21px" height="21px" viewBox="2121 800  21 21" xmlns="http://www.w3.org/2000/svg">
  <path d="M 2121.5 810.5  A 10 10 0 0 1 2131.5 800.5 A 10 10 0 0 1 2141.5 810.5 A 10 10 0 0 1 2131.5 820.5 A 10 10 0 0 1 2121.5 810.5 Z " fill-rule="nonzero" fill="#f0f0f0" stroke="none" />
  <path d="M 2121.5 810.5  A 10 10 0 0 1 2131.5 800.5 A 10 10 0 0 1 2141.5 810.5 A 10 10 0 0 1 2131.5 820.5 A 10 10 0 0 1 2121.5 810.5 Z " stroke-width="1" stroke="#797979" fill="none" />
  <path d="M 2125.5 810.5  L 2130 815  L 2137.5 804.5  " stroke-width="4.5" stroke="#797979" fill="none" />
</svg>