<?xml version="1.0" encoding="utf-8"?>
<svg version="1.1" xmlns:xlink="http://www.w3.org/1999/xlink" width="56px" height="86px" xmlns="http://www.w3.org/2000/svg">
  <defs>
    <pattern id="BGPattern" patternUnits="userSpaceOnUse" alignment="0 0" imageRepeat="None" />
    <mask fill="white" id="Clip577">
      <path d="M 15 10  C 15 4.3999999999999995  19.4 0  25 0  C 30.599999999999998 0  35 4.3999999999999995  35 10  C 35 15.600000000000001  30.599999999999998 20  25 20  C 19.4 20  15 15.600000000000001  15 10  Z " fill-rule="evenodd" />
    </mask>
  </defs>
  <g transform="matrix(1 0 0 1 -122.5 -197.5 )">
    <path d="M 15 10  C 15 4.3999999999999995  19.4 0  25 0  C 30.599999999999998 0  35 4.3999999999999995  35 10  C 35 15.600000000000001  30.599999999999998 20  25 20  C 19.4 20  15 15.600000000000001  15 10  Z " fill-rule="nonzero" fill="rgba(255, 255, 255, 1)" stroke="none" transform="matrix(1 0 0 1 125 200 )" class="fill" />
    <path d="M 15 10  C 15 4.3999999999999995  19.4 0  25 0  C 30.599999999999998 0  35 4.3999999999999995  35 10  C 35 15.600000000000001  30.599999999999998 20  25 20  C 19.4 20  15 15.600000000000001  15 10  Z " stroke-width="10" stroke-dasharray="0" stroke="rgba(121, 121, 121, 1)" fill="none" transform="matrix(1 0 0 1 125 200 )" class="stroke" mask="url(#Clip577)" />
    <path d="M 0 30.5  L 50 30.5  M 25.5 20  L 25.5 55  M 5 80  L 25 55  M 25 55  L 45 80  " stroke-width="5" stroke-dasharray="0" stroke="rgba(121, 121, 121, 1)" fill="none" transform="matrix(1 0 0 1 125 200 )" class="stroke" />
  </g>
</svg>