<?xml version="1.0" encoding="utf-8"?>
<svg version="1.1" xmlns:xlink="http://www.w3.org/1999/xlink" width="56px" height="86px" xmlns="http://www.w3.org/2000/svg">
  <g transform="matrix(1 0 0 1 -122.5 -197.5 )">
    <path d="M 150 204.5  C 153.08 204.5  155.5 206.92  155.5 210  C 155.5 213.08  153.08 215.5  150 215.5  C 146.92 215.5  144.5 213.08  144.5 210  C 144.5 206.92  146.92 204.5  150 204.5  Z " fill-rule="nonzero" fill="#ffffff" stroke="none" />
    <path d="M 150 202.5  C 154.2 202.5  157.5 205.8  157.5 210  C 157.5 214.2  154.2 217.5  150 217.5  C 145.8 217.5  142.5 214.2  142.5 210  C 142.5 205.8  145.8 202.5  150 202.5  Z " stroke-width="5" stroke="#797979" fill="none" />
    <path d="M 125 230  L 175 230  M 150 220  L 150 255  M 130 280  L 150 255  M 150 255  L 170 280  " stroke-width="5" stroke="#797979" fill="none" />
  </g>
</svg>