<?xml version="1.0" encoding="utf-8"?>
<svg version="1.1" xmlns:xlink="http://www.w3.org/1999/xlink" width="2493px" height="10px" preserveAspectRatio="xMinYMid meet" viewBox="1132 2936  2493 8" xmlns="http://www.w3.org/2000/svg">
  <path d="M 3602 2769  L 3615 2769  A 5 5 0 0 1 3620 2774 L 3620 2888  A 3 3 0 0 1 3623 2891 A 3 3 0 0 1 3620 2894 L 3620 2935  A 5 5 0 0 1 3615 2940 L 2141 2940  A 3 3 0 0 0 2138 2937 A 3 3 0 0 0 2135 2940 L 1142 2940  A 5 5 0 0 1 1137 2935 " stroke-width="2" stroke="#d9001b" fill="none" />
  <path d="M 1146.5 2944  L 1137 2930  L 1127.5 2944  L 1146.5 2944  Z " fill-rule="nonzero" fill="#d9001b" stroke="none" />
</svg>